<?xml version="1.0" encoding="utf-8"?>
<!-- Generator: Adobe Illustrator 24.1.3, SVG Export Plug-In . SVG Version: 6.00 Build 0)  -->
<svg version="1.1" id="Calque_1" xmlns="http://www.w3.org/2000/svg" xmlns:xlink="http://www.w3.org/1999/xlink" x="0px" y="0px"
	 viewBox="0 0 41.4 41.4" style="enable-background:new 0 0 41.4 41.4;" xml:space="preserve">
<style type="text/css">
	.st0{fill:#009BA4;}
</style>
<g id="Calque_2_1_">
	<g id="Calque_1-2">
		<path class="st0" d="M30,0H11.4C5.1,0,0,5.1,0,11.4V30c0,6.3,5.1,11.4,11.4,11.4l0,0H30c6.3,0,11.4-5.1,11.4-11.4l0,0V11.4
			C41.4,5.1,36.3,0,30,0L30,0z M29.8,13.3h-3.3c-2.6,0-3.1,1.2-3.1,2.9V20h6.2l-0.8,6h-5.4v15.4H17V26h-5.4v-6H17v-4.4
			c0-5.1,3.3-7.9,8-7.9l4.8,0.2V13.3z"/>
	</g>
</g>
</svg>
