<?xml version="1.0" encoding="utf-8"?>
<!-- Generator: Adobe Illustrator 26.2.1, SVG Export Plug-In . SVG Version: 6.00 Build 0)  -->
<svg version="1.1" id="Calque_1" xmlns="http://www.w3.org/2000/svg" xmlns:xlink="http://www.w3.org/1999/xlink" x="0px" y="0px"
	 viewBox="0 0 167.3 58.5" style="enable-background:new 0 0 167.3 58.5;" xml:space="preserve">
<style type="text/css">
	.st0{fill:#FFFFFF;}
</style>
<g id="a">
</g>
<g id="b">
	<g id="c">
		<g>
			<path class="st0" d="M86.1,6.1c0.3,0,0.6-0.3,0.6-0.6s-0.3-0.6-0.6-0.6s-0.6,0.3-0.6,0.6S85.8,6.1,86.1,6.1z"/>
			<path class="st0" d="M167.2,48.3v-3c-3,5-3.5,11.6-3.5,11.6S166.3,52.5,167.2,48.3z"/>
			<path class="st0" d="M167.3,45.3c0-0.1,0-0.2,0-0.3L167.3,45.3C167.2,45.3,167.2,45.3,167.3,45.3z"/>
			<path class="st0" d="M2.5,6.1c0.3,0,0.6-0.3,0.6-0.6S2.8,4.9,2.5,4.9S1.8,5.2,1.8,5.5S2.1,6.1,2.5,6.1z"/>
			<path class="st0" d="M88.7,45.3c0-0.1,0-0.2,0-0.3L88.7,45.3C88.7,45.3,88.7,45.3,88.7,45.3z"/>
			<path class="st0" d="M4.7,8c0,0.2-0.3,0.4-0.5,0.3C3.8,8.1,3,7.7,2,7.6c-0.2,0-0.4,0.1-0.4,0.3v0.2c0,0.2,0.1,0.3,0.3,0.4
				c1.5,0.2,2.3,0.8,2.5,1.3c0.1,0.3-0.1,0.5-0.4,0.5c-0.4-0.1-1.1-0.3-2.1-0.4c-0.2,0-0.4,0.1-0.4,0.3v0.1c0,0.2,0.1,0.3,0.3,0.4
				c1.2,0.2,1.8,0.6,2.1,1c0.2,0.3-0.1,0.6-0.4,0.5c-0.4-0.1-0.9-0.3-1.7-0.3c-0.2,0-0.4,0.1-0.4,0.3v0.1c0,0.2,0.1,0.3,0.3,0.4
				c0.8,0.1,1.3,0.4,1.6,0.7c0.2,0.2,0,0.7-0.4,0.6c-0.3-0.1-0.7-0.2-1.3-0.2c-0.2,0-0.4,0.1-0.4,0.3l0,0.2c0,0.2,0.1,0.3,0.3,0.4
				c0.4,0.1,0.7,0.2,0.9,0.3c0.4,0.2,0.1,0.7-0.2,0.6c-0.2,0-0.4-0.1-0.6-0.1c-0.2,0-0.4,0.1-0.4,0.3v0.1c0,0.2,0.1,0.3,0.3,0.3
				c0.9,0.2,1.6,0.6,2.1,1.2c2.6-1.3,5.3-4.1,7.9-6.8c3.9-4.1,7.9-8.1,11.9-8.1c3.5,0,6.8,4.1,10.1,8.2c2.9,3.6,5.8,7.2,8.5,7.6
				c0-1.2,0-3.6,0-3.6s0.1-3.4,0.1-3.6c0,0,0-0.2,0.1-0.5c-0.2,0-0.6,0-0.8,0c-0.2,0-0.7,0-1.3-0.1c-0.6-0.1-0.8,0-1,0
				c-0.2,0-1,0-1.4-0.2c-0.4-0.2-1.4-0.6-1.8-0.5c-0.3,0-0.9-0.1-1.1-0.2c-0.1,0-0.4,0-0.7-0.2S35.3,8,35.3,8s2.2-1.7,2.1-1.8
				s0.2-0.4,0.2-0.4c0.8-0.9,4.1-3,4.1-3c0.4-0.3,1.1-0.3,1.1-0.3l0,0c0,0,0.7,0,1.1,0.4c0,0,3.2,2.2,4,3.2c0,0,0.3,0.3,0.1,0.4
				s2,1.9,2,1.9s1.4,1.2,1.1,1.3c-0.2,0.1-0.5,0.1-0.7,0.1c-0.2,0-0.7,0.2-1.1,0.1c-0.3,0-1.4,0.3-1.8,0.5c-0.4,0.1-1.2,0.2-1.4,0.1
				c-0.2,0-0.3-0.1-0.9,0c-0.7,0.1-1.1,0-1.3,0c-0.2,0-0.6,0-0.8,0C43,12,42.9,14.2,43,14.6c0.1,0.7,0,1-0.1,1.6
				c0,0.3-0.1,1.2-0.1,1.8c2.9-0.4,6-4,9.1-7.6c3.5-4.1,7-8.2,10.6-8.2c3.6,0,7.4,4.1,11.1,8.2c2.4,2.7,4.8,5.4,7.2,6.8
				c0.5-0.5,1.2-0.9,2.3-1.1c0.2,0,0.3-0.2,0.3-0.3l0,0c0-0.2-0.2-0.4-0.4-0.3c-0.1,0-0.2,0-0.3,0c-0.4,0.1-0.6-0.5-0.2-0.6
				c0.2-0.1,0.4-0.2,0.6-0.2c0.2,0,0.3-0.2,0.3-0.3V14c0-0.2-0.2-0.4-0.4-0.3c-0.3,0-0.6,0.1-1,0.2c-0.3,0.1-0.6-0.3-0.3-0.6
				c0.3-0.2,0.7-0.5,1.4-0.6c0.2,0,0.3-0.2,0.3-0.3v-0.2c0-0.2-0.2-0.3-0.4-0.3c-0.5,0.1-1,0.2-1.5,0.3c-0.3,0.1-0.6-0.3-0.4-0.5
				c0.3-0.4,0.9-0.8,1.9-1c0.2,0,0.3-0.2,0.3-0.3v-0.2c0-0.2-0.2-0.3-0.4-0.3c-0.7,0.1-1.3,0.2-2,0.4c-0.3,0.1-0.6-0.2-0.4-0.5
				c0.3-0.5,1-1,2.4-1.3c0.2,0,0.3-0.2,0.3-0.3V7.9c0-0.2-0.2-0.4-0.4-0.3c-0.7,0.1-1.4,0.4-2.3,1c-0.2,0.1-0.5,0-0.5-0.2
				c-0.3-2,0.9-6.2,3.6-6.1l0,0c0.1,0,0.3,0,0.4,0c3.3,0.6,4.3,3.5,4.4,5.8c0,0.2-0.3,0.4-0.5,0.3c-0.5-0.2-1.2-0.6-2.2-0.7
				c-0.2,0-0.4,0.1-0.4,0.3v0.2c0,0.2,0.1,0.3,0.3,0.4c1.5,0.2,2.3,0.8,2.5,1.3c0.1,0.3-0.2,0.5-0.4,0.5c-0.4-0.1-1.1-0.3-2.1-0.4
				c-0.2,0-0.4,0.1-0.4,0.3v0.1c0,0.2,0.1,0.3,0.3,0.4c1.2,0.2,1.8,0.6,2.1,1c0.2,0.3-0.1,0.6-0.4,0.5c-0.4-0.1-0.9-0.3-1.7-0.3
				c-0.2,0-0.4,0.1-0.4,0.3v0.1c0,0.2,0.1,0.3,0.3,0.4c0.8,0.1,1.3,0.4,1.6,0.7c0.2,0.2,0,0.7-0.3,0.6c-0.3-0.1-0.7-0.2-1.3-0.2
				c-0.2,0-0.4,0.1-0.4,0.3l0,0.2c0,0.2,0.1,0.3,0.3,0.4c0.4,0.1,0.7,0.2,0.9,0.3c0.3,0.2,0.1,0.7-0.2,0.6c-0.2,0-0.4-0.1-0.7-0.1
				c-0.2,0-0.4,0.1-0.4,0.3v0.1c0,0.2,0.1,0.3,0.3,0.3c0.9,0.2,1.6,0.6,2.1,1.2c2.6-1.3,5.3-4.1,7.9-6.8c3.9-4.1,7.9-8.1,11.9-8.1
				c3.5,0,6.8,4.1,10.1,8.2c2.9,3.6,5.8,7.2,8.5,7.6c0-1.2,0-3.6,0-3.6s0.1-3.4,0.1-3.6c0,0,0-0.2,0.1-0.5c-0.2,0-0.6,0-0.8,0
				c-0.2,0-0.7,0-1.3-0.1c-0.6-0.1-0.8,0-1,0c-0.2,0-1,0-1.4-0.2c-0.4-0.2-1.5-0.6-1.8-0.5c-0.3,0-0.9-0.1-1-0.2
				c-0.2,0-0.5,0-0.7-0.2C117.5,9.2,119,8,119,8s2.2-1.7,2.1-1.8c-0.1-0.1,0.2-0.4,0.2-0.4c0.8-0.9,4.1-3,4.1-3
				c0.4-0.3,1.1-0.3,1.1-0.3l0,0c0,0,0.7,0,1.1,0.4c0,0,3.2,2.2,4,3.2c0,0,0.3,0.3,0.1,0.4c-0.1,0.1,2,1.9,2,1.9s1.4,1.2,1.1,1.3
				c-0.2,0.1-0.5,0.1-0.7,0.1c-0.2,0-0.7,0.2-1.1,0.1c-0.3,0-1.4,0.3-1.8,0.5c-0.4,0.1-1.2,0.2-1.4,0.1s-0.3-0.1-0.9,0
				c-0.6,0.1-1.1,0-1.3,0c-0.2,0-0.6,0-0.8,0c-0.1,1.6-0.2,3.8-0.2,4.2c0,0.7,0,1-0.1,1.6c0,0.3,0,1.2,0,1.8c2.9-0.4,6-4,9-7.6
				c3.5-4.1,7-8.2,10.6-8.2c3.6,0,7.4,4.1,11.1,8.2c2.4,2.7,4.8,5.4,7.2,6.8c0.5-0.5,1.2-0.9,2.3-1.1c0.2,0,0.3-0.2,0.3-0.3h0
				c0-0.2-0.2-0.4-0.4-0.3c-0.1,0-0.2,0-0.3,0c-0.4,0.1-0.6-0.5-0.2-0.6c0.2-0.1,0.4-0.2,0.6-0.2c0.2,0,0.3-0.2,0.3-0.3V14
				c0-0.2-0.2-0.4-0.4-0.3c-0.3,0-0.6,0.1-1,0.2c-0.4,0.1-0.6-0.3-0.3-0.6c0.3-0.2,0.7-0.5,1.4-0.6c0.2,0,0.3-0.2,0.3-0.3v-0.2
				c0-0.2-0.2-0.3-0.4-0.3c-0.5,0.1-1,0.2-1.5,0.3c-0.3,0.1-0.6-0.3-0.4-0.5c0.3-0.4,0.9-0.8,2-1c0.2,0,0.3-0.2,0.3-0.3v-0.2
				c0-0.2-0.2-0.3-0.4-0.3c-0.7,0.1-1.3,0.2-2,0.4c-0.3,0.1-0.6-0.2-0.4-0.5c0.3-0.5,1-1,2.4-1.3c0.2,0,0.3-0.2,0.3-0.3V7.9
				c0-0.2-0.2-0.4-0.4-0.3c-0.7,0.1-1.4,0.4-2.3,1c-0.2,0.1-0.5,0-0.5-0.2c-0.3-2,0.9-6.2,3.6-6.1V0H-0.1v2.2c0.1,0,0.3,0,0.4,0
				C3.6,2.9,4.6,5.7,4.7,8L4.7,8z"/>
			<path class="st0" d="M0.4,46.7c0.9,6.2,4.6,11.8,4.6,11.8s-0.8-9.3-4.5-13.3c0-0.1,0-0.2,0-0.2c0,0,0,0-0.1,0.1
				c0-1.5,0.1-3,0.1-4.5c2.2,7.2,8.1,13.2,8.1,13.2s-3-10.2-8.1-13.7c0-0.7,0-1.4,0-2.1v-1.7c3.8,6.4,11.2,10.4,11.2,10.4
				s-5.2-9.1-11.2-11l0-3.9c5.1,5.6,13.5,7.8,13.5,7.8s-6.9-7.5-13.2-8.2c1.4-0.2,2.8-0.8,4.2-1.7c4.7,2.3,9.4,2.9,9.4,2.9
				s-3.2-2.7-7.2-4.6c1.6-1.4,3.2-3,4.8-4.7c2.7-2.8,5.4-5.5,8-6.8c0.3,0.2,0.7,0.3,1.1,0.4c0.2,0,0.3,0.2,0.3,0.3v0.1
				c0,0.2-0.2,0.3-0.4,0.3c-0.2,0-0.5-0.1-0.6-0.1c-0.4-0.1-0.6,0.4-0.2,0.6c0.2,0.1,0.5,0.2,0.9,0.3c0.2,0,0.3,0.2,0.3,0.4l0,0.2
				c0,0.2-0.2,0.3-0.4,0.3c-0.5,0-1-0.1-1.3-0.2c-0.3-0.1-0.6,0.3-0.4,0.5c0.3,0.3,0.8,0.5,1.6,0.7c0.2,0,0.3,0.2,0.3,0.4v0.1
				c0,0.2-0.2,0.3-0.4,0.3c-0.8-0.1-1.4-0.2-1.7-0.3c-0.3-0.1-0.6,0.2-0.4,0.5c0.3,0.4,0.9,0.8,2.1,1c0.2,0,0.3,0.2,0.3,0.4v0.1
				c0,0.2-0.2,0.3-0.4,0.3c-1-0.1-1.7-0.3-2.1-0.4c-0.3-0.1-0.6,0.2-0.4,0.5c0.2,0.5,1,1.1,2.5,1.3c0.2,0,0.3,0.2,0.3,0.4v0.2
				c0,0.2-0.2,0.3-0.4,0.3c-1-0.1-1.8-0.5-2.2-0.7c-0.2-0.1-0.5,0-0.5,0.3c0.1,2.3,1.1,5.1,4.4,5.7c2.9,0.5,4.3-4,4-6.1
				c0-0.2-0.3-0.4-0.5-0.2c-0.9,0.5-1.6,0.8-2.3,1c-0.2,0-0.4-0.1-0.4-0.3v-0.2c0-0.2,0.1-0.3,0.3-0.3c1.5-0.2,2.1-0.8,2.4-1.3
				c0.2-0.3-0.1-0.6-0.4-0.5c-0.7,0.2-1.3,0.4-2,0.4c-0.2,0-0.4-0.1-0.4-0.3v-0.2c0-0.2,0.1-0.3,0.3-0.3c1.1-0.2,1.6-0.6,1.9-1
				c0.2-0.3-0.1-0.6-0.4-0.5c-0.5,0.2-1,0.3-1.5,0.3c-0.2,0-0.4-0.1-0.4-0.3v-0.2c0-0.2,0.1-0.3,0.3-0.3c0.7-0.1,1.1-0.4,1.4-0.6
				c0.3-0.2,0-0.7-0.3-0.6c-0.3,0.1-0.6,0.2-1,0.2c-0.2,0-0.4-0.1-0.4-0.3v-0.3c0-0.2,0.1-0.3,0.3-0.3c0.2-0.1,0.4-0.1,0.6-0.2
				c0.4-0.2,0.1-0.7-0.2-0.6c-0.1,0-0.2,0-0.3,0c-0.2,0-0.4-0.1-0.4-0.3l0,0c0-0.2,0.1-0.3,0.3-0.4c0.8-0.1,1.4-0.4,1.8-0.7
				c2.3,1.1,4.7,4.1,7.1,7.1c1.6,2,3.3,4,4.9,5.6c-4.3,3.2-7.6,8-7.6,8s5.1-2.4,9.4-6.6c0.9,0.6,1.9,1,2.9,1.1
				c-6,2.5-11.1,12.1-11.1,12.1s7.6-4.8,11.3-11.7c0,1.4,0,2.7,0.1,4.1c-5.7,3.4-9.3,13.8-9.3,13.8s6.8-5.9,9.3-13.3
				c0,0.6,0.1,1.1,0.1,1.7c0,0.9,0.1,1.7,0.2,2.6c-4,4-5.8,13-5.8,13s4.4-5.7,5.9-12c0.1,1.3,0.2,2.6,0.4,3.9
				c-3,5-3.6,11.6-3.6,11.6s3.4-5.6,3.8-10.2c0.9,6.2,4.6,11.8,4.6,11.8s-0.8-9.3-4.5-13.3c0-0.1,0-0.2,0-0.2c0,0,0,0-0.1,0.1
				c0-1.5,0.1-3,0.1-4.5c2.2,7.2,8.1,13.2,8.1,13.2s-3-10.2-8.1-13.7c0-0.7,0-1.4,0-2.1v-1.7c3.8,6.4,11.2,10.4,11.2,10.4
				s-5.2-9.1-11.2-11l0-3.9c5.1,5.6,13.5,7.8,13.5,7.8s-7-7.6-13.4-8.2c1.3-0.2,2.6-0.9,3.9-1.9c4.9,2.5,9.9,3.2,9.9,3.2
				s-3.6-3-7.9-4.9c1.3-1.3,2.6-2.9,3.9-4.4c3.2-3.7,6.3-7.4,9.3-7.6c0,0.5,0,1-0.1,1.2c-0.1,0.6-0.1,0.9-0.1,1.6
				c0,0.4-0.1,2.7-0.2,4.2c-0.2,0-0.6,0-0.8,0c-0.2,0-0.7-0.1-1.3,0c-0.7,0.1-0.8,0-0.9,0s-1,0-1.4,0.1s-1.5,0.5-1.8,0.5
				c-0.3,0-0.9,0.1-1.1,0.1c-0.2,0-0.4,0-0.7,0.1c-0.2,0.1,1.1,1.3,1.1,1.3s2.1,1.8,2,1.9C56.7,26.7,57,27,57,27
				c0.8,0.9,4,3.1,4,3.1c0.4,0.4,1.1,0.4,1.1,0.4l0,0c0,0,0.7,0,1.1-0.3c0,0,3.3-2.1,4.1-3c0,0,0.3-0.2,0.2-0.4s2.1-1.8,2.1-1.8
				s1.4-1.2,1.2-1.3c-0.2-0.1-0.5-0.1-0.7-0.2c-0.2,0-0.7-0.2-1.1-0.2s-1.3-0.4-1.8-0.5s-1.2-0.2-1.4-0.2s-0.3,0.1-0.9,0
				c-0.6-0.1-1.1-0.1-1.3-0.1c-0.2,0-0.6,0-0.8,0c0-0.2,0.1-0.4,0.1-0.5c0-0.2,0.1-3.6,0.1-3.6s0-1.7,0-2.9c3,0.5,6.2,4,9.4,7.6
				c1.8,2.1,3.7,4.1,5.6,5.7c-4.2,3.2-7.5,7.9-7.5,7.9s5-2.4,9.4-6.6c1,0.6,2,1,3,1.1c-6,2.5-11.2,12.1-11.2,12.1s7.6-4.8,11.3-11.7
				c0,1.4,0,2.7,0.1,4.1c-5.7,3.4-9.3,13.8-9.3,13.8s6.8-5.9,9.3-13.3c0,0.6,0.1,1.1,0.1,1.7c0,0.9,0.1,1.7,0.2,2.6
				c-4,4-5.8,13-5.8,13s4.4-5.7,5.9-12c0.1,1.2,0.2,2.4,0.3,3.6v0.3c-3,5-3.5,11.6-3.5,11.6s2.7-4.4,3.5-8.6v1
				c0.2-0.9,0.4-1.7,0.5-2.6c0.9,6.2,4.6,11.8,4.6,11.8s-0.8-9.3-4.5-13.3c0-0.1,0-0.2,0-0.2c0,0,0,0-0.1,0.1c0-1.5,0.1-3,0.1-4.5
				c2.2,7.2,8.1,13.2,8.1,13.2s-3-10.2-8.1-13.7c0-0.7,0-1.4,0-2.1v-1.7c3.8,6.4,11.2,10.4,11.2,10.4s-5.2-9.1-11.2-11l0-3.9
				c5.1,5.6,13.5,7.8,13.5,7.8s-6.9-7.5-13.2-8.2c1.4-0.2,2.8-0.8,4.2-1.7c4.7,2.3,9.4,2.9,9.4,2.9s-3.2-2.7-7.2-4.6
				c1.6-1.4,3.2-3,4.8-4.7c2.7-2.8,5.3-5.5,8-6.8c0.3,0.2,0.7,0.3,1.1,0.4c0.2,0,0.3,0.2,0.3,0.3v0.1c0,0.2-0.2,0.3-0.4,0.3
				c-0.2,0-0.5-0.1-0.7-0.1c-0.4-0.1-0.6,0.4-0.2,0.6c0.2,0.1,0.5,0.2,0.9,0.3c0.2,0,0.3,0.2,0.3,0.4l0,0.2c0,0.2-0.2,0.3-0.4,0.3
				c-0.5,0-1-0.1-1.3-0.2c-0.3-0.1-0.6,0.3-0.3,0.5c0.3,0.3,0.8,0.5,1.6,0.7c0.2,0,0.3,0.2,0.3,0.4v0.1c0,0.2-0.2,0.3-0.4,0.3
				c-0.8-0.1-1.4-0.2-1.7-0.3c-0.3-0.1-0.6,0.2-0.4,0.5c0.3,0.4,0.9,0.8,2.1,1c0.2,0,0.3,0.2,0.3,0.4v0.1c0,0.2-0.2,0.3-0.4,0.3
				c-1-0.1-1.7-0.3-2.1-0.4c-0.3-0.1-0.6,0.2-0.4,0.5c0.2,0.5,1,1.1,2.5,1.3c0.2,0,0.3,0.2,0.3,0.4v0.2c0,0.2-0.2,0.3-0.4,0.3
				c-1-0.1-1.8-0.5-2.2-0.7c-0.2-0.1-0.5,0-0.5,0.3c0.1,2.3,1.1,5.1,4.4,5.7c2.9,0.5,4.3-4,4-6.1c0-0.2-0.3-0.4-0.5-0.2
				c-0.9,0.5-1.6,0.8-2.3,1c-0.2,0-0.4-0.1-0.4-0.3v-0.2c0-0.2,0.1-0.3,0.3-0.3c1.5-0.2,2.1-0.8,2.4-1.3c0.2-0.3-0.1-0.6-0.4-0.5
				c-0.7,0.2-1.3,0.4-2,0.4c-0.2,0-0.4-0.1-0.4-0.3v-0.2c0-0.2,0.1-0.3,0.3-0.3c1.1-0.2,1.7-0.6,2-1c0.2-0.3-0.1-0.6-0.4-0.5
				c-0.5,0.2-1,0.3-1.5,0.3c-0.2,0-0.4-0.1-0.4-0.3v-0.2c0-0.2,0.1-0.3,0.3-0.3c0.7-0.1,1.1-0.4,1.4-0.6c0.3-0.2,0-0.7-0.3-0.6
				c-0.3,0.1-0.6,0.2-1,0.2c-0.2,0-0.4-0.1-0.4-0.3v-0.3c0-0.2,0.1-0.3,0.3-0.3c0.2-0.1,0.4-0.1,0.6-0.2c0.4-0.2,0.2-0.7-0.2-0.6
				c-0.1,0-0.2,0-0.3,0c-0.2,0-0.4-0.1-0.4-0.3l0,0c0-0.2,0.1-0.3,0.3-0.4c0.8-0.1,1.4-0.4,1.8-0.7c2.3,1.1,4.7,4.1,7.2,7.1
				c1.6,2,3.2,4,4.9,5.6c-4.3,3.2-7.6,8-7.6,8s5.1-2.4,9.4-6.6c0.9,0.6,1.9,1,2.9,1.1c-6,2.5-11.1,12.1-11.1,12.1s7.6-4.8,11.3-11.7
				c0,1.4,0,2.7,0.1,4.1c-5.7,3.4-9.3,13.8-9.3,13.8s6.8-5.9,9.3-13.3c0,0.6,0.1,1.1,0.1,1.7c0,0.9,0.1,1.7,0.2,2.6
				c-4,4-5.8,13-5.8,13s4.4-5.7,5.9-12c0.1,1.3,0.2,2.6,0.4,3.9c-3,5-3.6,11.6-3.6,11.6s3.4-5.6,3.8-10.2c0.9,6.2,4.5,11.8,4.5,11.8
				s-0.8-9.3-4.5-13.3c0-0.1,0-0.2,0-0.2c0,0,0,0-0.1,0.1c0-1.5,0.1-3,0.1-4.5c2.2,7.2,8.1,13.2,8.1,13.2s-3-10.2-8.1-13.7
				c0-0.7,0-1.4,0-2.1v-1.7c3.8,6.4,11.2,10.4,11.2,10.4s-5.2-9.1-11.2-11l0-3.9c5.1,5.6,13.5,7.8,13.5,7.8s-7-7.6-13.4-8.2
				c1.3-0.2,2.6-0.9,3.9-1.9c4.9,2.5,9.9,3.2,9.9,3.2s-3.6-3-7.9-4.9c1.3-1.3,2.6-2.9,3.9-4.4c3.2-3.7,6.3-7.4,9.3-7.6
				c0,0.5,0,1-0.1,1.2c-0.1,0.6-0.1,0.9,0,1.6c0,0.4-0.1,2.7-0.2,4.2c-0.2,0-0.6,0-0.8,0c-0.2,0-0.7-0.1-1.3,0c-0.7,0.1-0.8,0-0.9,0
				s-1,0-1.4,0.1c-0.4,0.1-1.5,0.5-1.8,0.5c-0.3,0-0.9,0.1-1.1,0.1c-0.1,0-0.4,0-0.7,0.1c-0.2,0.1,1.1,1.3,1.1,1.3s2.1,1.8,2,1.9
				c-0.1,0.1,0.1,0.4,0.1,0.4c0.8,0.9,4,3.1,4,3.1c0.4,0.4,1.1,0.4,1.1,0.4l0,0c0,0,0.7,0,1.1-0.3c0,0,3.3-2.1,4.1-3
				c0,0,0.3-0.2,0.2-0.4c-0.1-0.1,2.1-1.8,2.1-1.8s1.4-1.2,1.2-1.3c-0.2-0.1-0.5-0.1-0.7-0.2c-0.2,0-0.7-0.2-1.1-0.2
				s-1.3-0.4-1.8-0.5c-0.4-0.1-1.2-0.2-1.4-0.2c-0.2,0-0.3,0.1-1,0c-0.6-0.1-1.1-0.1-1.3-0.1c-0.2,0-0.6,0-0.8,0
				c0-0.2,0.1-0.4,0.1-0.5c0-0.2,0.1-3.6,0.1-3.6s0-1.7,0-2.9c3,0.5,6.2,4,9.4,7.6c1.8,2.1,3.7,4.1,5.6,5.7
				c-4.2,3.2-7.5,7.9-7.5,7.9s5-2.4,9.4-6.6c1,0.6,2,1,3,1.1c-6,2.5-11.2,12.1-11.2,12.1s7.6-4.8,11.3-11.7c0,1.4,0,2.7,0.1,4.1
				c-5.7,3.4-9.3,13.8-9.3,13.8s6.8-5.9,9.3-13.3c0,0.6,0.1,1.1,0.1,1.7c0,0.9,0.1,1.7,0.1,2.6c-4,4-5.8,13-5.8,13s4.4-5.7,5.9-12
				c0.1,1.2,0.2,2.4,0.4,3.6V25.1c-0.1,0-0.1,0-0.2,0h-0.1c-3.2,0-6.7-3.8-10.1-7.6c-3.6-4.1-7.3-8.1-11.1-8.1
				c-3.8,0-7.1,4.1-10.6,8.2c-3.2,3.8-6.5,7.6-9.6,7.6c-2.9,0-5.9-3.8-9-7.6c-3.3-4.1-6.6-8.2-10.1-8.2c-4.1,0-8,4.1-11.9,8.1
				c-3.7,3.8-7.4,7.7-11,7.7l0,0c0,0-0.1,0-0.1,0l0,0c-0.1,0-0.1,0-0.2,0h-0.1c-3.2,0-6.7-3.8-10.1-7.6c-3.7-4.1-7.3-8.1-11.1-8.1
				c-3.8,0-7.1,4.1-10.6,8.2c-3.2,3.8-6.5,7.6-9.6,7.6c-2.9,0-5.9-3.8-9-7.6c-3.3-4.1-6.6-8.2-10.1-8.2c-4.1,0-8,4.1-11.9,8.1
				c-3.7,3.8-7.4,7.7-11,7.7l0,0c0,0-0.1,0-0.1,0v24.1c0.2-0.9,0.4-1.7,0.5-2.6H0.4z M105.4,28.4c0,0.4-0.3,0.7-0.7,0.7
				c-0.4,0-0.7-0.3-0.7-0.7s0.3-0.7,0.7-0.7C105.1,27.7,105.4,28,105.4,28.4z M21.7,28.4c0,0.4-0.3,0.7-0.7,0.7s-0.7-0.3-0.7-0.7
				s0.3-0.7,0.7-0.7S21.7,28,21.7,28.4z"/>
		</g>
	</g>
</g>
</svg>
