<?xml version="1.0" encoding="utf-8"?>
<!-- Generator: Adobe Illustrator 24.1.3, SVG Export Plug-In . SVG Version: 6.00 Build 0)  -->
<svg version="1.1" id="Calque_1" xmlns="http://www.w3.org/2000/svg" xmlns:xlink="http://www.w3.org/1999/xlink" x="0px" y="0px"
	 viewBox="0 0 41.4 41.4" style="enable-background:new 0 0 41.4 41.4;" xml:space="preserve">
<style type="text/css">
	.st0{fill:#FFFFFF;}
</style>
<g id="Calque_2_1_">
	<g id="Calque_1-2">
		<g id="Layer_1">
			<path class="st0" d="M30,0H11.4C5.1,0,0,5.1,0,11.4l0,0V30c0,6.3,5.1,11.4,11.4,11.4c0,0,0,0,0,0H30c6.3,0,11.4-5.1,11.4-11.4
				c0,0,0,0,0,0V11.4C41.4,5.1,36.3,0,30,0C30,0,30,0,30,0z M38,29.9c-0.1,4.5-3.6,8-8.1,8.1H11.4c-4.5,0-8.1-3.6-8.1-8.1l0,0V11.4
				c0.1-4.5,3.6-8,8.1-8.1h18.5c4.5,0,8.1,3.6,8.1,8.1V29.9z"/>
			<path class="st0" d="M20.7,9.8c-6,0-10.9,4.9-10.9,10.9s4.9,10.9,10.9,10.9s10.9-4.9,10.9-10.9l0,0C31.6,14.7,26.7,9.8,20.7,9.8
				C20.7,9.8,20.7,9.8,20.7,9.8z M20.7,27.8c-3.9,0-7.1-3.2-7.1-7.1s3.2-7.1,7.1-7.1s7.1,3.2,7.1,7.1S24.6,27.8,20.7,27.8L20.7,27.8
				z"/>
			<path class="st0" d="M34.4,9.4c0.3,1.3-0.5,2.7-1.9,3c-1.3,0.3-2.7-0.5-3-1.9c-0.1-0.3-0.1-0.7,0-1c0-1.3,1.1-2.4,2.4-2.5H32
				C33.3,7,34.4,8.1,34.4,9.4L34.4,9.4z"/>
		</g>
	</g>
</g>
</svg>
