<svg xmlns="http://www.w3.org/2000/svg" id="Calque_2" viewBox="0 0 257.3 145"><defs><style>.st0{fill:#fff}</style></defs><g id="Calque_1-2"><path d="M128.7 127.2c.6-.5.9-1 .9-1.7 0-.8-.1-1.6-.1-2.3V121q0-3.3.3-7.5c.2-2.7.5-5.8.9-9.2l1.8-16.8q-.15-.6-.9-.9l-1.3-.3c-.5-.1-1-.2-1.4-.2-1.2 0-1.9.4-2 1.2l-2.7 27c-.9-1.9-1.8-4.1-2.8-6.5q-1.5-3.75-3-7.8c-1-2.9-2-5.3-2.9-7.3s-1.7-3.7-2.4-5c-.7-.5-1.4-.9-2-1.2s-1.1-.4-1.5-.4c-1.7 0-2.6.5-2.7 1.4l-1.4 16.7c-.6 6.6-.8 12.1-.8 16.5s0 5 .2 7.3v2.1c.3.8.6 1.3 1.2 1.5l1.3.6c.4.2.9.4 1.2.4s.7-.1 1-.4c.8-.4 1.2-1.1 1.2-2.2v-.2c0-1.7-.2-3.3-.2-4.9v-15.5c0-1.8 0-3.6.2-5.3 0-1.7.2-3.3.4-4.8 0-.6.3-.9.6-.9s.2.1.3.4c1.1 2.8 2.2 5.5 3.2 8.1s2.1 5.1 3 7.3c1 2.3 1.9 4.4 2.8 6.3s1.7 3.5 2.4 4.8c.9 1.7 2.1 2.6 3.5 2.6s1.3-.2 1.9-.7ZM98.7 90.4c0-.5 0-1 .2-1.5-.3-1.1-1-1.6-2.2-1.7-1.7 0-2.7.6-3 1.9-.1.7-.2 1.3-.3 2 0 .7-.2 1.4-.2 2.2 0 1.3-.1 2.9 0 4.9 0 1.9 0 4.2.2 6.9q.15 4.05.3 6.9v4.8c0 .5 0 1-.1 1.5 0 .5-.1 1-.2 1.5.3.8 1 1.2 2 1.2.5 0 1.1 0 1.6-.2.6-.3.6-.6 1.1-1.4.4-.6.6-2.2.7-2.9v-.8c0-1.3.1-2.9.1-4.9s0-4.3-.1-7-.1-5-.1-7 0-3.7.1-5v-1.5ZM189.6 101.8c.1-.7.4-1.7.6-2.8.3-1.7.8-7.6 1.1-8.8.3-1.6.2-2.8-.3-3.7-.5-.7-1.2-1.2-2.3-1.3-.4 0-.9 0-1.5.2-.5.2-1 .3-1.5.5h-.2c-.3 0-.9.5-1.1 2.2-.3 1.3-.8 8.4-1.3 11.6-.3 2-.6 3.8-.8 5v.7c-.5 2-.8 3.7-1 5.2-.3 1.6-.5 2.9-.7 3.9-.4 2.2-.9 4.1-1.4 5.7 0 .3-.3.8-.5 1.4-.3.7-.9.8-1.3.8s-1-.3-1.2-1c-.4-1.4-.8-3-.9-4.8 0-.6 0-1.6-.1-3.2v-6.1c0-2 0-1.8-.2-3.3v-1.6c0-.5.1-.9 0-1.6-.1-.4-.2-.9 0-2.9.2-1.8.2-3 0-3.7-.2-.9-.8-2-2.5-2.2-1.6-.2-2.9.1-3.9 1.1-.6.7-.5 2.1-.4 3.8v1.8c0 .8-.1 1.2-.2 1.9-.1 1.1-.3 2.3-.2 3.9.3 3.5.4 4.3.5 6.4s.2 3.5.2 4.2c0 4.8.7 7.6 2.6 11.4 1 2.2 3.1 3.6 6 4h1.5c1.8-.2 3.7-1.1 4.9-3 2.5-4 3.3-7.2 4.4-12.5.3-1.6.6-3.4.7-5.5.1-2 .4-4.2.9-6.5v-.3c0-.2.1-.5.2-.9ZM31.5 139.4c-.5-.1-1.2-.2-2.1-.4-.8-.2-1.5-.3-2-.5q-2.25-.75-3.3-1.5c-.7-.5-1.5-1-2.3-1.6-.8-.5-1.7-1.2-2.7-2l-.3-.2c-3-2.4-5.4-5.1-7.2-8.3-1.5-2.7-2.4-5.4-2.8-8-.3-2.5-.3-4.8-.1-6.9s.7-4 1.3-5.7 1.3-3.1 2.2-4.4 1.8-2.3 2.7-3.2c1.8-1.7 3.4-2.8 4.7-3.2.6-.2 1.3-.5 1.9-.8.9-.4 1.9-.9 2.7-1.1 1.2-.3 2-.9 2.5-1.7.4-.8.6-1.6.5-2.4s-.3-1.8-1.2-2.3c-1.6-1-3.2-.9-5.1-.7-2.1.2-4.9 1.8-7.2 3.3-2.5 1.6-5.1 4.1-7.8 7.3q-2.7 3.15-4.5 8.4c-1.2 3.5-1.5 7.6-1 12.2q.3 2.7 1.2 6.6c.6 2.6 1.8 5 3.1 7.5.7 1.5 1.9 3 3.7 4.8l.4.4c1.6 1.6 3.2 3.1 5.4 4.6 2.4 1.6 4.9 2.9 7.7 4.1 2.7 1.1 4.5 1.8 7.3 2.1h1.3c1.5 0 1.9-.3 2.6-1.2s.9-1.8.8-2.7c-.2-1.2-.9-2-2.4-2.3Z" class="st0"/><path d="M47 136.9c.2-.4.3-.8.2-1.2-.1-.6-.2-1.3-.4-1.9 0-.2-.1-.6-.2-1.1-.2-1.1-.5-2.6-.5-3-.2-1.2-.6-4.4-.7-6.6-.1-2.1-.2-4.3-.3-6.8 0-2.4-.1-4.9-.2-7.5 0-2.6-.1-5.1-.2-7.4V91.2c0-1.4-.1-2.1-.2-2.7v-.8c-.2-1.9-1.1-2.1-1.7-2.3-.7-.2-1.1-.2-2.1 0h-.6c-1 .3-1.4 1.3-1.5 3.1 0 3.7 0 10.8-.1 14v7.2c0 .3-.3.6-.6.7l-2.3.4h-.8c-1.2.3-2.1.3-2.7.2-.3 0-.7-.2-.8-1 0-.6-.1-1.3-.1-2.1v-6.2c0-.5-.2-1-.3-1.5-.1-.6-.3-1.1-.5-1.5-.2-.5-.5-.9-.8-1.2-.4-.4-.8-.6-1.4-.7h-1.3c-.7-.2-1.4-.1-2.1 0s-1 .8-.9 1.5v.8c.3 1.1.4 2.5.5 4.2v1.4c0 1.2.1 2.3.2 3.7 0 1.9.1 3.8.1 5.8 0 2.1 0 3.8.1 5.4v6.9c0 .6.1 1.9.2 2.2.1.9.4 1.6.7 2.1.4.5.8.9 1.2 1.1.5.3 1 .4 1.5.4h1.4c.3 0 1.2-.2 1.7-.8.3-.4.3-.8.3-1.3-.5-2.9-.5-4.5-.5-6.6v-1.1c0-2.1 0-4 .2-5.6 0-.5.4-.9.9-1 .3 0 .5-.1.8-.2h3.7c.3 0 .7 0 .9.3s.4.6.4.9v4.8c0 .8 0 1.3.1 1.7 0 .2 0 .6.1 1 0 .4 0 .9.1 1.4 0 .3.1.9.2 1.5 0 .6.2 1.2.2 1.4 0 .4 0 .8.1 1.1.2 1.7 1.2 5.5 2.2 6.6.7.7 1.6 1.1 2.8 1.1h1.6c.5 0 .8-.3 1-.8ZM69.2 133.4h.3c.5 0 .9-.1 1.4-.4.6-.3 1-.9 1.2-1.6.5-2.3.2-3 .4-6.5l.2-5.7v-1.3c0-.3.2-.5.4-.6.2 0 .5 0 .7.2.7.7 1.5 1.5 2.3 2.4 1.5 1.6 3.5 3.7 5.7 6.2l.9 1.1c2.6 2.9 4 4.5 5.7 6.1 1 .8 2.3 1.1 3.4.6 1.4-.6 2.1-1.5 2.1-2.5s0-.6-.3-.9c-.7-1.3-1.7-2.7-2.9-4.1-.5-.6-.7-.9-.9-1.2-.3-.5-.6-.8-1.6-1.8l-8.2-8-2.4-2.1c-.5-.4-.9-.8-1.1-1-.1-.2-.2-.3-.2-.6s0-.3.2-.5.5-.4 1-.7c2.1-1.3 4-3.2 5.6-5.3q2.7-3.75 2.7-7.5c0-3.1-.9-5.8-2.8-8.3-2.1-2.8-4.5-4.2-7.3-4.4h-1.1c-4.8 0-7.5 1.6-8 4.8-.4 2.5-.7 5.2-.7 8.1s-.1 6.2-.1 9.6v8.4q0 3-.3 5.7c-.2 1.8 0 2.2-.1 3.7v3.1q0 4.2 3.6 5.1Zm4.1-39.1c0-.4 0-.7.2-1.1v-.3c.1-.3.2-.6.4-.8.3-.3.7-.7 1.5-.7 1.4 0 2.5.4 3.1 1.2q1.05 1.2 1.2 2.7v1.4c0 .3 0 .6-.1 1-.5 2.5-1.6 4.2-4.4 6.6-.4.3-.8.6-1.2.4-.3-.2-.4-.4-.4-.8v-2.1c-.1-2.8-.2-4.5-.2-5.1s0-1.4.1-2.2ZM226.1 96h.1l2.6.2c1.7 0 3.8 0 5.7-1.7 0 0 1.3-1.4.9-3-.2-1-1.1-1.8-2.5-2.3-.8-.3-6.2-.9-6.3-.9-1.5-.2-6.2-.5-7.2-.5s-7.3-.5-7.4-.5h-.9c-1.5 0-3.3 0-4.6-.6-.1 0-.4-.1-1-.4-.5-.2-1-.4-1.6-.7-1-.5-2-.7-3-.8h-.8c-.2 0-1.6 0-2.4.8q-.6.6-.6 1.5c0 2.8 1.1 3.8 1.9 4.1.7.3 1.6.4 2.6.6.9.2 1.9.3 2.8.6 1 .3 2.2.6 3.5.8.7.2 1.5.3 2.3.5s1.4 1 1.3 1.9c-.6 6.6-1.2 12.3-1.8 17-.4 3.4-.8 5.3-1.1 7.3-.2 1.3-.5 2.7-.8 4.5-.1.9-.2 1.3-.3 1.6 0 .4-.2.7-.3 1.6s-.4 2.1-.6 3.2-.4 2.1-.6 2.9v.8c-.2.4-.2.7-.2.9v.8c.2 1.7 1.2 1.9 1.6 1.9h.2c1.3 0 2.5-.8 3.5-2.1s1.7-2.8 2-4.5c.2-.8.4-1.5.6-2.2.3-1 .6-2 .8-3.4.1-1 .3-1.8.5-2.8.4-2.4.9-5.2 1.5-10.9.3-3.2.7-6.2 1-8.8.3-2.7.6-4.9.9-6.8.1-.8.7-1.4 1.5-1.3h1.1c.2 0 .8.1 1.4.2 1.2 0 3.3.3 3.7.4Z" class="st0"/><path d="M256.7 116.8c-.5-3.4-1.3-6.7-2.4-9.8s-2.4-5.8-4-8c-1.7-2.3-3.6-3.5-5.6-3.6h-.8c-.8.3-2.7 1.3-3.2 3.2-.1.5-1.4.6-2.8.8-1.4.1-3 .3-4.7.9-.5.2-1.1.5-1.6.8 0 0-.1 0-.2.1-.1 0-.3.2-.5.3-.9.6-1.7 1.3-2.4 2.2-1.5 1.7-2.7 3.5-3.7 5.5s-1.7 3.9-2.2 5.8-.8 3.5-.9 4.7c-.2 2.3 0 4.3.5 5.9.7 2.8 1.7 5.4 2.9 7.7s2.5 4.5 4 6.2c1.5 1.8 3.2 3.2 5 4.2 1.8 1.1 3.8 1.6 5.8 1.7h.7c1.3 0 2.7-.4 4.3-1.1 1.9-.8 3.7-2.1 5.4-3.7 1.7-1.7 3.2-3.7 4.6-6.2 1.3-2.4 2.1-5.4 2.4-8.7.2-2.6 0-5.6-.4-9.1Zm-7.2 7.6q-.3 3.45-1.5 6.3c-.8 1.9-1.7 3.5-2.6 4.8-1 1.3-1.9 2.3-2.8 2.9-1.2.9-1.7.9-1.8.9-1.4 0-2.8-.7-4.2-1.9-1.5-1.2-2.8-2.9-3.9-4.8s-2.1-4.1-2.7-6.3c-.7-2.2-.9-4.4-.7-6.4v-1.3c.9-3.6 1.8-6.5 2.9-8.6.5-1.1 1.1-1.8 1.8-2.3.6-.5 4.9-3.2 10.1.9 0 0 2 1.6 3.8 4.3 0 .2.1.3.1.3v.2s0 .2.1.2v.6c.3.8.5 1.6.7 2.3.3 1.3.4 2.7.5 4.2s0 2.8 0 3.9ZM52.7 125.9c0 .8.2 1.7.3 2.5.3 1.9 1.5 2.9 3.5 2.9.7 0 1.7-.1 2.3-.8.4-.4.5-1 .5-1.7v-3.6c-.1-1.6-.1-3.7 0-6.1 0-2.4.2-5.2.3-8.5V96c0-1.6-.9-2.9-2.4-3.5-.6-.2-1.1-.3-1.6-.3-.8 0-1.4.3-1.9.8-.4.4-.6 1.1-.5 1.7v10.8c0 .7 0 1.4-.1 3.3-.2 3.2-.4 6-.5 8.4v5.9c0 .9 0 1.9.2 2.7ZM196 108.7c-.1.8-.2 1.2-.3 1.6 0 .6-.2 1.1-.5 2.6-.6 2.5-1 4.7-1.4 6.5s-.6 3.4-.7 4.7c0 .8-.1 1.5-.2 2.2s0 1.4 0 2.1c0 1.2.5 2.8 3 3.3.4 0 .8.1 1.2 0 .5 0 .9-.1 1.3-.5.3-.2.6-.7.7-1.5v-2.8c.3-1.3.5-2.9.8-4.7.3-1.9.8-4.1 1.3-6.5.3-1.5.4-2.1.5-2.7 0-.4 0-.8.2-1.6 0-.3.1-.7.2-1s.9-6.3.9-6.3c.2-1.4-.6-2.9-1.9-3.7-.5-.3-1-.5-1.4-.5-.8-.1-1.4 0-2 .3-.5.3-.9 1-.9 1.7v.9c0 .5 0 .9-.1 1.4-.1 1.2-.4 2.7-.7 4.5M135.7 116.6c-.1 2.3 0 4.2.4 5.6.5 1.8 1.5 3.2 2.9 4.1 2.4 1.7 4.7 2.2 6.9 1.7.7-.2 1.3-.4 1.6-.7 2.8-1.8 5.3-4.1 7.4-6.7.2-.2.4-.2.5-.2 0 0 .3 0 .4.4 0 .3.1.7.2 1 .1.9.2 1.6.3 2.2l.9 4.2c.6 2.1 2.1 3.3 4.4 3.5h1.3c2.2-.6 2.2-1.8 2.1-2.5l-2.4-9.2c-.5-1.9-.7-3.7-.8-5.4 0-1.7 0-3.3.2-4.7v-1.6c-.3-.8-.7-2.4-2.5-2.5-2.4-.1-3.7 1.2-3.7 1.3-.5.4-.7 1.1-.8 1.8-.2 2.1-.5 2.7-.6 2.8l-1.8 2.4c-3.5 4.5-6.2 8.1-8.7 8.9-.4.1-.9-.6-1.1-1l-.2-.8c-.8-2.8-.8-6.2 0-10.1.7-3.3 1.5-6.3 2.5-9.1.6-1.6.3-1.4 1-2.8.7-1.5 1.1-2.2 2.3-3.4 0 0 2.2-2.7 5.1 2.9.7 1.4 2.4 2 3.9 1.4s2.2-2.2 1.6-3.7c-.4-.8-3.6-7.4-9.2-7.3 0 0-5.5-.1-9.3 7.8-3.5 7.3-4.3 12.8-4.8 19.8Z" class="st0"/></g></svg>