<svg xmlns="http://www.w3.org/2000/svg" id="Calque_2" data-name="Calque 2" viewBox="0 0 257.26 97.31"><defs><style>.cls-1{fill:#fff}</style></defs><g id="Calque_1-2" data-name="Calque 1"><path d="M128.73 42.86c.57-.48.85-1.03.85-1.65-.09-.79-.14-1.55-.14-2.27v-2.15c0-2.24.1-4.74.3-7.48.21-2.74.49-5.79.85-9.16l1.84-16.76c-.14-.42-.43-.71-.89-.87l-1.29-.31c-.54-.12-1.02-.18-1.43-.18-1.22 0-1.88.41-1.97 1.25l-2.72 27.04c-.86-1.87-1.78-4.05-2.75-6.54-.98-2.49-1.98-5.11-3.02-7.85-1.04-2.87-2.02-5.32-2.92-7.35-.91-2.03-1.72-3.69-2.45-4.98-.72-.54-1.41-.93-2.04-1.18s-1.13-.37-1.49-.37c-1.72 0-2.61.46-2.65 1.37l-1.43 16.7c-.55 6.6-.82 12.11-.82 16.51 0 2.58.07 5.01.2 7.29l.14 2.06c.14.83.5 1.33 1.09 1.49l1.29.56c.45.25.86.37 1.22.37s.7-.14 1.02-.43c.77-.37 1.16-1.12 1.16-2.24v-.25c-.09-1.66-.16-3.29-.2-4.89-.05-1.6-.07-3.19-.07-4.77v-5.17c0-1.83.01-3.66.03-5.48.02-1.83.08-3.6.17-5.33.09-1.72.23-3.33.41-4.83.09-.58.29-.87.61-.87.14 0 .25.12.34.37 1.09 2.78 2.15 5.48 3.2 8.1q1.56 3.93 3.03 7.35c.97 2.29 1.89 4.37 2.75 6.26s1.65 3.48 2.38 4.77c.95 1.74 2.13 2.62 3.53 2.62.68 0 1.3-.24 1.87-.72ZM98.67 6.08c.03-.48.09-.97.16-1.47-.29-1.06-1.03-1.64-2.23-1.72-1.73-.04-2.72.61-2.97 1.94-.13.65-.24 1.32-.32 2.03-.09.71-.16 1.45-.22 2.22-.09 1.31-.13 2.93-.1 4.86.02 1.93.1 4.24.24 6.91.13 2.67.22 4.97.27 6.89s.02 3.53-.07 4.83c-.03.5-.08.99-.13 1.47-.06.48-.12.97-.19 1.47.35.76 1 1.17 1.96 1.24.51.03 1.06-.07 1.63-.25.63-.27.62-.61 1.11-1.38.41-.63.62-2.16.7-2.93.02-.26.05-.5.07-.76.09-1.31.14-2.95.14-4.92s-.05-4.29-.14-6.96-.14-5-.14-6.99.05-3.66.14-5c.03-.5.07-.99.1-1.47ZM189.58 17.47c.15-.73.35-1.73.56-2.79.34-1.74.81-7.6 1.07-8.81.33-1.57.22-2.8-.34-3.65-.47-.72-1.25-1.17-2.31-1.31-.45-.06-.95 0-1.5.16-.49.15-.98.31-1.48.49-.07 0-.13.02-.19.05-.27.09-.87.49-1.07 2.18-.27 1.28-.84 8.42-1.32 11.56-.3 1.96-.58 3.81-.79 5.01l-.12.71c-.34 2-.64 3.72-.88 5.17-.27 1.61-.52 2.91-.72 3.87-.45 2.16-.93 4.08-1.41 5.74-.09.35-.27.83-.54 1.45-.28.65-.85.84-1.29.81-.43-.03-.96-.31-1.17-.98-.44-1.43-.76-3.04-.92-4.8-.05-.56-.09-1.62-.12-3.15-.03-1.5-.04-3.51-.03-6.12-.03-1.97-.01-1.81-.18-3.35-.07-.68-.02-1.13.03-1.55.06-.49.11-.95-.04-1.6 0-.02 0-.03-.01-.05-.13-.39-.23-.95-.02-2.93.18-1.75.17-2.96-.06-3.72-.18-.89-.77-1.99-2.5-2.23-1.63-.23-2.93.14-3.86 1.08-.01.01-.02.02-.03.04-.56.69-.48 2.13-.39 3.8.03.6.07 1.22.06 1.79 0 .78-.11 1.17-.2 1.92-.14 1.14-.28 2.32-.16 3.95.28 3.47.37 4.33.48 6.38.12 2.1.18 3.48.2 4.19.05 4.76.69 7.64 2.55 11.41 1.04 2.24 3.05 3.59 6 4 .47.07.98.07 1.5.02 1.77-.19 3.71-1.11 4.92-3.02 2.54-3.97 3.3-7.16 4.41-12.47.33-1.55.56-3.39.68-5.48.13-2.04.44-4.24.92-6.54.03-.1.06-.21.08-.32.04-.21.11-.51.18-.88ZM31.48 55.09c-.5-.11-1.17-.25-2.06-.43-.81-.16-1.49-.33-2-.49-1.47-.5-2.58-1-3.31-1.48-.73-.49-1.49-1.01-2.27-1.55a93 93 0 0 1-2.7-2l-.26-.2c-3.02-2.35-5.45-5.14-7.22-8.28-1.5-2.66-2.43-5.36-2.75-8.01-.3-2.52-.34-4.85-.1-6.93.24-2.1.67-4 1.27-5.67.6-1.66 1.34-3.14 2.2-4.4.87-1.26 1.78-2.35 2.71-3.24 1.77-1.66 3.35-2.75 4.71-3.25.6-.22 1.26-.52 1.89-.82.91-.42 1.85-.86 2.66-1.06 1.21-.35 2.04-.93 2.46-1.7.41-.75.56-1.56.46-2.41-.1-.84-.33-1.78-1.25-2.33-1.6-.96-3.24-.9-5.07-.73-2.15.2-4.86 1.8-7.22 3.35-2.49 1.62-5.13 4.09-7.85 7.33-1.79 2.12-3.32 4.94-4.53 8.39C.03 22.63-.3 26.72.27 31.33c.22 1.81.62 4.02 1.18 6.57.57 2.57 1.81 4.97 3.12 7.52l.07.14c.69 1.35 1.92 2.9 3.67 4.61l.45.44c1.58 1.55 3.22 3.15 5.39 4.58 2.36 1.55 4.94 2.92 7.68 4.07 2.67 1.12 4.5 1.82 7.32 2.07h.03l1.25.02c1.53-.05 1.93-.3 2.6-1.2s.93-1.77.81-2.71c-.15-1.25-.93-2.02-2.37-2.34Z" class="cls-1"/><path d="M47.02 52.53c.21-.4.28-.8.23-1.2v-.03c-.13-.61-.25-1.23-.36-1.84-.04-.2-.12-.63-.21-1.14-.2-1.08-.49-2.55-.55-3.02-.17-1.22-.57-4.44-.7-6.58-.13-2.07-.23-4.35-.29-6.76-.06-2.43-.12-4.94-.19-7.53-.06-2.59-.12-5.06-.17-7.4-.02-1.14-.02-3.16 0-5.11 0-2.13.01-4.14-.01-5.12-.04-1.41-.12-2.06-.2-2.74-.03-.24-.06-.48-.08-.76-.18-1.88-1.12-2.12-1.74-2.28h-.05c-.65-.18-1.14-.19-2.07-.05l-.64.1c-.95.2-1.44 1.19-1.46 2.96.07 3.67-.06 10.79-.14 14.03-.03 1.28.02 2.49.07 3.67.05 1.24.1 2.42.05 3.54-.02.32-.26.59-.58.65l-2.28.41-.82.12c-1.17.17-2.08.22-2.69.12-.31-.05-.68-.2-.78-.96-.08-.57-.13-1.26-.15-2.05-.02-.82-.05-1.65-.07-2.47 0-.29-.02-.54-.03-.77-.01-.42-.03-.77-.03-1.23 0-.75-.04-1.29-.09-1.66-.07-.48-.17-1-.29-1.54q-.195-.825-.51-1.53-.33-.735-.84-1.23c-.36-.36-.81-.58-1.35-.67l-1.29-.14c-.7-.07-1.39 0-2.08.23s-1.02.78-.92 1.52l.11.79c.16 1.13.28 2.54.38 4.21.03.47.05.92.08 1.37.07 1.15.14 2.34.2 3.72.08 1.86.13 3.81.15 5.78.02 2.07.05 3.83.1 5.4.02.87.05 1.51.08 2.1.02.54.05 1.03.06 1.62.01.49.01.84.02 1.1 0 .41 0 .65.05.97.02.14.04.44.05 1.11 0 .56.12 1.87.17 2.25.12.86.36 1.55.72 2.05.35.5.76.88 1.22 1.15.46.26.95.41 1.47.44.47.02.93 0 1.39-.07.34-.05 1.23-.18 1.7-.84.26-.36.35-.81.26-1.33-.5-2.9-.5-4.53-.5-6.6v-1.05c-.02-2.12.06-3.99.23-5.55.05-.48.39-.88.85-1 .26-.07.54-.13.83-.17.09-.01.33-.04.86-.03h1.41l1.37-.07a1.295 1.295 0 0 1 1.37 1.25c.04.75.07 1.54.1 2.43.02.84.06 1.65.09 2.41.04.75.08 1.32.13 1.7.03.24.07.56.11 1.03.04.45.08.92.13 1.43.02.27.11.91.19 1.54.07.58.15 1.19.17 1.39.04.43.08.8.12 1.08.23 1.69 1.23 5.53 2.23 6.58.67.71 1.62 1.09 2.81 1.14.48.02 1 0 1.56-.09.46-.07.82-.34 1.05-.78ZM69.17 49.1s.05.01.08.01c.11.05.22.08.34.08.47 0 .95-.14 1.42-.41.59-.34 1.02-.92 1.18-1.58.54-2.33.23-3.01.44-6.53l.2-5.65c.04-.49.07-.94.1-1.35a.66.66 0 0 1 1.12-.42c.7.7 1.49 1.5 2.33 2.4 1.54 1.64 3.46 3.72 5.68 6.2l.93 1.06c2.58 2.93 4 4.55 5.72 6.06.96.84 2.31 1.06 3.44.55 1.41-.63 2.13-1.48 2.13-2.52 0-.29-.1-.59-.28-.91-.7-1.3-1.69-2.69-2.94-4.13-.49-.56-.7-.87-.91-1.18-.31-.46-.58-.85-1.6-1.85l-8.23-8.04-2.37-2.09c-.52-.45-.9-.79-1.11-1.01a.79.79 0 0 1-.21-.57c0-.18.07-.34.23-.48.21-.2.54-.43.97-.68 2.12-1.35 3.98-3.15 5.55-5.34 1.78-2.47 2.69-4.99 2.7-7.49 0-3.06-.94-5.85-2.81-8.28-2.05-2.78-4.5-4.24-7.32-4.36h-1.09c-4.79 0-7.5 1.6-8.04 4.75-.4 2.46-.65 5.17-.73 8.06-.08 2.91-.13 6.15-.13 9.63l-.02 8.39c0 2.02-.1 3.94-.27 5.69-.18 1.75-.02 2.19-.12 3.69l-.08 1.56.09 1.54v.05c0 2.78 1.2 4.51 3.58 5.14Zm4.16-39.13c.04-.44.09-.73.15-1.07l.05-.33c.05-.33.17-.61.33-.83.26-.33.73-.72 1.5-.72 1.43 0 2.47.39 3.1 1.15.65.8 1.05 1.7 1.19 2.67v.58c0 .25-.02.53-.04.81-.03.29-.06.61-.11.96-.46 2.49-1.57 4.16-4.38 6.59-.36.31-.85.57-1.17.37a.9.9 0 0 1-.45-.78c0-.17-.01-.35-.02-.54v-.23c-.04-.41-.06-.87-.06-1.36-.14-2.8-.21-4.48-.21-5.13 0-.7.04-1.42.11-2.15ZM226.11 11.7s.08.02.11.02l2.62.15c1.66.07 3.81-.05 5.67-1.7l.05-.05c.05-.06 1.26-1.43.9-2.96-.24-1.01-1.07-1.79-2.47-2.32-.77-.29-6.22-.92-6.27-.93-1.48-.17-6.22-.48-7.17-.53-.98-.05-7.27-.51-7.35-.52l-.93-.03c-1.53-.04-3.27-.09-4.6-.62-.02 0-.04-.02-.06-.02-.15-.04-.44-.14-1.04-.4-.5-.21-1.02-.44-1.55-.68-1-.46-2.01-.71-3.03-.76-.16 0-.33 0-.51.03-.11.01-.21.02-.3.02-.16 0-1.61-.04-2.45.83-.39.4-.59.93-.57 1.54.05 2.81 1.1 3.79 1.95 4.12.69.27 1.59.43 2.56.6.94.17 1.91.34 2.84.63 1.02.32 2.17.56 3.51.84.73.15 1.49.31 2.3.5.82.19 1.38 1.01 1.3 1.91-.63 6.58-1.22 12.31-1.77 17.03-.39 3.38-.76 5.29-1.14 7.31-.25 1.31-.51 2.67-.79 4.5-.14.9-.22 1.26-.31 1.64-.09.36-.17.74-.31 1.55-.14.87-.4 2.07-.65 3.22-.23 1.06-.45 2.06-.59 2.88l-.13.82c-.05.36-.09.66-.11.92-.02.27-.02.53-.02.76v.04c.16 1.62 1.18 1.84 1.64 1.86h.21c1.3-.07 2.47-.78 3.49-2.11 1.01-1.32 1.7-2.84 2.04-4.51.17-.81.37-1.5.57-2.18.28-.99.58-2.01.79-3.37.15-.97.3-1.84.46-2.75.42-2.43.9-5.19 1.51-10.94.33-3.24.66-6.21.98-8.83.33-2.69.63-4.9.92-6.77.11-.79.74-1.36 1.49-1.33l1.08.05c.23.03.75.07 1.4.13 1.23.1 3.28.28 3.74.4Z" class="cls-1"/><path d="M256.72 32.53c-.51-3.41-1.31-6.71-2.39-9.81-1.07-3.11-2.43-5.8-4.02-8.01-1.67-2.31-3.57-3.53-5.63-3.62-.31-.01-.55.05-.74.1l-.13.03c-.03 0-.06.02-.09.03-.8.32-2.72 1.28-3.2 3.19-.13.53-1.4.64-2.75.76-1.36.12-3.04.27-4.7.88-.54.22-1.07.48-1.58.78-.07.04-.14.08-.22.12-.15.08-.31.17-.48.29-.01 0-.02.01-.03.02-.89.61-1.71 1.34-2.44 2.16a25.3 25.3 0 0 0-3.7 5.51c-.97 1.97-1.7 3.94-2.17 5.85-.47 1.94-.75 3.46-.86 4.65-.21 2.31-.04 4.31.49 5.95.74 2.77 1.71 5.37 2.88 7.73s2.51 4.46 3.98 6.23c1.48 1.78 3.16 3.21 4.98 4.24 1.84 1.05 3.8 1.63 5.84 1.72.24.01.49 0 .74 0 1.27-.07 2.7-.44 4.26-1.12 1.85-.8 3.67-2.06 5.39-3.73 1.71-1.66 3.25-3.74 4.56-6.18 1.32-2.45 2.14-5.38 2.44-8.69.23-2.59.09-5.64-.43-9.07Zm-7.21 7.56c-.23 2.32-.74 4.42-1.53 6.26-.8 1.86-1.69 3.46-2.65 4.75s-1.91 2.28-2.83 2.94c-1.2.87-1.68.92-1.81.91-1.35-.05-2.76-.69-4.18-1.9-1.47-1.25-2.8-2.86-3.95-4.78a27 27 0 0 1-2.74-6.32c-.66-2.25-.89-4.41-.69-6.43l.13-1.34c.74-3.57 1.66-6.47 2.75-8.63.53-1.05 1.13-1.83 1.78-2.32.03-.03.06-.05.09-.08.65-.47 4.87-3.21 10.13.87.02.02 2.03 1.61 3.83 4.33l.07.11c.05.08.1.15.14.23.03.06.06.14.09.21.03.08.06.16.1.25.03.06.06.13.09.19.03.05.06.1.08.15v.04s.03.1.04.15c0 .02 0 .03.01.05.31.81.52 1.55.67 2.32.26 1.31.41 2.72.46 4.21s.02 2.78-.09 3.86ZM52.66 41.63c.07.85.17 1.7.28 2.51.26 1.85 1.45 2.85 3.48 2.89.69-.02 1.67-.13 2.28-.78.38-.41.55-.97.52-1.66-.01-.3-.04-.59-.06-.87-.03-.31-.05-.61-.06-.91l-.06-1.79c-.06-1.64-.06-3.67 0-6.05.06-2.4.18-5.25.35-8.46.1-1.92.08-2.65.06-3.42-.02-.52-.03-1.07 0-2.04.01-.43.02-.83.02-1.24v-8.05c0-1.55-.93-2.91-2.38-3.47-.61-.22-1.11-.31-1.59-.3-.78.02-1.42.29-1.89.78-.41.43-.61 1.05-.55 1.7.04.4.07.8.1 1.19.04.64.07 1.22.09 1.77.06 1.57.03 3.53-.07 5.83-.04.95-.04 1.48-.05 1.99 0 .74 0 1.44-.13 3.35-.22 3.21-.37 6.03-.45 8.39-.08 2.34-.09 4.34-.04 5.93.04.95.09 1.87.16 2.72ZM195.99 24.38c-.15.75-.21 1.17-.28 1.57-.09.57-.17 1.1-.5 2.55-.57 2.48-1.03 4.67-1.38 6.5s-.59 3.41-.73 4.68c-.08.76-.14 1.5-.18 2.19s-.05 1.38-.04 2.05c0 1.21.54 2.78 3 3.33h.03c.36.06.77.12 1.17.09.47-.02.93-.15 1.31-.47.27-.23.62-.68.69-1.46.02-.24.04-.49.05-.72.01-.24.02-.47.05-.69l.15-1.41c.14-1.28.37-2.86.7-4.69.33-1.86.76-4.06 1.29-6.54.32-1.52.39-2.1.46-2.73.05-.4.09-.82.23-1.56.06-.35.12-.68.17-1.01v-.02l.93-6.25c.21-1.41-.55-2.87-1.91-3.66-.54-.29-1-.47-1.44-.54-.76-.13-1.42-.03-1.96.31s-.88.96-.91 1.65c-.01.32-.03.63-.05.93-.03.5-.07.95-.12 1.38-.13 1.22-.38 2.73-.73 4.49ZM135.71 32.3c-.13 2.33.02 4.23.44 5.64.53 1.81 1.5 3.18 2.86 4.07 2.41 1.67 4.73 2.23 6.88 1.68.73-.19 1.27-.42 1.65-.7 2.82-1.84 5.3-4.09 7.39-6.69.18-.22.43-.19.5-.17s.31.09.35.36c.06.34.11.67.16.98.15.92.25 1.63.33 2.2l.93 4.17v.04c.62 2.09 2.08 3.26 4.36 3.5.27.03.57.02.89-.03q.225-.03.45-.09c2.19-.57 2.23-1.83 2.06-2.52l-2.35-9.24c-.47-1.9-.74-3.72-.79-5.4-.06-1.67.03-3.26.24-4.72.09-.42.07-.88-.08-1.36l-.05-.16c-.22-.79-.69-2.44-2.41-2.51-2.42-.11-3.69 1.25-3.72 1.28-.46.45-.72 1.05-.77 1.79-.16 2.14-.48 2.7-.61 2.84 0 0-.02.02-.02.03-.63.81-1.24 1.6-1.82 2.36-3.47 4.52-6.22 8.09-8.68 8.91-.36.12-.87-.59-1.07-1.02l-.24-.81c-.83-2.82-.83-6.22.02-10.11.66-3.29 1.5-6.35 2.49-9.08.59-1.63.34-1.39 1.04-2.85.73-1.52 1.06-2.2 2.29-3.41 0 0 2.25-2.66 5.07 2.91.7 1.38 2.4 2.04 3.92 1.42 1.52-.61 2.23-2.25 1.58-3.66-.35-.76-3.57-7.42-9.22-7.29 0 0-5.47-.11-9.31 7.83-3.51 7.26-4.32 12.82-4.77 19.82ZM83.74 67.49c.55-.92.99-1.72 1.29-2.38.37-.79.64-1.49.78-2.09s.22-1.13.22-1.57c0-.31-.04-.63-.12-.93a3 3 0 0 0-.39-.88c-.19-.28-.43-.51-.71-.69-.68-.42-1.62-.38-2.35.1-.37.24-.68.6-.94 1.05-.24.41-.42.92-.56 1.51-.13.58-.2 1.23-.2 1.95 0 .59.05 1.22.16 1.87.09.56.23 1.16.41 1.77-.4.64-.86 1.33-1.36 2.06-.56.81-1.19 1.66-1.86 2.52-.68.88-1.4 1.75-2.13 2.59-.74.86-1.53 1.7-2.33 2.5-.81.81-1.64 1.57-2.46 2.26q-1.245 1.05-2.52 1.86c-.92.59-1.76 1.04-2.52 1.33-.72.28-1.33.42-1.84.42-.39 0-.57-.08-.64-.13-.04-.03-.05-.04-.05-.07 0-.08.03-.32.27-.84.21-.45.55-1.07 1-1.84.46-.79 1.04-1.77 1.73-2.93.75-1.25 1.58-2.68 2.48-4.26.84-1.47 1.45-2.83 1.79-4.06.35-1.24.52-2.37.52-3.38 0-1.47-.29-2.78-.86-3.88a8 8 0 0 0-2.25-2.72 9.4 9.4 0 0 0-3.16-1.58 13 13 0 0 0-3.56-.52c-1.09-.01-2.27.1-3.42.34-1.17.24-2.32.6-3.42 1.07-1.1.48-2.16 1.08-3.13 1.78-.98.71-1.86 1.55-2.61 2.51-.75.95-1.35 2.03-1.79 3.22s-.66 2.52-.66 3.93c0 1.18.19 2.24.58 3.16.38.92.92 1.71 1.6 2.35s1.49 1.12 2.4 1.45c.9.32 1.87.48 2.9.48 1.25 0 2.43-.25 3.5-.73 1.04-.47 2.01-1.1 2.86-1.85.84-.74 1.62-1.58 2.31-2.5.67-.9 1.27-1.82 1.8-2.72.18-.31.08-.72-.23-.91l-.65-.39a.7.7 0 0 0-.52-.08c-.17.05-.32.16-.4.31-.57.96-1.19 1.84-1.84 2.61s-1.34 1.42-2.05 1.95c-.69.52-1.41.93-2.14 1.21-1.34.51-2.7.54-3.93.08a4.3 4.3 0 0 1-1.5-.94c-.43-.41-.77-.93-1.03-1.56s-.39-1.37-.39-2.21c0-.9.14-1.79.41-2.64.28-.87.68-1.69 1.19-2.44.51-.76 1.13-1.47 1.84-2.12.72-.64 1.52-1.2 2.39-1.66s1.81-.82 2.8-1.08 2.03-.39 3.1-.39c1.18 0 2.23.16 3.12.47.88.31 1.63.72 2.23 1.22.58.49 1.03 1.05 1.32 1.67.29.61.44 1.25.44 1.91 0 .71-.12 1.5-.37 2.34-.25.87-.58 1.78-.98 2.7-.41.93-.87 1.87-1.38 2.79-.5.91-1.02 1.81-1.54 2.68-.51.85-.99 1.63-1.44 2.35-.46.72-.84 1.34-1.14 1.84-.29.48-.5.97-.64 1.46q-.21.75-.21 1.44c0 .4.05.79.16 1.16.11.41.3.78.57 1.12.28.34.64.61 1.09.81.43.19.96.29 1.57.29.65 0 1.43-.16 2.34-.47.89-.31 1.96-.86 3.19-1.65 1.14-.73 2.28-1.6 3.4-2.59 1.11-.98 2.18-2.02 3.2-3.11s1.99-2.22 2.88-3.36c.9-1.14 1.73-2.25 2.47-3.32.75-1.08 1.41-2.09 1.94-2.99Zm-.7-5.11c.06-.35.14-.66.25-.92.09-.23.2-.41.31-.53.04-.05.07-.06.09-.06 0 0 .02.01.04.06.03.07.05.14.07.23.02.11.03.22.03.32 0 .18-.02.4-.07.66-.04.25-.13.56-.25.92-.13.36-.3.78-.52 1.24-.02-.25-.03-.49-.03-.71q0-.63.09-1.2ZM113.5 74.79a.65.65 0 0 0-.52-.16c-.2.02-.37.14-.48.31-.81 1.29-1.63 2.37-2.43 3.21l-.24.24c.16-.64.24-1.35.24-2.12 0-.68-.06-1.35-.19-1.99a32 32 0 0 0-.76-3.11c-.12-.42-.15-.65-.15-.76 0-.21.02-.39.06-.52.05-.15.1-.28.16-.39.07-.12.14-.23.2-.32 0 0 .01-.02.02-.03.1-.13.18-.26.25-.38.16-.28.09-.64-.16-.84l-.66-.55a.67.67 0 0 0-.97.12c-.57.79-1.15 1.65-1.73 2.56-.56.87-1.05 1.67-1.49 2.39-.46.75-.81 1.34-1.07 1.79l-.33.57s-.03.05-.05.08c-.01.01-.02.03-.03.04l-.56.89c-.22.34-.46.7-.72 1.07-.26.36-.54.73-.84 1.1-.29.35-.59.67-.89.95-.29.26-.58.48-.87.64-.24.13-.46.2-.67.2h-.07v-.18c0-.28.07-.66.21-1.11.16-.51.36-1.04.59-1.58s.5-1.13.81-1.75q.45-.9.9-1.74c.3-.55.57-1.06.83-1.53.26-.48.47-.86.62-1.15.08-.16.1-.35.03-.53a.67.67 0 0 0-.36-.38l-.53-.23a.66.66 0 0 0-.77.17l-.72.82q-.315-.495-.81-.81c-.63-.41-1.53-.61-2.67-.61-.5 0-1.08.08-1.71.24s-1.29.42-1.97.78-1.37.83-2.06 1.42a13 13 0 0 0-2 2.15c-.39.51-.72 1.01-.98 1.47l-.05.07c-.33.51-.66 1.02-.99 1.52-.39.59-.79 1.12-1.2 1.58-.39.44-.78.8-1.17 1.06-.32.22-.64.33-.95.33h-.09c0-.04-.01-.09-.01-.16 0-.28.07-.65.2-1.1.16-.51.35-1.03.58-1.57.24-.56.51-1.15.82-1.76a91 91 0 0 1 1.75-3.29c.26-.48.47-.87.62-1.16.08-.16.1-.35.03-.53a.67.67 0 0 0-.36-.38l-.53-.23a.66.66 0 0 0-.78.18c-.51.6-1.07 1.27-1.68 2s-1.19 1.52-1.72 2.35c-.53.81-.98 1.65-1.34 2.5-.38.89-.57 1.76-.57 2.59s.24 1.46.7 1.99c.48.55 1.17.82 2.03.82s1.6-.22 2.31-.65c.53-.32 1.02-.72 1.48-1.18.03.12.08.24.12.35.2.47.47.88.82 1.21s.76.58 1.2.74c.84.31 1.81.32 2.83.07.49-.12 1.01-.33 1.54-.62.52-.29 1.05-.69 1.58-1.17.18-.16.37-.35.56-.54.1.35.26.65.47.92.3.39.9.86 1.99.86.54 0 1.07-.11 1.58-.32.48-.2.95-.47 1.39-.8l.27-.21c.23.64.62 1.16 1.16 1.54.68.47 1.52.71 2.48.71 1.02 0 2-.21 2.92-.63.89-.41 1.72-.95 2.48-1.59.75-.64 1.45-1.37 2.08-2.17.62-.79 1.18-1.6 1.66-2.39a.66.66 0 0 0-.13-.85l-.56-.5ZM98.13 73.3c-.22.36-.45.73-.68 1.11-.24.39-.46.76-.67 1.12-.21.35-.38.64-.49.82-.4.51-.8 1.02-1.22 1.54-.4.5-.82.96-1.26 1.36-.42.39-.87.71-1.34.95-.43.22-.91.33-1.41.33-.43 0-.61-.15-.72-.28-.18-.22-.28-.57-.28-1.04 0-.64.19-1.39.56-2.23.39-.87.95-1.75 1.67-2.61.48-.57.96-1.06 1.43-1.44.48-.38.94-.69 1.38-.92.43-.22.84-.38 1.22-.48.37-.09.71-.14.99-.14.43 0 .65.08.76.15.17.1.28.22.35.34.08.15.13.3.15.44.01.08.02.15.02.21-.14.21-.3.45-.47.73Zm8.83 2.84c-.04.41-.11.83-.21 1.25-.09.41-.22.82-.39 1.22-.15.37-.34.7-.56.99-.21.27-.44.48-.71.64q-.36.21-.84.21c-.23 0-.41-.03-.54-.1-.15-.07-.27-.16-.34-.24a.8.8 0 0 1-.16-.24c-.02-.05-.03-.08-.04-.08v.01a.66.66 0 0 0-.31-.56q.285-.345.54-.69c.33-.44.62-.88.87-1.28a19 19 0 0 0 .71-1.23c.02-.04.07-.12.14-.23l.45-.74c.18-.3.39-.63.61-.99s.45-.72.68-1.07c.03-.04.05-.08.08-.12.03.33.05.67.07 1.02.03.41.04.8.04 1.13q0 .48-.06 1.11ZM122.16 73.18h-4.96c-.25 0-.48.14-.6.37l-.62 1.25c-.1.21-.09.44.04.65.12.19.33.31.56.31h4.96c.25 0 .48-.14.6-.37l.62-1.25c.1-.21.09-.45-.04-.65a.66.66 0 0 0-.56-.31M158.64 68.38c.46-.9.69-1.95.69-3.14 0-.48-.07-1.01-.2-1.57-.14-.57-.36-1.14-.67-1.71s-.72-1.13-1.22-1.67c-.35-.38-.75-.73-1.2-1.06.52-.56 1.07-1.06 1.64-1.49.29-.22.35-.62.14-.91l-.27-.39a.664.664 0 0 0-.83-.21c-.6.28-1.16.6-1.67.96-.39.27-.77.56-1.13.86-.74-.3-1.56-.54-2.46-.73-1.06-.22-2.29-.34-3.65-.34-1.73 0-3.49.22-5.21.65s-3.39 1.05-4.97 1.83-3.07 1.74-4.43 2.84a20.6 20.6 0 0 0-3.58 3.71 18 18 0 0 0-2.4 4.42 14.4 14.4 0 0 0-.88 4.97c0 1.34.21 2.55.61 3.6.41 1.06.99 1.98 1.73 2.72a7.4 7.4 0 0 0 2.64 1.71c1 .38 2.11.58 3.28.58s2.34-.17 3.39-.51 2.04-.81 2.94-1.4c.9-.58 1.74-1.28 2.52-2.09.77-.79 1.49-1.65 2.14-2.57.64-.9 1.25-1.86 1.81-2.86.46-.83.9-1.67 1.3-2.5 2.01.39 3.93.33 5.59-.16.95-.28 1.8-.72 2.53-1.3q1.11-.885 1.8-2.22Zm-10.77-1.82c-.41.81-.82 1.65-1.26 2.55-.38-.13-.75-.28-1.11-.43-.51-.22-1.04-.47-1.59-.74a.67.67 0 0 0-.87.27l-.27.46c-.17.3-.09.67.19.87.83.6 1.73 1.11 2.68 1.54a73 73 0 0 1-2.26 4.14c-.82 1.39-1.71 2.6-2.62 3.58-.89.96-1.87 1.71-2.91 2.22-1.02.5-2.2.76-3.49.76q-1.23 0-2.25-.42a5.2 5.2 0 0 1-2.88-2.84 5.5 5.5 0 0 1-.41-2.13c0-.81.13-1.68.4-2.58.27-.92.66-1.87 1.16-2.82.51-.96 1.13-1.92 1.85-2.87s1.54-1.87 2.44-2.74c.89-.86 1.88-1.68 2.93-2.43 1.04-.74 2.15-1.38 3.3-1.93 1.15-.54 2.36-.97 3.59-1.28s2.5-.46 3.78-.46c.94 0 1.83.06 2.65.19.45.07.88.16 1.29.28q-.6.69-1.14 1.44c-.57.79-1.12 1.64-1.64 2.53s-1.04 1.84-1.54 2.83Zm7.94.03c-.3.68-.7 1.27-1.2 1.75-.5.49-1.09.87-1.76 1.13-.66.27-1.38.4-2.14.4-.31 0-.63-.01-.92-.04h-.04c.84-1.8 1.66-3.46 2.44-4.94.78-1.47 1.6-2.8 2.44-3.96.44.34.8.74 1.07 1.18.36.59.54 1.32.54 2.18s-.15 1.61-.44 2.29ZM210.2 75.29l-.56-.5a.7.7 0 0 0-.53-.16c-.2.03-.37.14-.47.31-1.29 2.05-2.59 3.57-3.87 4.5-1.23.9-2.51 1.35-3.81 1.35-.33 0-.63-.06-.88-.17a1.7 1.7 0 0 1-.61-.46c-.17-.2-.3-.45-.39-.73-.09-.29-.14-.6-.14-.93v-.16c.46-.04.94-.11 1.43-.22.7-.15 1.39-.36 2.07-.61a12.4 12.4 0 0 0 1.98-.94c.64-.37 1.21-.8 1.71-1.28.5-.49.91-1.02 1.21-1.6.32-.61.48-1.27.48-1.96 0-.53-.1-1-.29-1.4s-.45-.73-.77-.98c-.31-.24-.65-.42-1.03-.53-.87-.26-1.74-.2-2.83.2-.62.23-1.26.56-1.89.97-.63.4-1.26.9-1.88 1.48-.62.57-1.18 1.22-1.66 1.93-.26.38-.5.8-.75 1.32-.08.05-.15.12-.21.2-.44.66-.9 1.28-1.37 1.85-.46.56-.99 1.11-1.57 1.63-.57.51-1.24 1.04-1.98 1.56-.25.17-.51.35-.78.53.11-.24.22-.47.33-.71.42-.9.84-1.78 1.26-2.63.41-.85.81-1.65 1.19-2.41s.72-1.42 1-1.98q.435-.84.69-1.35c.34-.64.34-.65.34-.83 0-.23-.11-.44-.3-.55l-.55-.37a.67.67 0 0 0-.9.15l-.35.46c-.18-.2-.41-.39-.67-.56-.31-.2-.7-.38-1.14-.51-.6-.18-1.87-.41-3.62.14-.72.22-1.45.54-2.16.94-.72.4-1.42.89-2.09 1.46-.68.57-1.29 1.22-1.81 1.91q-.375.495-.72 1.11c-.07.05-.12.11-.16.17l-.56.89c-.21.34-.46.7-.72 1.07-.27.38-.55.75-.85 1.1-.29.35-.59.67-.89.95-.29.27-.58.48-.87.64-.23.13-.46.2-.66.2h-.07v-.18c0-.28.07-.66.21-1.1.16-.51.36-1.04.59-1.58.23-.55.51-1.14.81-1.75q.45-.9.9-1.74c.3-.55.57-1.06.83-1.52.27-.48.47-.86.62-1.16a.67.67 0 0 0 .03-.52.66.66 0 0 0-.36-.39l-.51-.22a.68.68 0 0 0-.79.16l-.72.82q-.315-.495-.81-.81c-.63-.41-1.53-.61-2.67-.61q-.765 0-1.71.24c-.63.16-1.29.42-1.97.78-.67.36-1.37.83-2.06 1.42a13 13 0 0 0-2 2.15c-.38.5-.71.99-.95 1.42l-.5.74c-.25.37-.53.75-.83 1.13-.31.39-.64.78-.98 1.16-.33.36-.67.7-1.02.99-.33.28-.68.5-1.02.68-.29.15-.57.22-.84.22-.34 0-.57-.12-.76-.4-.16-.24-.35-.74-.35-1.77v-1.07c0-.27.02-.56.08-.88.14-.14.28-.28.41-.4.19-.17.4-.37.63-.58.23-.22.49-.47.78-.77.29-.29.64-.68 1.09-1.17a104.59 104.59 0 0 0 3.59-4.24c.41-.51.83-1.06 1.23-1.63.41-.59.81-1.2 1.19-1.81.38-.62.73-1.25 1.06-1.87.33-.63.62-1.24.86-1.81.25-.59.45-1.13.59-1.63.16-.53.24-1.01.24-1.42 0-.72-.22-1.25-.67-1.57-.84-.6-2.06-.53-3.35.19-.65.37-1.33.88-2.03 1.52-.68.62-1.37 1.38-2.07 2.24s-1.37 1.8-2.01 2.79c-.64 1-1.24 2.06-1.8 3.16s-1.06 2.23-1.48 3.37c-.42 1.13-.75 2.28-1 3.41a15.5 15.5 0 0 0-.37 3.31c0 .88.11 1.65.32 2.29.22.65.52 1.21.89 1.64.38.45.84.79 1.35 1 1.09.45 2.34.41 3.47-.18.57-.3 1.12-.68 1.64-1.14.23-.2.45-.42.67-.64.05.19.1.37.18.54.2.47.47.88.82 1.21s.76.58 1.2.74c.83.31 1.8.32 2.83.07.49-.12 1.01-.33 1.53-.62.51-.29 1.04-.68 1.58-1.17.18-.17.37-.35.56-.54.1.35.26.65.47.92.3.39.89.86 1.99.86.54 0 1.07-.11 1.58-.32.48-.2.95-.47 1.39-.8.42-.32.83-.7 1.21-1.11.02-.02.03-.04.05-.05.06.31.16.59.28.85q.39.84 1.02 1.35c.41.34.87.58 1.38.73 1.14.33 2.27.27 3.46-.19.06-.02.13-.05.19-.08-.08.18-.16.37-.24.56-1.64.87-3.14 1.74-4.46 2.6-1.38.9-2.57 1.82-3.54 2.75-.98.94-1.75 1.91-2.27 2.87-.54 1-.82 2.04-.82 3.08 0 .59.11 1.09.32 1.51.21.41.49.73.81.96s.67.39 1.04.47c.32.07.64.11.93.11.71 0 1.49-.23 2.33-.68.81-.43 1.69-1.18 2.61-2.22.89-1.01 1.85-2.4 2.84-4.12.96-1.66 1.97-3.78 2.99-6.28 1.19-.72 2.25-1.39 3.14-2.01.94-.65 1.78-1.29 2.49-1.91.35-.31.69-.62 1-.94.08.55.23 1.03.47 1.45.34.61.78 1.1 1.31 1.47.51.35 1.08.61 1.69.76 1.38.35 2.59.28 3.94-.16.78-.25 1.58-.66 2.38-1.22.79-.55 1.59-1.27 2.36-2.14.78-.86 1.55-1.93 2.3-3.18.16-.27.11-.63-.13-.84Zm-9.88-.61c.51-.78 1.05-1.48 1.63-2.06.56-.57 1.13-1.02 1.69-1.34.5-.29.95-.44 1.31-.44.02 0 .04 0 .08.05.02.02.07.08.07.27 0 .21-.06.47-.18.76-.14.33-.34.69-.6 1.05-.26.37-.59.74-.98 1.11s-.85.71-1.35 1.03a8.3 8.3 0 0 1-1.67.79q-.39.135-.81.24c.24-.51.5-1 .8-1.46Zm-39.21-3.98c.48-1.24 1.03-2.45 1.63-3.6a35 35 0 0 1 1.95-3.28c.69-1.01 1.36-1.91 2-2.68.63-.74 1.22-1.34 1.75-1.76.33-.27.57-.4.72-.47-.02.38-.14.83-.34 1.36-.24.63-.58 1.36-1.02 2.15s-.98 1.65-1.61 2.56-1.33 1.86-2.1 2.83c-.74.95-1.57 1.94-2.45 2.95-.3.34-.61.68-.92 1.03.12-.36.25-.73.39-1.09m14.98 2.6c-.22.36-.45.73-.68 1.11-.24.39-.46.76-.67 1.12-.21.35-.38.64-.49.82-.4.51-.8 1.02-1.22 1.54-.4.5-.83.96-1.26 1.36-.42.39-.87.71-1.34.95q-.66.33-1.41.33c-.43 0-.61-.15-.72-.28-.18-.22-.28-.58-.28-1.04 0-.64.19-1.39.56-2.23.39-.86.95-1.74 1.67-2.61.48-.57.96-1.06 1.43-1.44.48-.38.94-.69 1.38-.92.43-.22.84-.38 1.21-.48.38-.09.71-.14.99-.14.43 0 .65.08.76.15.17.1.28.22.35.34.08.15.13.3.15.44.01.08.02.15.02.21-.14.21-.3.45-.47.73Zm8.45 13.87c-.39.82-.82 1.64-1.25 2.43-.44.8-.89 1.55-1.33 2.23-.43.67-.87 1.27-1.32 1.79-.43.49-.85.88-1.25 1.16-.34.23-.66.35-.94.35s-.47-.05-.53-.14c-.12-.18-.18-.42-.18-.74 0-.15.06-.51.44-1.28.31-.63.82-1.36 1.52-2.17.71-.82 1.65-1.69 2.78-2.6.68-.55 1.47-1.09 2.34-1.62-.09.2-.19.39-.28.59m4.66-10.06c-.28.52-.56 1.04-.84 1.57-.66.6-1.34 1.09-2 1.46-.65.35-1.25.53-1.8.53-.45 0-.78-.11-1.02-.36-.24-.24-.36-.64-.36-1.17 0-.64.19-1.38.55-2.19.39-.85.95-1.71 1.67-2.56a9.5 9.5 0 0 1 1.49-1.44c.5-.38 1.01-.68 1.5-.91.48-.22.94-.38 1.38-.47.43-.09.82-.14 1.15-.14.24 0 .45.03.61.1s.29.15.38.23c.1.1.18.2.23.31.01.03.03.06.04.08-.38.54-.73 1.07-1.05 1.57q-.555.885-1.02 1.71c-.32.55-.63 1.11-.92 1.66Z" class="cls-1"/></g></svg>