<?xml version="1.0" encoding="UTF-8"?><svg id="Calque_2" xmlns="http://www.w3.org/2000/svg" viewBox="0 0 323.52 196.76"><defs><style>.cls-1{fill:#009ba4;}.cls-2{fill:#878787;}.cls-3{fill:#575756;}</style></defs><g id="Calque_1-2"><path class="cls-2" d="M118.53,188.43c-.14,0-.28,.02-.42,.02-.14,0-.28,0-.42,0-.37,0-.83-.02-1.37-.07-.54-.05-1.19-.11-1.95-.19-.75-.08-1.41-.14-1.95-.18-.55-.04-1.01-.06-1.38-.06-.22,0-.43,0-.63,.02-.2,0-.4,.03-.58,.05-.39,.04-.59,.28-.61,.72,0,.31,.15,.51,.44,.6,.14-.01,.28-.02,.42-.02h.42c.38,0,.86,.02,1.42,.05,.56,.03,1.22,.09,1.98,.16,.75,.07,1.41,.13,1.97,.16,.56,.03,1.02,.05,1.4,.05,.18,0,.34,0,.51,0,.16,0,.32-.01,.48-.02l.07-.05s.02-.02,.07-.02c.06,0,.12,0,.16,.02,.11,0,.16-.02,.16-.05,0-.02-.02-.05-.05-.09,.12-.21,.18-.4,.18-.58,0-.25-.1-.42-.31-.52Z"/><path class="cls-2" d="M215.93,188.02c-.18-.02-.38-.03-.58-.05-.2,0-.41-.01-.63-.01-.37,0-.83,.02-1.38,.06-.55,.04-1.2,.1-1.95,.18s-1.4,.15-1.95,.19c-.54,.05-1,.07-1.37,.07-.14,0-.28,0-.42,0s-.28-.01-.42-.02c-.21,.1-.31,.28-.31,.52,0,.18,.06,.38,.18,.58-.03,.04-.05,.07-.05,.09,0,.03,.05,.05,.16,.05,.04,0,.1-.02,.16-.02,.04,0,.07,0,.07,.02l.07,.05c.15,.01,.31,.02,.48,.02,.16,0,.33,0,.51,0,.37,0,.84-.02,1.4-.05,.56-.04,1.21-.09,1.97-.16,.75-.07,1.41-.13,1.98-.16,.57-.04,1.04-.05,1.42-.05h.42c.14,0,.28,0,.42,.02,.3-.09,.44-.29,.44-.6-.02-.44-.23-.68-.61-.72Z"/><path class="cls-2" d="M132.73,181.29c-.06-.02-.12-.04-.18-.05-.06-.01-.11-.04-.16-.09-.08-.08-.16-.14-.23-.17-.08-.03-.15-.04-.21-.04h-.18c-.38,0-.65,.14-.81,.41-.72,1.48-1.41,3.19-2.08,5.12-.29,.9-.59,1.9-.9,2.99-.31,1.09-.55,2.17-.71,3.25-.09-.39-.19-.81-.3-1.28-.11-.47-.22-.94-.34-1.42-.11-.48-.23-.95-.36-1.42-.12-.47-.24-.88-.35-1.26-.25-.83-.49-1.61-.75-2.33-.25-.72-.53-1.38-.82-2-.63-.43-1.06-.65-1.29-.65-.13,0-.25,.04-.37,.11-.14,0-.31,.18-.51,.54,.75,1.53,1.5,3.75,2.26,6.65,.4,1.55,.77,2.86,1.12,3.94,.35,1.08,.67,1.96,.98,2.65,.34,.21,.61,.32,.83,.32,.19,0,.35-.07,.48-.21,.2-.49,.4-1.08,.59-1.78,.19-.7,.4-1.52,.61-2.47,.46-1.98,.86-3.38,1.2-4.2,1.11-2.86,1.96-4.81,2.56-5.88,.08-.19,.11-.33,.11-.43s-.02-.17-.06-.22-.09-.08-.15-.1Z"/><path class="cls-2" d="M135.85,183.14s-.02-.03-.02-.08c0-.09,.01-.16,.03-.22,0-.14-.02-.21-.06-.22-.03,0-.08,.02-.14,.06-.3-.17-.59-.26-.87-.26-.37-.01-.63,.12-.8,.38,0,.19,.01,.37,.01,.55,0,.18,0,.36,0,.55-.02,.49-.07,1.09-.17,1.79-.09,.71-.22,1.56-.38,2.54-.16,.99-.28,1.84-.36,2.55-.09,.72-.14,1.32-.16,1.81,0,.29-.01,.56,0,.83,0,.26,.02,.52,.04,.77,.04,.5,.4,.78,1.06,.83,.46,.01,.77-.17,.92-.55-.01-.19-.01-.37,0-.55,0-.18,.01-.36,.02-.55,.02-.5,.07-1.12,.15-1.86,.08-.74,.19-1.6,.33-2.58,.14-.99,.25-1.85,.33-2.58,.08-.73,.13-1.34,.15-1.83,0-.23,.01-.45,.01-.67,0-.22,0-.42-.01-.63l-.07-.09Z"/><path class="cls-2" d="M144.55,189.61c-.4-1.39-.79-2.92-1.17-4.62-.03-.29-.07-.58-.11-.88-.05-.3-.09-.6-.14-.88-.12-.69-.4-1.21-.83-1.55-.17-.13-.36-.19-.58-.19-.29,0-.49,.1-.58,.3-.2,.46-.41,1.01-.63,1.65-.22,.64-.46,1.39-.73,2.25-.6,1.97-1.04,3.3-1.31,4.01-.03,.1-.18,.18-.44,.23-.26,.05-.42,.11-.48,.2-.06,.06-.09,.13-.09,.21s.11,.21,.32,.36c.2,.14,.3,.27,.3,.39-.05,.47-.3,1.23-.76,2.28-.34,.78-.51,1.44-.51,2v.19c.03,.29,.3,.5,.81,.65,.06,.03,.12,.04,.17,.04h.15c.23,0,.38-.08,.46-.26,.25-.53,.5-1.33,.76-2.39,.14-.57,.26-1.06,.38-1.44,.12-.39,.21-.7,.29-.92,.34-.27,.81-.44,1.4-.52l1.57-.13c.31,.73,.56,1.64,.76,2.73,.2,1.01,.68,1.57,1.43,1.7,.11,0,.29-.1,.53-.3,.26-.21,.39-.47,.39-.75,0-.16-.05-.36-.14-.6-.42-1.12-.82-2.37-1.22-3.76Zm-4.08-.29c.34-1.18,.74-2.37,1.2-3.57,.08,.29,.15,.57,.22,.86,.07,.29,.14,.57,.22,.86,.08,.32,.14,.62,.19,.92,.05,.29,.08,.58,.11,.87-1.04,0-1.69,.02-1.94,.06Z"/><path class="cls-2" d="M149.2,187.14c-.29-.56-.45-.88-.48-.95-.14-.36-.21-.75-.21-1.16,0-1.12,.42-2.07,1.24-2.84,.09-.08,.18-.13,.28-.13,.06,0,.18,.03,.34,.08,.03,.01,.09,.02,.18,.02,.08,0,.15-.02,.21-.04,.44-.21,.67-.47,.67-.75,0-.17-.08-.33-.23-.47-.32-.33-.81-.49-1.45-.49-.31,0-.65,.08-1.04,.24-.77,.34-1.36,.91-1.77,1.7-.37,.69-.55,1.47-.55,2.34,0,1.06,.49,2.48,1.48,4.27,1,1.79,1.5,3.14,1.5,4.05,0,.68-.16,1.32-.48,1.94-.08,.16-.23,.24-.46,.26-.23,.03-.38,.07-.44,.13-.23,.25-.34,.45-.34,.63,0,.29,.23,.52,.69,.71,.11,.04,.24,.06,.39,.06,.35,0,.75-.15,1.2-.45,.55-.39,.9-.7,1.04-.95,.42-.73,.62-1.49,.62-2.28,0-.96-.37-2.13-1.1-3.51-.55-1.03-.98-1.83-1.27-2.39Z"/><path class="cls-2" d="M160.57,180.49c-.21-.03-.41-.05-.59-.07-.18-.02-.34-.02-.47-.02-.15,0-.3,.02-.47,.04-.2,0-.34,.25-.42,.74,.07,.03,.16,.15,.3,.34,.1,.17,.2,.25,.29,.25,.02,0,.03,0,.04,0,0,0,.02-.01,.04-.01,.15,1,.22,2.1,.22,3.3,0,.83-.05,2.05-.15,3.67-.1,1.61-.15,2.83-.15,3.64,0,.62,.02,1.2,.06,1.77,.04,.56,.1,1.09,.19,1.58,.02,.18,.17,.35,.47,.51l.52,.26,.17,.09c.52-.54,.79-1.32,.79-2.35,0-.28-.02-.7-.07-1.29-.05-.6-.07-1.05-.07-1.34,0-.46,.03-.82,.1-1.09,.48-.08,.95-.29,1.43-.65l1.13-1.06c.44-.42,.98-1.25,1.6-2.52,.26-.51,.39-1.04,.39-1.59,0-.58-.17-1.1-.52-1.57-1.09-1.43-2.7-2.31-4.83-2.63Zm3.35,4.01c-.16,1.26-.98,2.54-2.44,3.83,.02-.16,.03-.32,.03-.49v-.57c0-.58-.02-1.28-.05-2.09-.03-.81-.08-1.74-.15-2.8,.3,.12,.55,.22,.78,.3,.22,.08,.41,.15,.55,.21,.18,.06,.33,.11,.44,.16,.56,.29,.84,.71,.84,1.27v.18Z"/><path class="cls-2" d="M173.46,190.76c-.09,0-.23,.01-.43,.04-.19,.03-.33,.04-.4,.04-.17,.07-.39,.19-.66,.36-.27,.17-.59,.37-.98,.61-.72,.46-1.28,.76-1.68,.91v-.6c0-.57,.01-1.25,.03-2.02s.07-1.66,.15-2.65c.06-.9,.11-1.71,.14-2.42,.03-.71,.05-1.34,.05-1.9,0-.19,0-.36-.01-.52,0-.16-.01-.31-.01-.45-.09-.4-.43-.6-1.01-.6-.31,0-.56,.09-.76,.28,.03,.33,.05,.66,.07,1,.01,.34,.02,.69,.02,1.07,0,1.08-.12,2.81-.35,5.19-.09,.99-.16,1.88-.2,2.68-.04,.8-.06,1.5-.06,2.12v.47l.44,.54c.18,.26,.38,.39,.6,.39,.09,0,.18-.02,.28-.06,.4-.16,.83-.36,1.28-.62,.45-.26,.94-.56,1.46-.91l2.7-1.79c.09-.1,.14-.22,.14-.36,0-.12-.05-.26-.14-.43-.14-.23-.36-.34-.67-.34Z"/><path class="cls-2" d="M182.24,189.61c-.4-1.39-.79-2.92-1.17-4.62-.03-.29-.07-.58-.11-.88-.05-.3-.09-.6-.14-.88-.12-.69-.4-1.21-.83-1.55-.17-.13-.36-.19-.57-.19-.29,0-.49,.1-.58,.3-.2,.46-.41,1.01-.63,1.65-.22,.64-.46,1.39-.73,2.25-.6,1.97-1.04,3.3-1.31,4.01-.03,.1-.18,.18-.44,.23-.26,.05-.42,.11-.48,.2-.06,.06-.09,.13-.09,.21s.11,.21,.32,.36c.2,.14,.3,.27,.3,.39-.05,.47-.3,1.23-.76,2.28-.34,.78-.51,1.44-.51,2v.19c.03,.29,.3,.5,.81,.65,.06,.03,.12,.04,.17,.04h.15c.23,0,.38-.08,.46-.26,.25-.53,.5-1.33,.76-2.39,.14-.57,.26-1.06,.38-1.44,.12-.39,.21-.7,.29-.92,.34-.27,.81-.44,1.4-.52l1.57-.13c.31,.73,.56,1.64,.76,2.73,.2,1.01,.68,1.57,1.43,1.7,.11,0,.29-.1,.53-.3,.26-.21,.39-.47,.39-.75,0-.16-.05-.36-.14-.6-.42-1.12-.82-2.37-1.22-3.76Zm-4.08-.29c.34-1.18,.74-2.37,1.2-3.57,.08,.29,.15,.57,.22,.86,.07,.29,.14,.57,.22,.86,.08,.32,.14,.62,.18,.92,.05,.29,.08,.58,.12,.87-1.04,0-1.69,.02-1.94,.06Z"/><path class="cls-2" d="M193.03,187.53h-.11c-.08,.01-.14,.02-.2,.02h-.13s-.08,0-.09,.03c-.12,0-.27,.04-.43,.14-.16,.09-.28,.25-.36,.46-.2,.56-.38,.89-.53,.99-2.04,1.59-3.57,2.58-4.59,2.95-.01,0-.03,0-.03,.01,0,0-.02,.01-.03,.01-.08,0-.14-.05-.2-.16-.05-.11-.1-.17-.13-.18-.02-.1-.02-.19-.02-.28v-.28c0-1.06,.33-2.23,.99-3.51,.54-1.08,1.1-2.04,1.69-2.9,.59-.85,1.21-1.61,1.85-2.27l.85-.45c.28-.13,.42-.33,.42-.6,0-.09,0-.14-.03-.17-.08-.43-.42-.64-1.04-.64-.68,0-1.46,.55-2.37,1.66-1.78,2.21-3.08,4.49-3.89,6.83-.26,.77-.39,1.41-.39,1.92,0,.63,.17,1.15,.51,1.55,.6,.75,1.25,1.12,1.96,1.12,.23,0,.42-.03,.55-.08,1.32-.46,2.52-1.16,3.59-2.09-.05,.42-.09,.78-.13,1.1-.04,.31-.07,.57-.1,.77,0,.1,0,.23-.02,.38-.02,.15-.04,.33-.07,.53-.03,.2-.05,.38-.07,.53-.02,.15-.02,.28-.02,.38,0,.7,.33,1.18,.99,1.44,.11,.04,.24,.06,.39,.06,.49,0,.74-.18,.76-.54l.21-3.66c.03-.7,.12-1.35,.26-1.94,.15-.59,.33-1.13,.54-1.61,.06-.11,.09-.25,.09-.41,0-.26-.15-.59-.44-.99-.05-.06-.13-.09-.25-.09Z"/><path class="cls-2" d="M203.35,182.68c-.55-.3-1.04-.45-1.45-.45-.16,0-.25,0-.28,.02-.39,.09-.76,.17-1.13,.26-.37,.09-.75,.18-1.13,.28-.43,.11-.82,.23-1.17,.34-.35,.12-.68,.24-.97,.39l-1.48,.56c-.52,.24-.79,.57-.81,.99,0,.46,.42,.76,1.27,.9-.05,.65-.09,1.14-.12,1.46-.03,.33-.05,.52-.07,.58-.03,.11-.16,.23-.39,.34-.2,.1-.31,.21-.35,.34v.09c0,.21,.19,.45,.58,.71-.03,.24-.06,.5-.08,.76-.02,.26-.03,.54-.03,.83s.01,.57,.03,.86c.02,.29,.05,.59,.08,.91,.05,.43,.25,.82,.6,1.16,.35,.34,.75,.57,1.18,.67,1.2,.29,2.53,.43,4.01,.43,.14,0,.28,0,.42-.01,.14,0,.28-.01,.42-.01,.21-.02,.39-.1,.52-.25,.13-.15,.2-.33,.2-.53,0-.03,0-.06-.01-.09,0-.03-.01-.06-.01-.08-.11-.62-.34-.93-.71-.93-.03,0-.05,0-.07,.01-.02,0-.04,0-.07,0-.09,0-.21,.05-.35,.16-.14,.11-.27,.16-.39,.16s-.23,0-.33,0c-.1,0-.21,.01-.31,.01-1.45,0-2.48-.21-3.11-.62-.12-.27-.18-.6-.18-.99,0-.67,.15-1.51,.44-2.52,.43-.14,1.01-.23,1.73-.26,.86-.03,1.45-.07,1.77-.13,.21,0,.37-.06,.46-.17,.09-.1,.16-.17,.22-.21,.05-.04,.09-.07,.1-.09,.11-.06,.16-.14,.16-.24,0-.09-.11-.27-.32-.56-.31-.17-.68-.26-1.11-.26-.12,0-.27,.01-.45,.03-.18,.02-.39,.05-.63,.08-.25,.03-.46,.05-.64,.08-.18,.02-.33,.03-.45,.03-.32,0-.61-.04-.86-.13,.03-.66,.08-1.2,.13-1.61,.05-.42,.11-.71,.17-.88,.29-.11,.65-.23,1.06-.36,.42-.12,.9-.25,1.45-.4,.55-.14,1.04-.28,1.45-.4,.41-.12,.77-.24,1.06-.36,.11-.06,.16-.15,.16-.28,0-.07-.03-.18-.09-.34-.06-.16-.1-.27-.12-.32Z"/><path class="cls-1" d="M166.24,111.64l-1.62-.39c-.68-.16-1.28-.23-1.79-.23-1.54,0-2.37,.52-2.48,1.57l-3.42,34c-1.08-2.35-2.24-5.09-3.46-8.23-1.23-3.13-2.5-6.42-3.8-9.87-1.31-3.6-2.54-6.68-3.68-9.25-1.14-2.56-2.17-4.65-3.08-6.27-.91-.68-1.77-1.17-2.57-1.49-.8-.31-1.43-.47-1.88-.47-2.17,0-3.28,.57-3.33,1.72l-1.79,21c-.69,8.3-1.03,15.23-1.03,20.76,0,3.24,.08,6.29,.26,9.17l.17,2.59c.17,1.04,.63,1.67,1.37,1.88l1.62,.7c.57,.31,1.08,.47,1.54,.47s.88-.18,1.28-.55c.97-.47,1.45-1.41,1.45-2.82v-.31c-.11-2.09-.2-4.14-.26-6.15-.06-2.01-.09-4.01-.09-5.99v-6.5c0-2.3,.01-4.6,.04-6.89,.03-2.3,.1-4.53,.21-6.7,.11-2.17,.28-4.19,.51-6.07,.11-.73,.37-1.1,.77-1.1,.17,0,.31,.16,.43,.47,1.37,3.5,2.71,6.89,4.02,10.19s2.58,6.37,3.8,9.25c1.22,2.87,2.38,5.5,3.46,7.87,1.08,2.38,2.08,4.38,2.99,5.99,1.2,2.19,2.68,3.29,4.45,3.29,.86,0,1.64-.3,2.35-.9,.71-.6,1.07-1.29,1.07-2.08-.12-.99-.17-1.95-.17-2.86v-2.7c0-2.82,.13-5.96,.38-9.4,.26-3.45,.61-7.29,1.07-11.52l2.31-21.08c-.17-.52-.54-.89-1.11-1.1Z"/><path class="cls-3" d="M67.39,93.89h1.19l1.47,2.2h1.77l-1.68-2.46c.44-.16,.79-.42,1.07-.77,.27-.35,.41-.81,.41-1.36v-.02c0-.66-.2-1.18-.59-1.57-.47-.47-1.14-.7-2.01-.7h-3.15v6.88h1.51v-2.2Zm0-3.31h1.5c.37,0,.67,.08,.88,.25,.21,.16,.31,.41,.31,.74v.02c0,.29-.1,.53-.3,.71-.2,.18-.49,.26-.86,.26h-1.53v-1.98Z"/><polygon class="cls-3" points="74.48 93.3 77.72 93.3 77.72 91.95 74.48 91.95 74.48 90.56 78.16 90.56 78.16 89.21 72.98 89.21 72.98 96.09 78.21 96.09 78.21 94.74 74.48 94.74 74.48 93.3"/><path class="cls-3" d="M84.36,94.96c.12-.26,.18-.57,.18-.91v-.02c0-.3-.05-.56-.14-.78-.1-.22-.24-.41-.42-.57-.19-.16-.42-.3-.69-.41-.27-.11-.58-.22-.93-.31-.3-.08-.54-.15-.73-.21s-.35-.12-.46-.19c-.11-.07-.19-.14-.23-.22-.05-.08-.07-.18-.07-.29v-.02c0-.17,.08-.31,.22-.43,.15-.12,.37-.17,.66-.17s.59,.06,.88,.18c.29,.12,.6,.29,.91,.5l.79-1.14c-.35-.28-.74-.5-1.17-.65-.42-.15-.89-.23-1.39-.23-.35,0-.68,.05-.97,.15-.29,.1-.55,.24-.76,.42-.21,.18-.38,.4-.49,.65-.12,.25-.18,.53-.18,.85v.02c0,.34,.05,.62,.16,.86,.11,.23,.26,.42,.46,.57,.2,.15,.44,.28,.72,.39,.28,.1,.6,.2,.95,.29,.29,.07,.52,.14,.7,.21,.18,.07,.32,.13,.42,.2,.1,.07,.17,.13,.21,.21,.04,.08,.05,.16,.05,.26v.02c0,.2-.09,.36-.26,.47-.17,.12-.42,.17-.73,.17-.39,0-.75-.08-1.09-.23-.33-.15-.65-.35-.97-.61l-.89,1.07c.41,.37,.87,.65,1.38,.83,.51,.18,1.02,.27,1.54,.27,.37,0,.71-.05,1.02-.14,.31-.1,.57-.23,.79-.41,.22-.18,.39-.4,.52-.67Z"/><polygon class="cls-3" points="87.46 96.09 88.98 96.09 88.98 90.6 91.07 90.6 91.07 89.21 85.37 89.21 85.37 90.6 87.46 90.6 87.46 96.09"/><path class="cls-3" d="M91.64,96.09h1.54l.63-1.54h2.91l.63,1.54h1.58l-2.95-6.93h-1.4l-2.95,6.93Zm4.54-2.88h-1.83l.91-2.23,.91,2.23Z"/><path class="cls-3" d="M99.89,89.21v3.93c0,1.01,.26,1.78,.79,2.29,.53,.51,1.26,.77,2.18,.77,.46,0,.88-.06,1.25-.19,.37-.13,.69-.32,.95-.58,.26-.26,.47-.58,.6-.97,.14-.39,.21-.84,.21-1.37v-3.88h-1.51v3.94c0,.55-.13,.96-.39,1.24-.26,.28-.63,.41-1.09,.41s-.83-.14-1.09-.43c-.26-.29-.39-.71-.39-1.27v-3.89h-1.51Z"/><path class="cls-3" d="M113.17,91.5v-.02c0-.66-.2-1.18-.59-1.57-.47-.47-1.14-.7-2.01-.7h-3.15v6.88h1.51v-2.2h1.19l1.48,2.2h1.77l-1.68-2.46c.44-.16,.79-.42,1.07-.77,.27-.35,.41-.81,.41-1.36Zm-1.53,.08c0,.29-.1,.53-.3,.71-.2,.18-.49,.26-.86,.26h-1.53v-1.98h1.5c.37,0,.67,.08,.88,.25,.21,.16,.31,.41,.31,.74v.02Z"/><path class="cls-3" d="M116.89,89.16l-2.95,6.93h1.54l.63-1.54h2.91l.63,1.54h1.58l-2.95-6.93h-1.4Zm-.24,4.05l.91-2.23,.91,2.23h-1.83Z"/><polygon class="cls-3" points="123.69 89.21 122.3 89.21 122.3 96.09 123.79 96.09 123.79 91.72 127.12 96.09 128.41 96.09 128.41 89.21 126.92 89.21 126.92 93.45 123.69 89.21"/><polygon class="cls-3" points="133.18 96.09 133.18 90.6 135.27 90.6 135.27 89.21 129.57 89.21 129.57 90.6 131.67 90.6 131.67 96.09 133.18 96.09"/><rect class="cls-3" x="139.04" y="92.33" width="3.03" height="1.43"/><path class="cls-3" d="M150.66,95.97c.32-.08,.59-.2,.81-.35,.23-.16,.4-.35,.52-.59,.12-.23,.18-.51,.18-.83v-.02c0-.46-.11-.82-.34-1.08-.23-.26-.54-.46-.94-.61,.12-.07,.24-.15,.35-.24,.11-.09,.2-.2,.28-.32,.08-.12,.15-.26,.2-.41s.07-.32,.07-.52v-.02c0-.47-.16-.86-.47-1.17-.41-.41-1.01-.61-1.8-.61h-3.19v6.88h3.27c.39,0,.74-.04,1.05-.12Zm-2.85-5.44h1.49c.32,0,.57,.06,.73,.18,.17,.12,.26,.3,.26,.52v.02c0,.26-.1,.44-.29,.55-.2,.11-.46,.17-.8,.17h-1.39v-1.46Zm0,2.71h1.75c.39,0,.68,.07,.86,.2,.18,.13,.26,.31,.26,.55v.02c0,.26-.1,.44-.29,.57-.19,.12-.45,.18-.79,.18h-1.8v-1.51Z"/><path class="cls-3" d="M152.84,96.09h1.54l.63-1.54h2.91l.63,1.54h1.58l-2.95-6.93h-1.4l-2.95,6.93Zm4.54-2.88h-1.83l.91-2.23,.91,2.23Z"/><path class="cls-3" d="M166.94,91.5v-.02c0-.66-.2-1.18-.59-1.57-.47-.47-1.14-.7-2.01-.7h-3.15v6.88h1.51v-2.2h1.19l1.48,2.2h1.77l-1.68-2.46c.44-.16,.79-.42,1.07-.77,.27-.35,.41-.81,.41-1.36Zm-1.53,.08c0,.29-.1,.53-.3,.71-.2,.18-.49,.26-.86,.26h-1.53v-1.98h1.5c.37,0,.67,.08,.88,.25,.21,.16,.31,.41,.31,.74v.02Z"/><rect class="cls-3" x="170.92" y="92.33" width="3.03" height="1.43"/><path class="cls-3" d="M182.54,95.97c.32-.08,.59-.2,.81-.35,.23-.16,.4-.35,.52-.59,.12-.23,.18-.51,.18-.83v-.02c0-.46-.11-.82-.34-1.08-.23-.26-.54-.46-.94-.61,.12-.07,.24-.15,.35-.24,.11-.09,.2-.2,.28-.32,.08-.12,.15-.26,.2-.41s.07-.32,.07-.52v-.02c0-.47-.16-.86-.47-1.17-.41-.41-1.01-.61-1.8-.61h-3.19v6.88h3.27c.39,0,.74-.04,1.05-.12Zm-2.85-5.44h1.49c.32,0,.57,.06,.74,.18,.17,.12,.26,.3,.26,.52v.02c0,.26-.1,.44-.29,.55-.2,.11-.46,.17-.8,.17h-1.39v-1.46Zm0,2.71h1.75c.39,0,.68,.07,.86,.2,.18,.13,.26,.31,.26,.55v.02c0,.26-.1,.44-.29,.57-.19,.12-.45,.18-.79,.18h-1.8v-1.51Z"/><path class="cls-3" d="M184.72,96.09h1.54l.63-1.54h2.91l.63,1.54h1.58l-2.95-6.93h-1.4l-2.95,6.93Zm4.54-2.88h-1.83l.91-2.23,.91,2.23Z"/><rect class="cls-3" x="193.15" y="89.21" width="1.51" height="6.88"/><polygon class="cls-3" points="197.78 89.21 196.38 89.21 196.38 96.09 197.87 96.09 197.87 91.72 201.21 96.09 202.5 96.09 202.5 89.21 201 89.21 201 93.45 197.78 89.21"/><path class="cls-3" d="M212.42,90.19c-.33-.31-.71-.55-1.16-.72-.45-.17-.94-.26-1.48-.26h-2.68v6.88h2.68c.54,0,1.03-.09,1.48-.27,.45-.18,.83-.42,1.16-.73,.32-.31,.57-.67,.75-1.09,.18-.42,.27-.87,.27-1.36v-.02c0-.49-.09-.94-.27-1.35-.18-.42-.43-.78-.75-1.09Zm-.57,2.48c0,.31-.05,.59-.15,.83-.1,.25-.24,.47-.42,.65-.18,.18-.4,.32-.65,.42-.26,.1-.54,.15-.85,.15h-1.17v-4.15h1.17c.31,0,.59,.05,.85,.15,.26,.1,.47,.24,.65,.43,.18,.18,.32,.4,.42,.66,.1,.26,.15,.53,.15,.83v.02Z"/><polygon class="cls-3" points="219.96 90.56 219.96 89.21 214.78 89.21 214.78 96.09 220.01 96.09 220.01 94.74 216.27 94.74 216.27 93.3 219.52 93.3 219.52 91.95 216.27 91.95 216.27 90.56 219.96 90.56"/><path class="cls-3" d="M227.53,94.68c-.17,.12-.42,.17-.73,.17-.39,0-.76-.08-1.09-.23-.33-.15-.65-.35-.97-.61l-.89,1.07c.41,.37,.87,.65,1.38,.83,.51,.18,1.02,.27,1.54,.27,.37,0,.71-.05,1.02-.14,.31-.1,.57-.23,.79-.41,.22-.18,.39-.4,.52-.67,.12-.26,.18-.57,.18-.91v-.02c0-.3-.05-.56-.14-.78-.1-.22-.24-.41-.42-.57-.19-.16-.42-.3-.69-.41-.27-.11-.58-.22-.93-.31-.3-.08-.54-.15-.73-.21s-.35-.12-.46-.19c-.11-.07-.19-.14-.23-.22-.04-.08-.07-.18-.07-.29v-.02c0-.17,.08-.31,.22-.43,.15-.12,.37-.17,.66-.17s.59,.06,.88,.18c.29,.12,.6,.29,.91,.5l.79-1.14c-.35-.28-.74-.5-1.17-.65s-.89-.23-1.39-.23c-.35,0-.68,.05-.97,.15-.29,.1-.55,.24-.76,.42-.21,.18-.37,.4-.49,.65-.12,.25-.18,.53-.18,.85v.02c0,.34,.05,.62,.16,.86,.11,.23,.26,.42,.46,.57,.2,.15,.44,.28,.72,.39,.28,.1,.6,.2,.95,.29,.29,.07,.52,.14,.7,.21,.18,.07,.32,.13,.42,.2,.1,.07,.17,.13,.21,.21,.04,.08,.05,.16,.05,.26v.02c0,.2-.09,.36-.26,.47Z"/><path class="cls-3" d="M235.43,89.37c-.45-.19-.94-.28-1.47-.28s-1.02,.09-1.47,.28c-.45,.19-.84,.44-1.16,.77-.32,.32-.58,.7-.76,1.13-.18,.43-.28,.89-.28,1.38v.02c0,.49,.09,.95,.27,1.38,.18,.43,.43,.8,.76,1.12,.32,.32,.71,.57,1.15,.76,.44,.19,.93,.28,1.46,.28s1.02-.09,1.47-.28c.45-.19,.83-.44,1.16-.77,.32-.32,.58-.7,.76-1.13,.18-.43,.28-.89,.28-1.38v-.02c0-.49-.09-.95-.27-1.38-.18-.43-.43-.8-.76-1.12-.32-.32-.71-.57-1.15-.75Zm.6,3.3c0,.29-.05,.57-.15,.83-.1,.26-.24,.49-.42,.68-.18,.2-.4,.35-.65,.46-.26,.11-.53,.17-.84,.17s-.59-.06-.84-.17c-.25-.12-.47-.27-.66-.47-.18-.2-.33-.43-.43-.69s-.15-.54-.15-.83v-.02c0-.29,.05-.57,.15-.83,.1-.26,.24-.49,.42-.68,.18-.2,.4-.35,.65-.46,.25-.11,.53-.17,.84-.17s.58,.06,.83,.17c.26,.11,.48,.27,.66,.47s.33,.43,.43,.69,.15,.54,.15,.83v.02Z"/><polygon class="cls-3" points="238.96 89.21 238.96 96.09 243.9 96.09 243.9 94.72 240.47 94.72 240.47 89.21 238.96 89.21"/><polygon class="cls-3" points="250.27 94.74 246.54 94.74 246.54 93.3 249.78 93.3 249.78 91.95 246.54 91.95 246.54 90.56 250.22 90.56 250.22 89.21 245.04 89.21 245.04 96.09 250.27 96.09 250.27 94.74"/><rect class="cls-3" x="251.7" y="89.21" width="1.51" height="6.88"/><polygon class="cls-3" points="259.88 94.72 256.45 94.72 256.45 89.21 254.93 89.21 254.93 96.09 259.88 96.09 259.88 94.72"/><rect class="cls-2" x="143.3" y="74.1" width="6.88" height="5.76"/><rect class="cls-2" x="143.3" y="63.9" width="6.88" height="8.93"/><rect class="cls-2" x="175.57" y="74.1" width="6.88" height="5.76"/><rect class="cls-2" x="175.57" y="63.9" width="6.88" height="8.93"/><path class="cls-1" d="M123.14,147.18c.12-1.64,.17-3.71,.17-6.18,0-2.48-.06-5.4-.18-8.76-.12-3.36-.18-6.29-.18-8.79,0-2.5,.06-4.6,.18-6.29,.04-.63,.09-1.25,.13-1.85,.04-.61,.11-1.22,.21-1.85-.36-1.34-1.3-2.06-2.81-2.16-2.17-.05-3.42,.76-3.74,2.44-.16,.81-.3,1.66-.41,2.56-.11,.89-.2,1.82-.27,2.79-.12,1.64-.16,3.68-.13,6.11,.03,2.43,.13,5.33,.3,8.69,.17,3.36,.28,6.25,.34,8.66,.06,2.41,.03,4.44-.09,6.08-.04,.63-.1,1.25-.17,1.85-.07,.6-.15,1.22-.24,1.84,.44,.95,1.26,1.47,2.47,1.56,.64,.04,1.34-.09,2.05-.31,.79-.34,.78-.77,1.4-1.73,.51-.79,.78-2.72,.88-3.68,.03-.32,.06-.63,.08-.96Z"/><path class="cls-1" d="M133.76,21.61c1.32-1.38,2.65-2.76,4.04-2.76,1.46,0,2.87,1.38,4.27,2.75,1.3,1.28,2.61,2.56,3.84,2.56,1.31,0,2.68-1.28,4.05-2.57,1.46-1.37,2.93-2.74,4.46-2.74h.03c1.81,.02,4.15,2.01,5.99,3.58,1.13,.96,2.07,1.76,2.41,1.74,.34,.01,1.27-.78,2.41-1.74,1.84-1.56,4.18-3.56,5.99-3.58h.03c1.53,0,2.99,1.37,4.46,2.74,1.37,1.28,2.74,2.57,4.05,2.57,1.24,0,2.54-1.28,3.84-2.56,1.4-1.38,2.8-2.75,4.27-2.75s2.72,1.38,4.04,2.76c1.22,1.27,2.45,2.55,3.6,2.55,.24,0,.49-.05,.74-.13l-9.61-7.15c-.86,.46-1.73,1.29-2.61,2.15-1.4,1.38-2.8,2.75-4.27,2.75s-2.99-1.37-4.46-2.74c-1.37-1.28-2.74-2.57-4.05-2.57h-.03c-1.6,.02-3.84,1.93-5.61,3.43-1.19,1.01-2.18,1.85-2.76,1.89h0s-.03,0-.04,0-.03,0-.04,0h0c-.58-.04-1.56-.88-2.76-1.89-1.76-1.5-4.01-3.41-5.61-3.43h-.03c-1.31,0-2.68,1.29-4.05,2.57-1.46,1.37-2.93,2.74-4.46,2.74s-2.87-1.38-4.27-2.75c-.85-.83-1.7-1.63-2.53-2.1l-9.69,7.1c.25,.08,.49,.13,.74,.13,1.15,0,2.38-1.28,3.6-2.55Z"/><path class="cls-2" d="M86.57,47.76c.1-.02,.21-.03,.31-.05,0,0,7.61-1.73,12.39,.91h0c.13,.07,.26,.13,.39,.2,.02,.01,.04,.02,.06,.03h0s.03,.01,.05,.02h0c.2,.08,.42,.08,.61,.02h0s.07-.03,.1-.04h.01c1.2-.58,2.48-1.06,3.8-1.44,0,0,3.11-1.15,8.07-1.23h0v32.76c0,.52,.42,.93,.93,.93s.93-.42,.93-.93V46.19c1.17,.05,2.41,.15,3.72,.34,.48,.07,.95,.14,1.42,.23h0c.46,.09,.92,.19,1.39,.29,.78,.18,1.46,.37,2.03,.56,1.14,.36,2.24,.8,3.29,1.31,.22,.11,.49,.13,.74,.04h0s.03-.01,.04-.02h0s.05-.02,.07-.03c.45-.23,.9-.44,1.35-.61,.07-.03,.14-.05,.21-.08v11.09h-8.18c-1.27,0-2.3,1.03-2.3,2.3,0,1,.64,1.85,1.53,2.16v15.06c0,.56,.46,1.02,1.02,1.02s1.02-.46,1.02-1.02v-4.72h6.88v4.72c0,.36,.18,.67,.46,.85,.16,.12,.37,.19,.59,.19h11.73v-16.09c-.89-.32-1.53-1.16-1.53-2.16,0-1.27,1.03-2.3,2.29-2.3h9.43c1.27,0,2.29,1.03,2.29,2.3,0,1-.64,1.85-1.53,2.16v16.09h21.32v-16.09c-.89-.32-1.53-1.16-1.53-2.16,0-1.27,1.03-2.3,2.3-2.3h9.43c1.27,0,2.3,1.03,2.3,2.3,0,1-.64,1.85-1.53,2.16v16.09h11.73c.56,0,1.02-.46,1.02-1.02v-4.74h6.8v4.72c0,.56,.46,1.02,1.02,1.02s1.02-.46,1.02-1.02v-15.06c.89-.32,1.53-1.16,1.53-2.16,0-1.27-1.03-2.3-2.3-2.3h-8.08v-11.09c.07,.03,.14,.05,.21,.08,.45,.18,.91,.38,1.35,.61,.02,.01,.05,.02,.07,.03h0l.04,.02h0c.25,.1,.52,.08,.74-.03,1.04-.51,2.14-.94,3.29-1.31,.58-.19,1.25-.38,2.03-.56,.47-.11,.93-.2,1.39-.29h0c.47-.09,.94-.17,1.42-.23,1.31-.19,2.55-.3,3.71-.34v32.74c0,.52,.42,.93,.94,.93s.93-.42,.93-.93V46.17h0c4.96,.08,8.07,1.22,8.07,1.22,1.32,.39,2.6,.86,3.8,1.44h.01s.07,.03,.1,.05h0c.19,.06,.41,.06,.61-.02h0s.03-.01,.05-.02h0s.04-.02,.06-.03c.13-.07,.26-.13,.39-.2h0c4.78-2.64,12.39-.91,12.39-.91,.1,.02,.21,.03,.31,.05,.38,.06,.75-.12,.94-.46,.19-.33,.16-.75-.09-1.04-6.67-8.16-16.58-13.21-26.67-13.62h0c0-.51-.42-.92-.93-.92-.51,0-.92,.42-.92,.93h0c-4.95,.31-9.82,1.66-14.27,3.88v-6.77h2.81c1.24,0,1.74-1.41,.92-2.2l-3.02-2.25c-.81,.52-1.61,.92-2.44,.92-1.39,0-2.72-1.38-4.04-2.76-1.22-1.27-2.45-2.55-3.6-2.55-1.24,0-2.54,1.28-3.84,2.56-1.4,1.38-2.8,2.75-4.27,2.75s-2.99-1.37-4.45-2.74c-1.37-1.28-2.74-2.57-4.05-2.57h-.02c-1.6,.02-3.85,1.93-5.61,3.43-1.19,1.01-2.18,1.85-2.75,1.89h0s-.03,0-.04,0c-.01,0-.02,0-.04,0h0c-.58-.04-1.56-.88-2.76-1.89-1.77-1.5-4.01-3.41-5.61-3.43h-.02c-1.3,0-2.68,1.29-4.05,2.57-1.46,1.37-2.93,2.74-4.45,2.74s-2.87-1.38-4.27-2.75c-1.3-1.28-2.61-2.56-3.85-2.56-1.15,0-2.37,1.28-3.6,2.55-1.32,1.38-2.65,2.76-4.04,2.76-.83,0-1.65-.4-2.45-.93l-3.01,2.2c-.89,.78-.39,2.25,.88,2.25h2.91v6.77c-4.44-2.22-9.31-3.56-14.26-3.87h0c0-.52-.41-.94-.92-.94-.51,0-.93,.41-.93,.92h0c-10.1,.42-20.01,5.46-26.67,13.62-.24,.3-.28,.71-.09,1.04,.19,.33,.57,.51,.94,.46Zm41.91,25.07h-6.88v-8.93h6.88v8.93Zm68.77-8.93h6.8v8.93h-6.8v-8.93Zm-9.31-34.16h7.27v7.87c-2.63,1.52-5.08,3.35-7.27,5.46v-13.33Zm0,17.79c1.36-.18,3.34-.34,5.59-.13,.12,.01,.24,.02,.35,.04,.44,.05,.89,.12,1.33,.21v6.47l-7.27-3v-3.58Zm-34.96-17.79h19.8v5.5c-1.44-1.42-3.39-2.32-4.93-2.32h-.02c-.73,0-1.21,.81-.94,1.55,.44,1.15,.73,2.5,.83,3.97,.02,.25-.17,.47-.4,.47h-.79c-.2,0-.37-.16-.39-.38-.29-2.35-1.56-4.12-3.08-4.12h0c-.16,0-.21,.36-.06,.48,.87,.66,1.52,1.95,1.74,3.51,.04,.26-.15,.5-.39,.5h-.68c-.2,0-.36-.16-.39-.37-.28-2.07-1.41-3.62-2.77-3.62h0c-.15,0-.19,.33-.06,.43,.76,.58,1.34,1.69,1.55,3.04,.04,.27-.14,.52-.39,.52h-.67c-.19,0-.36-.16-.39-.36-.27-1.86-1.3-3.24-2.52-3.24h0c-.13,0-.17,.3-.05,.39,.68,.52,1.2,1.49,1.4,2.69,.05,.27-.14,.52-.39,.52h-.54c-.19,0-.36-.15-.39-.36-.27-1.63-1.18-2.83-2.26-2.83h0c-.12,0-.16,.27-.05,.36,.59,.45,1.04,1.28,1.24,2.3,.05,.27-.13,.53-.39,.53h-.93c-.18,0-.34-.14-.39-.33-.29-1.25-1.13-2.3-2.26-2.87v-5.97Zm18.12,6.95c0,.45-.33,.81-.74,.81s-.74-.36-.74-.81,.33-.81,.74-.81,.74,.36,.74,.81Zm-32.01,11.06c.41,.08,.64,.14,.64,.14,.1,.02,.21,.03,.31,.05,.16,.03,.31,0,.46-.04,.2-.07,.38-.21,.49-.41,.19-.33,.16-.75-.08-1.04-.58-.72-1.19-1.42-1.82-2.09v-14.61h13.26v5.72c-.41-.13-.85-.2-1.3-.2h0c-.22,0-.29,.31-.09,.4,1.47,.68,2.49,2.16,2.49,3.88s-1.02,3.2-2.49,3.88c-.2,.09-.14,.4,.09,.4h.04c2.03-.01,3.74-1.43,4.17-3.32,.05-.2,.2-.33,.39-.33h.93c.26,0,.44,.26,.39,.53-.2,1.02-.65,1.86-1.25,2.3-.11,.08-.07,.35,.05,.35h.02c1.07,0,1.98-1.21,2.24-2.83,.04-.21,.2-.36,.39-.36h.54c.25,0,.44,.25,.39,.52-.21,1.2-.73,2.18-1.4,2.69-.12,.09-.08,.39,.05,.39h.02c1.21-.01,2.24-1.39,2.51-3.24,.03-.21,.2-.36,.39-.36h.67c.25,0,.43,.25,.39,.52-.21,1.35-.79,2.47-1.55,3.05-.13,.1-.09,.43,.05,.43h.03c1.34-.01,2.47-1.56,2.75-3.62,.03-.21,.2-.37,.39-.37h.68c.24,0,.43,.24,.39,.5-.21,1.56-.87,2.86-1.74,3.52-.15,.11-.1,.47,.06,.47h.03c1.51-.01,2.78-1.79,3.06-4.12,.03-.21,.2-.37,.39-.37h.8c.23,0,.42,.21,.4,.47-.1,1.46-.39,2.82-.83,3.97-.28,.74,.21,1.55,.94,1.55h.02c2.78,0,6.94-2.96,6.94-6.61,0-1.32-.55-2.55-1.37-3.58v-6.21h13.25v14.62c-.63,.67-1.24,1.37-1.82,2.09-.24,.3-.27,.71-.08,1.04,.11,.19,.29,.33,.49,.41,.15,.05,.3,.07,.46,.04,.1-.02,.21-.03,.31-.05,0,0,.23-.06,.64-.14v3.16h-47.58v-3.16Zm-8.55-18h7.27v13.32c-2.19-2.11-4.64-3.94-7.27-5.46v-7.87Zm0,17.91c.45-.09,.89-.16,1.34-.21,.11-.01,.23-.03,.35-.04,2.24-.2,4.22-.05,5.59,.13v3.58l-7.27,3v-6.47Z"/><path class="cls-2" d="M141.35,16.47c.24,.23,.48,.46,.72,.7,1.3,1.28,2.61,2.56,3.84,2.56,1.31,0,2.68-1.28,4.05-2.57,.25-.23,.5-.46,.75-.69,4.61-3.62,7.87,0,7.87,0,.64,.5,1.27,1.03,1.85,1.52,1.13,.97,2.07,1.76,2.41,1.74,.34,.02,1.27-.78,2.41-1.74,.58-.49,1.21-1.02,1.85-1.52,4.22-3.72,7.87,0,7.87,0,.25,.23,.5,.45,.75,.69,1.37,1.28,2.74,2.57,4.05,2.57,1.24,0,2.54-1.28,3.84-2.56,.24-.24,.48-.47,.72-.7,.28-.27,.58-.48,.87-.66L165.5,1.15c-.52-.34-.88-.58-.92-.62-1.5-1.21-2.99,.03-2.99,.03l-1.08,.71-19.91,14.58c.44,.3,.75,.62,.75,.62Z"/><path class="cls-1" d="M237.13,107.98c-.56-.08-1.19,0-1.88,.2-.61,.19-1.24,.39-1.86,.61-.09,0-.16,.03-.24,.06-.34,.12-1.1,.61-1.34,2.74-.34,1.61-1.06,10.58-1.66,14.53-.38,2.47-.73,4.8-.99,6.3l-.15,.9c-.43,2.51-.8,4.68-1.11,6.5-.34,2.03-.65,3.66-.9,4.87-.57,2.71-1.16,5.13-1.77,7.22-.11,.43-.34,1.05-.67,1.82-.35,.81-1.07,1.06-1.62,1.02-.54-.04-1.21-.39-1.47-1.23-.56-1.8-.95-3.83-1.16-6.03-.07-.71-.12-2.04-.15-3.96-.03-1.89-.05-4.41-.04-7.7-.03-2.48-.02-2.28-.22-4.22-.09-.86-.03-1.42,.04-1.96,.07-.61,.14-1.2-.06-2.01,0-.02-.01-.04-.02-.06-.17-.49-.29-1.19-.02-3.69,.23-2.19,.21-3.73-.08-4.68-.23-1.12-.96-2.5-3.15-2.8-2.05-.29-3.68,.17-4.86,1.35-.01,.01-.03,.03-.04,.05-.7,.87-.6,2.68-.49,4.77,.04,.75,.08,1.54,.08,2.25,0,.98-.13,1.47-.25,2.41-.17,1.44-.35,2.92-.21,4.97,.35,4.36,.46,5.44,.61,8.02,.15,2.64,.23,4.37,.25,5.27,.06,5.98,.87,9.6,3.2,14.35,1.3,2.82,3.84,4.51,7.54,5.03,.59,.08,1.23,.09,1.88,.02,2.23-.24,4.66-1.4,6.18-3.79,3.2-4.99,4.15-9.01,5.55-15.68,.41-1.94,.7-4.26,.86-6.89,.16-2.57,.55-5.34,1.16-8.22h0c.04-.13,.07-.27,.1-.4,.06-.26,.13-.64,.23-1.1,.19-.92,.44-2.17,.7-3.51,.43-2.19,1.02-9.56,1.34-11.08,.42-1.98,.27-3.52-.42-4.6-.59-.91-1.57-1.47-2.9-1.65Z"/><path class="cls-1" d="M39.59,175.3c-.62-.14-1.47-.32-2.59-.54-1.02-.2-1.87-.41-2.51-.62-1.85-.63-3.25-1.25-4.16-1.86-.92-.61-1.88-1.27-2.85-1.95-.96-.68-2.1-1.52-3.39-2.52l-.33-.25c-3.8-2.96-6.85-6.46-9.08-10.41-1.89-3.34-3.05-6.73-3.46-10.08-.38-3.16-.43-6.1-.12-8.72,.3-2.64,.84-5.03,1.59-7.13,.75-2.09,1.68-3.95,2.77-5.53,1.09-1.59,2.24-2.96,3.41-4.07,2.22-2.09,4.21-3.46,5.92-4.08,.75-.27,1.58-.66,2.38-1.03,1.14-.53,2.33-1.08,3.35-1.34,1.52-.44,2.56-1.16,3.09-2.14,.51-.94,.7-1.96,.57-3.03-.13-1.06-.42-2.24-1.57-2.93-2.01-1.21-4.08-1.13-6.38-.92-2.71,.25-6.11,2.27-9.09,4.21-3.13,2.04-6.45,5.14-9.88,9.21-2.26,2.66-4.18,6.21-5.7,10.55-1.53,4.35-1.94,9.5-1.24,15.3,.28,2.28,.78,5.06,1.49,8.26,.71,3.23,2.27,6.25,3.93,9.45l.09,.17c.86,1.7,2.42,3.65,4.62,5.79l.57,.55c1.99,1.95,4.05,3.96,6.78,5.76,2.96,1.95,6.21,3.67,9.66,5.11,3.36,1.41,5.66,2.29,9.21,2.6h.02s.01,0,.02,0l1.57,.02c1.93-.06,2.43-.38,3.27-1.51,.84-1.14,1.17-2.22,1.02-3.41-.19-1.57-1.17-2.54-2.98-2.94Z"/><path class="cls-1" d="M59.41,170.54c-.17-.76-.32-1.54-.45-2.32-.05-.25-.15-.79-.27-1.44-.26-1.35-.61-3.21-.69-3.79-.21-1.54-.71-5.58-.88-8.27-.16-2.6-.28-5.47-.36-8.5-.08-3.06-.16-6.21-.23-9.47-.07-3.26-.15-6.36-.21-9.3-.03-1.43-.02-3.97-.01-6.43,0-2.68,.02-5.21-.02-6.44-.05-1.77-.15-2.59-.25-3.45-.04-.3-.07-.6-.11-.95-.23-2.36-1.41-2.67-2.19-2.87l-.07-.02c-.82-.21-1.43-.22-2.61-.05l-.8,.12c-1.19,.25-1.81,1.5-1.84,3.73,.08,4.62-.08,13.56-.17,17.65-.04,1.61,.03,3.14,.09,4.61,.07,1.57,.13,3.04,.06,4.46-.02,.4-.33,.75-.73,.82l-2.87,.51-1.03,.15c-1.48,.22-2.61,.27-3.39,.15-.39-.06-.85-.25-.98-1.2-.1-.72-.16-1.58-.19-2.57-.03-1.04-.06-2.07-.09-3.11-.01-.37-.02-.68-.03-.97-.02-.52-.04-.97-.04-1.55-.01-.95-.05-1.63-.11-2.09-.09-.61-.21-1.26-.36-1.94-.16-.69-.37-1.34-.64-1.92-.28-.61-.63-1.13-1.05-1.55-.46-.45-1.02-.73-1.7-.84l-1.63-.17c-.88-.09-1.75,0-2.61,.29-.86,.29-1.29,.99-1.16,1.91l.14,.99c.2,1.42,.36,3.2,.48,5.29,.03,.59,.07,1.16,.1,1.73,.09,1.45,.18,2.95,.25,4.68,.1,2.34,.16,4.79,.19,7.26,.02,2.6,.06,4.82,.12,6.79,.03,1.09,.07,1.9,.1,2.65,.03,.68,.06,1.3,.08,2.03,.02,.62,.02,1.05,.02,1.39,0,.51,0,.82,.06,1.22,.02,.17,.06,.56,.07,1.4,.01,.71,.15,2.35,.21,2.83,.15,1.08,.46,1.95,.91,2.58,.44,.63,.96,1.11,1.54,1.44,.58,.33,1.2,.52,1.85,.55,.6,.03,1.17,0,1.75-.08,.42-.06,1.54-.23,2.14-1.05,.33-.46,.44-1.02,.33-1.67-.63-3.64-.63-5.7-.63-8.3,0-.42,0-.86,0-1.33-.02-2.67,.08-5.02,.29-6.97,.07-.61,.49-1.1,1.07-1.26,.33-.09,.68-.16,1.04-.21,.12-.02,.41-.05,1.09-.04,.55,0,1.14,0,1.75,0h.02l1.73-.09c.44-.02,.86,.13,1.18,.42,.32,.29,.51,.69,.54,1.15,.05,.94,.09,1.94,.12,3.05,.03,1.06,.07,2.08,.12,3.03,.05,.95,.1,1.66,.17,2.14,.04,.3,.09,.71,.14,1.3,.05,.56,.1,1.16,.16,1.8,.03,.34,.13,1.15,.24,1.93,.09,.73,.19,1.49,.21,1.75,.05,.55,.1,1,.15,1.36,.29,2.12,1.55,6.96,2.8,8.27,.85,.89,2.03,1.37,3.54,1.44,.6,.03,1.26-.01,1.96-.12,.58-.09,1.03-.43,1.32-.98,.26-.5,.36-1.01,.29-1.51,0-.01,0-.03,0-.04Z"/><path class="cls-1" d="M115.37,161.24c-.61-.7-.88-1.1-1.14-1.48-.39-.57-.73-1.07-2.01-2.33l-10.34-10.11-2.98-2.62c-.66-.56-1.13-.99-1.4-1.27-.18-.19-.26-.42-.26-.72,0-.23,.09-.42,.29-.61,.27-.25,.67-.54,1.22-.85,2.66-1.7,5.01-3.96,6.97-6.71,2.24-3.11,3.38-6.28,3.39-9.42,0-3.85-1.18-7.36-3.53-10.41-2.57-3.49-5.66-5.33-9.2-5.48h-1.37c-6.03,0-9.43,2-10.11,5.97-.51,3.1-.81,6.51-.92,10.14-.1,3.66-.16,7.74-.17,12.11l-.03,10.55c0,2.54-.12,4.95-.34,7.16-.22,2.19-.02,2.76-.15,4.64l-.1,1.96h0l.11,1.94s0,.04,0,.06c0,3.5,1.51,5.68,4.51,6.46,.03,0,.06,.01,.09,.02,.14,.07,.28,.1,.42,.1,.6,0,1.19-.17,1.79-.52,.75-.43,1.29-1.16,1.48-1.99,.69-2.93,.29-3.78,.56-8.21l.25-7.11c.05-.62,.09-1.18,.13-1.7,.03-.33,.23-.6,.54-.71,.31-.11,.64-.04,.87,.19,.88,.87,1.87,1.89,2.93,3.01,1.94,2.06,4.35,4.68,7.15,7.79l1.18,1.34c3.24,3.69,5.02,5.72,7.2,7.62,1.21,1.06,2.9,1.33,4.33,.69,1.78-.79,2.68-1.86,2.68-3.17,0-.36-.12-.75-.35-1.14-.88-1.64-2.12-3.39-3.69-5.19Zm-20.07-27.87c-.45,.39-1.07,.71-1.48,.46-.37-.23-.55-.55-.57-.98,0-.22-.02-.44-.03-.67l-.02-.29c-.03-.52-.06-1.1-.06-1.71-.18-3.52-.27-5.63-.26-6.45,0-.88,.05-1.79,.14-2.7,.06-.55,.12-.92,.19-1.34l.07-.41c.07-.42,.21-.77,.42-1.04,.32-.41,.91-.91,1.89-.91h0c1.8,0,3.11,.49,3.89,1.45,.82,1,1.32,2.13,1.5,3.36v.73c0,.32-.02,.66-.05,1.02-.03,.37-.08,.77-.14,1.2-.58,3.14-1.97,5.23-5.51,8.29Z"/><path class="cls-1" d="M280.79,116.54c1.54,.13,4.12,.35,4.7,.5,.05,.01,.09,.02,.14,.02l3.29,.19c2.09,.09,4.79-.06,7.13-2.14,.02-.02,.04-.04,.06-.06,.06-.07,1.58-1.8,1.14-3.73-.3-1.27-1.34-2.25-3.1-2.91-.97-.36-7.82-1.16-7.89-1.16-1.86-.21-7.82-.6-9.02-.67-1.24-.07-9.14-.64-9.24-.65-.37-.02-.76-.03-1.17-.04-1.93-.05-4.11-.12-5.78-.78-.03-.01-.05-.02-.08-.03-.18-.05-.56-.18-1.31-.5-.63-.27-1.28-.56-1.96-.86-1.25-.57-2.53-.9-3.8-.95-.2,0-.42,0-.64,.04-.14,.02-.27,.03-.38,.02-.2,0-2.02-.04-3.08,1.05-.49,.5-.74,1.17-.72,1.94,.07,3.53,1.38,4.77,2.46,5.18,.86,.34,2.01,.55,3.22,.76,1.18,.21,2.4,.42,3.58,.79,1.28,.4,2.73,.7,4.41,1.06,.92,.19,1.87,.39,2.89,.63,1.04,.24,1.74,1.27,1.63,2.4-.79,8.27-1.54,15.48-2.23,21.42-.49,4.25-.95,6.65-1.44,9.2-.31,1.65-.64,3.36-.99,5.66-.17,1.13-.28,1.58-.39,2.06-.11,.46-.22,.93-.39,1.95-.18,1.1-.51,2.6-.82,4.05-.29,1.33-.56,2.59-.75,3.63l-.16,1.03c-.07,.45-.11,.83-.13,1.15-.02,.34-.03,.66-.02,.96,0,.02,0,.04,0,.06,.2,2.03,1.49,2.31,2.07,2.33,.09,0,.17,0,.26,0,1.63-.09,3.11-.98,4.39-2.65,1.27-1.66,2.14-3.57,2.57-5.67,.22-1.01,.47-1.89,.71-2.74,.36-1.24,.73-2.53,.99-4.24,.19-1.22,.38-2.31,.58-3.46,.53-3.06,1.14-6.53,1.9-13.75,.42-4.07,.84-7.81,1.23-11.1,.41-3.38,.79-6.16,1.15-8.51,.13-.99,.94-1.72,1.88-1.68l1.36,.06c.29,.04,.95,.09,1.76,.16Z"/><path class="cls-1" d="M322.84,144c-.64-4.2-1.65-8.27-3-12.09-1.35-3.83-3.05-7.15-5.06-9.87-2.1-2.84-4.48-4.34-7.08-4.45-.39-.02-.69,.06-.94,.12-.05,.01-.11,.03-.17,.04-.04,0-.08,.02-.11,.03-1.01,.4-3.42,1.57-4.02,3.92-.17,.65-1.77,.79-3.46,.93-1.71,.15-3.83,.33-5.91,1.09-.68,.27-1.34,.6-1.98,.96-.09,.05-.18,.1-.27,.15-.18,.1-.39,.2-.6,.36-.01,0-.03,.02-.04,.03-1.12,.75-2.15,1.65-3.06,2.66-1.86,2.07-3.43,4.35-4.65,6.78-1.22,2.43-2.14,4.85-2.73,7.21-.59,2.39-.95,4.26-1.08,5.73-.26,2.84-.05,5.31,.61,7.34,.93,3.42,2.15,6.62,3.62,9.52,1.47,2.91,3.16,5.49,5,7.67,1.87,2.19,3.97,3.95,6.26,5.23,2.32,1.29,4.79,2,7.34,2.11,.3,.01,.61,.01,.93,0,1.6-.09,3.4-.55,5.35-1.38,2.33-.99,4.61-2.53,6.77-4.6,2.15-2.05,4.08-4.61,5.74-7.62,1.66-3.02,2.69-6.62,3.07-10.71,.29-3.19,.11-6.95-.54-11.17Zm-9.07,9.31c-.28,2.85-.93,5.45-1.92,7.71-1,2.29-2.12,4.26-3.34,5.86-1.2,1.59-2.4,2.81-3.56,3.62-1.51,1.07-2.12,1.13-2.27,1.12-1.7-.06-3.47-.85-5.25-2.34-1.85-1.54-3.52-3.52-4.97-5.88-1.45-2.37-2.61-4.99-3.45-7.79-.83-2.77-1.12-5.44-.87-7.92l.16-1.66c.93-4.4,2.09-7.98,3.46-10.63,.67-1.29,1.42-2.25,2.23-2.85,.04-.03,.08-.07,.11-.1,.82-.59,6.12-3.95,12.74,1.07,.03,.02,2.55,1.99,4.82,5.33l.09,.14c.07,.1,.12,.18,.17,.28,.04,.08,.07,.17,.11,.26,.04,.1,.08,.2,.13,.31,.04,.08,.08,.15,.12,.23,.03,.06,.07,.12,.09,.18v.04c.02,.06,.03,.12,.05,.18,0,.02,.01,.04,.02,.06,.39,1,.65,1.9,.84,2.85,.32,1.61,.52,3.35,.58,5.18,.06,1.83,.02,3.43-.11,4.75h0Z"/><path class="cls-1" d="M74.73,134.12c.01-.54,.02-1.05,.03-1.55v-.07h0v-10.06c0-1.94-1.17-3.65-3-4.36-.77-.27-1.4-.39-1.99-.37-.98,.03-1.78,.36-2.38,.98-.52,.54-.77,1.32-.69,2.13,.05,.5,.09,1,.12,1.49,.06,.8,.09,1.53,.12,2.23,.07,1.97,.04,4.44-.09,7.33-.05,1.19-.05,1.86-.06,2.5,0,.93,0,1.81-.17,4.21-.27,4.04-.46,7.59-.56,10.55-.1,2.95-.12,5.46-.05,7.46,.05,1.2,.11,2.35,.2,3.42,.09,1.07,.21,2.13,.35,3.15,.32,2.33,1.83,3.58,4.38,3.63,.86-.03,2.1-.16,2.86-.98,.47-.51,.69-1.22,.65-2.09-.02-.37-.05-.74-.08-1.1-.03-.39-.07-.77-.08-1.14l-.08-2.25c-.08-2.06-.08-4.62,0-7.6,.07-3.02,.22-6.6,.44-10.64,.13-2.42,.1-3.34,.07-4.31-.02-.66-.04-1.34,0-2.56Z"/><path class="cls-1" d="M254.19,122.63c-.68-.37-1.26-.59-1.81-.68-.96-.17-1.79-.04-2.47,.39-.68,.43-1.11,1.2-1.14,2.08-.02,.4-.04,.79-.06,1.17-.04,.62-.09,1.19-.15,1.74-.16,1.53-.47,3.43-.92,5.65-.19,.94-.27,1.47-.35,1.98-.11,.71-.21,1.38-.63,3.21-.71,3.12-1.3,5.87-1.73,8.18-.44,2.31-.75,4.29-.92,5.89-.1,.96-.17,1.89-.22,2.75-.05,.87-.06,1.74-.06,2.58,.01,1.53,.68,3.49,3.77,4.18h.04c.46,.09,.97,.15,1.47,.13,.59-.03,1.18-.19,1.65-.6,.35-.29,.78-.85,.87-1.84,.03-.31,.04-.61,.06-.91,.02-.3,.03-.59,.06-.86l.19-1.77c.17-1.61,.47-3.59,.88-5.9,.42-2.34,.96-5.11,1.62-8.22,.4-1.91,.49-2.64,.58-3.43,.06-.51,.12-1.03,.28-1.96,.08-.44,.15-.86,.22-1.27v-.02l1.17-7.86c.26-1.77-.69-3.61-2.41-4.6Z"/><path class="cls-1" d="M207.45,164.72l-2.96-11.61c-.59-2.4-.93-4.68-.99-6.79-.07-2.11,.03-4.1,.3-5.93,.12-.53,.09-1.11-.09-1.72l-.06-.21c-.28-1-.87-3.07-3.03-3.16-3.05-.13-4.64,1.57-4.68,1.62-.58,.56-.9,1.32-.97,2.25-.2,2.69-.6,3.4-.76,3.57-.01,.01-.02,.02-.03,.04-.8,1.02-1.56,2.01-2.29,2.96-4.37,5.68-7.82,10.17-10.92,11.2-.46,.15-1.1-.74-1.35-1.28l-.3-1.01c-1.04-3.54-1.04-7.82,.02-12.71,.83-4.14,1.89-7.99,3.13-11.42,.74-2.04,.43-1.75,1.31-3.58,.91-1.91,1.33-2.76,2.88-4.29,0,0,2.83-3.35,6.38,3.66,.88,1.73,3.02,2.56,4.93,1.79,1.91-.77,2.8-2.83,1.99-4.6-.44-.96-4.5-9.33-11.59-9.17,0,0-6.87-.14-11.7,9.85-4.42,9.13-5.43,16.12-5.99,24.92-.16,2.93,.03,5.32,.55,7.09,.67,2.28,1.88,4,3.59,5.12,3.04,2.09,5.95,2.8,8.65,2.11,.91-.24,1.6-.53,2.07-.89,3.54-2.32,6.67-5.15,9.29-8.41,.23-.28,.54-.24,.63-.22,.09,.02,.39,.11,.44,.45,.07,.43,.14,.85,.2,1.24,.19,1.15,.32,2.05,.41,2.76l1.17,5.24s0,.03,.01,.05c.77,2.62,2.62,4.11,5.48,4.4,.34,.04,.72,.03,1.12-.04,.18-.03,.37-.07,.57-.12,2.76-.71,2.81-2.3,2.59-3.17Z"/></g></svg>