<?xml version="1.0" encoding="UTF-8"?>
<svg id="Calque_2" data-name="Calque 2" xmlns="http://www.w3.org/2000/svg" viewBox="0 0 398.28 233.95">
  <defs>
    <style>
      .cls-1 {
        fill: #fff;
      }
    </style>
  </defs>
  <g id="Calque_1-2" data-name="Calque 1">
    <g>
      <path class="cls-1" d="M204.31,146.05l-2-.48c-.84-.19-1.57-.29-2.2-.29-1.89,0-2.91.64-3.05,1.93l-4.2,41.79c-1.33-2.89-2.75-6.26-4.26-10.11-1.51-3.85-3.07-7.9-4.67-12.13-1.61-4.43-3.12-8.22-4.52-11.36-1.4-3.14-2.66-5.71-3.78-7.7-1.12-.83-2.17-1.44-3.15-1.83-.98-.39-1.75-.58-2.31-.58-2.66,0-4.03.71-4.1,2.12l-2.21,25.81c-.84,10.21-1.26,18.71-1.26,25.52,0,3.98.1,7.74.31,11.27l.21,3.18c.21,1.28.77,2.05,1.68,2.31l2,.86c.7.39,1.33.58,1.89.58s1.08-.22,1.58-.67c1.19-.58,1.78-1.73,1.78-3.47v-.38c-.14-2.57-.25-5.09-.31-7.56-.07-2.47-.11-4.93-.11-7.37v-7.99c0-2.83.02-5.65.05-8.47.03-2.83.12-5.57.26-8.23.14-2.66.35-5.15.63-7.46.14-.9.45-1.35.95-1.35.21,0,.38.19.52.58,1.68,4.3,3.33,8.47,4.94,12.52,1.61,4.04,3.17,7.83,4.68,11.36,1.51,3.53,2.92,6.76,4.26,9.68,1.33,2.92,2.56,5.38,3.68,7.37,1.47,2.7,3.29,4.04,5.46,4.04,1.05,0,2.01-.37,2.89-1.11.88-.74,1.32-1.59,1.32-2.55-.14-1.22-.21-2.39-.21-3.52v-3.32c0-3.47.16-7.32.47-11.56.32-4.23.76-8.96,1.32-14.15l2.84-25.9c-.21-.64-.67-1.09-1.37-1.35Z"/>
      <path class="cls-1" d="M77.22,125c.36-.47.54-1.07.54-1.81v-.02c0-.87-.26-1.57-.78-2.09-.62-.62-1.51-.93-2.67-.93h-4.18v9.15h2.01v-2.93h1.58l1.96,2.93h2.35l-2.23-3.27c.58-.22,1.06-.56,1.42-1.02ZM75.73,123.3c0,.39-.13.7-.4.94-.27.24-.65.35-1.14.35h-2.04v-2.63h2c.5,0,.89.11,1.17.33.28.22.42.55.42.98v.03Z"/>
      <polygon class="cls-1" points="86.54 127.51 81.57 127.51 81.57 125.58 85.89 125.58 85.89 123.79 81.57 123.79 81.57 121.94 86.47 121.94 86.47 120.14 79.58 120.14 79.58 129.3 86.54 129.3 86.54 127.51"/>
      <path class="cls-1" d="M94.21,124.78c-.25-.21-.56-.4-.92-.55-.36-.15-.77-.29-1.24-.41-.39-.1-.72-.19-.98-.27-.26-.08-.46-.16-.61-.25-.15-.09-.25-.19-.31-.29-.06-.11-.09-.24-.09-.39v-.03c0-.23.1-.42.29-.57.2-.15.49-.23.88-.23s.79.08,1.18.24c.39.16.79.38,1.2.66l1.05-1.52c-.47-.37-.99-.66-1.55-.86-.56-.2-1.18-.3-1.85-.3-.47,0-.9.07-1.29.2-.39.13-.73.32-1.01.56-.28.25-.5.53-.66.87-.16.33-.23.71-.23,1.13v.03c0,.45.07.83.22,1.14.14.31.35.56.61.76.26.2.58.38.96.52.38.14.79.27,1.26.38.39.1.7.19.94.28.24.09.43.17.56.26.13.09.23.18.27.28.05.1.07.22.07.35v.03c0,.27-.12.48-.35.63-.23.15-.55.23-.97.23-.52,0-1-.1-1.44-.3-.44-.2-.87-.47-1.29-.81l-1.19,1.42c.55.5,1.16.87,1.83,1.11.67.24,1.36.36,2.05.36.5,0,.95-.06,1.36-.19.41-.13.76-.31,1.05-.55.29-.24.52-.54.69-.89.16-.35.24-.76.24-1.21v-.03c0-.4-.06-.75-.19-1.03-.13-.29-.31-.54-.56-.75Z"/>
      <polygon class="cls-1" points="103.64 120.14 96.06 120.14 96.06 122 98.84 122 98.84 129.3 100.85 129.3 100.85 122 103.64 122 103.64 120.14"/>
      <path class="cls-1" d="M111.16,127.24l.84,2.05h2.1l-3.92-9.21h-1.86l-3.92,9.21h2.05l.84-2.05h3.87ZM109.22,122.5l1.22,2.97h-2.43l1.22-2.97Z"/>
      <path class="cls-1" d="M115.37,120.14v5.23c0,1.35.35,2.37,1.06,3.05.71.68,1.67,1.02,2.9,1.02.61,0,1.17-.09,1.66-.26.5-.17.92-.43,1.27-.77.35-.35.62-.77.8-1.29.19-.51.28-1.12.28-1.82v-5.16h-2.01v5.24c0,.73-.17,1.28-.52,1.65s-.83.55-1.45.55-1.1-.19-1.45-.57c-.34-.38-.52-.95-.52-1.7v-5.17h-2.01Z"/>
      <path class="cls-1" d="M133.03,123.19v-.02c0-.87-.26-1.57-.78-2.09-.62-.62-1.51-.93-2.67-.93h-4.18v9.15h2.01v-2.93h1.58l1.96,2.93h2.35l-2.23-3.27c.58-.22,1.06-.56,1.42-1.02.36-.47.54-1.07.54-1.81ZM130.99,123.3c0,.39-.13.7-.4.94-.27.24-.65.35-1.14.35h-2.04v-2.63h2c.5,0,.89.11,1.17.33.28.22.42.55.42.98v.03Z"/>
      <path class="cls-1" d="M136.95,127.24h3.87l.84,2.05h2.1l-3.92-9.21h-1.86l-3.93,9.21h2.05l.84-2.05ZM138.88,122.5l1.22,2.97h-2.43l1.22-2.97Z"/>
      <polygon class="cls-1" points="151.32 125.78 147.03 120.14 145.17 120.14 145.17 129.3 147.16 129.3 147.16 123.48 151.59 129.3 153.3 129.3 153.3 120.14 151.32 120.14 151.32 125.78"/>
      <polygon class="cls-1" points="154.84 122 157.63 122 157.63 129.3 159.64 129.3 159.64 122 162.43 122 162.43 120.14 154.84 120.14 154.84 122"/>
      <rect class="cls-1" x="167.44" y="124.29" width="4.03" height="1.91"/>
      <path class="cls-1" d="M184.04,123.77c.11-.16.2-.34.26-.54.06-.2.1-.43.1-.69v-.03c0-.62-.21-1.14-.63-1.56-.54-.54-1.34-.81-2.39-.81h-4.24v9.15h4.35c.51,0,.98-.05,1.4-.16.42-.1.78-.26,1.08-.47.3-.21.53-.47.69-.78.16-.31.24-.68.24-1.1v-.02c0-.61-.15-1.09-.45-1.43-.3-.34-.72-.62-1.25-.81.16-.09.32-.19.46-.32.14-.12.27-.26.38-.43ZM179.11,121.91h1.99c.42,0,.75.08.98.24.23.16.34.39.34.7v.03c0,.34-.13.59-.39.74-.26.15-.62.23-1.06.23h-1.85v-1.93ZM182.92,126.54c0,.34-.13.59-.38.75-.25.16-.6.24-1.05.24h-2.39v-2.01h2.32c.52,0,.9.09,1.14.27.23.18.35.42.35.73v.02Z"/>
      <path class="cls-1" d="M192.56,127.24l.84,2.05h2.1l-3.92-9.21h-1.86l-3.93,9.21h2.05l.84-2.05h3.87ZM190.62,122.5l1.22,2.97h-2.43l1.22-2.97Z"/>
      <path class="cls-1" d="M204.55,123.19v-.02c0-.87-.26-1.57-.78-2.09-.62-.62-1.51-.93-2.67-.93h-4.18v9.15h2.01v-2.93h1.58l1.96,2.93h2.35l-2.23-3.27c.58-.22,1.06-.56,1.42-1.02.36-.47.54-1.07.54-1.81ZM202.51,123.3c0,.39-.13.7-.4.94-.27.24-.65.35-1.14.35h-2.04v-2.63h2c.5,0,.89.11,1.17.33.28.22.42.55.42.98v.03Z"/>
      <rect class="cls-1" x="209.84" y="124.29" width="4.03" height="1.91"/>
      <path class="cls-1" d="M226.44,123.77c.11-.16.2-.34.26-.54.06-.2.1-.43.1-.69v-.03c0-.62-.21-1.14-.63-1.56-.54-.54-1.34-.81-2.39-.81h-4.24v9.15h4.35c.51,0,.98-.05,1.4-.16.42-.1.78-.26,1.08-.47.3-.21.53-.47.69-.78.16-.31.24-.68.24-1.1v-.02c0-.61-.15-1.09-.45-1.43-.3-.34-.72-.62-1.25-.81.16-.09.32-.19.46-.32.14-.12.27-.26.38-.43ZM221.5,121.91h1.99c.43,0,.75.08.98.24.23.16.34.39.34.7v.03c0,.34-.13.59-.39.74-.26.15-.62.23-1.06.23h-1.85v-1.93ZM225.32,126.54c0,.34-.13.59-.38.75-.25.16-.6.24-1.05.24h-2.39v-2.01h2.32c.52,0,.9.09,1.14.27.23.18.35.42.35.73v.02Z"/>
      <path class="cls-1" d="M234.95,127.24l.84,2.05h2.1l-3.92-9.21h-1.86l-3.92,9.21h2.05l.84-2.05h3.87ZM233.02,122.5l1.22,2.97h-2.43l1.22-2.97Z"/>
      <rect class="cls-1" x="239.4" y="120.15" width="2.01" height="9.15"/>
      <polygon class="cls-1" points="250.12 129.3 251.83 129.3 251.83 120.14 249.84 120.14 249.84 125.78 245.55 120.14 243.7 120.14 243.7 129.3 245.69 129.3 245.69 123.48 250.12 129.3"/>
      <path class="cls-1" d="M263.48,128.94c.6-.23,1.11-.56,1.54-.97.43-.41.77-.89,1-1.45.24-.56.35-1.16.35-1.81v-.02c0-.65-.12-1.24-.35-1.8-.23-.55-.57-1.04-1-1.45-.43-.41-.95-.73-1.54-.96-.6-.23-1.25-.35-1.97-.35h-3.57v9.15h3.57c.72,0,1.37-.12,1.97-.35ZM259.96,121.96h1.55c.41,0,.78.07,1.13.2.34.13.63.32.87.57.24.25.43.54.56.88.13.34.2.71.2,1.11v.03c0,.41-.07.78-.2,1.11-.14.33-.32.62-.56.86-.24.25-.53.43-.87.56-.34.13-.71.2-1.13.2h-1.55v-5.52Z"/>
      <polygon class="cls-1" points="275.06 121.94 275.06 120.14 268.17 120.14 268.17 129.3 275.12 129.3 275.12 127.51 270.16 127.51 270.16 125.58 274.47 125.58 274.47 123.79 270.16 123.79 270.16 121.94 275.06 121.94"/>
      <path class="cls-1" d="M285.13,127.42c-.23.15-.55.23-.97.23-.52,0-1.01-.1-1.44-.3-.44-.2-.87-.47-1.29-.81l-1.19,1.42c.55.5,1.16.87,1.83,1.11.67.24,1.36.36,2.05.36.5,0,.95-.06,1.36-.19.41-.13.76-.31,1.05-.55.29-.24.52-.54.69-.89.16-.35.25-.76.25-1.21v-.03c0-.4-.06-.75-.19-1.03-.13-.29-.31-.54-.56-.75-.25-.21-.56-.4-.92-.55-.36-.15-.77-.29-1.24-.41-.39-.1-.72-.19-.98-.27-.26-.08-.46-.16-.61-.25-.15-.09-.25-.19-.31-.29-.06-.11-.09-.24-.09-.39v-.03c0-.23.1-.42.29-.57.2-.15.49-.23.88-.23s.79.08,1.18.24c.39.16.79.38,1.2.66l1.05-1.52c-.47-.37-.99-.66-1.55-.86-.56-.2-1.18-.3-1.85-.3-.47,0-.9.07-1.29.2-.39.13-.73.32-1.01.56-.28.25-.5.53-.65.87-.16.33-.23.71-.23,1.13v.03c0,.45.07.83.22,1.14.15.31.35.56.61.76.26.2.58.38.96.52.38.14.79.27,1.26.38.39.1.7.19.94.28.24.09.43.17.56.26.13.09.23.18.27.28.05.1.07.22.07.35v.03c0,.27-.12.48-.35.63Z"/>
      <path class="cls-1" d="M298.54,124.72v-.03c0-.65-.12-1.27-.36-1.84-.24-.57-.58-1.07-1.01-1.49-.43-.42-.94-.76-1.53-1-.59-.25-1.24-.37-1.95-.37s-1.36.12-1.95.37c-.6.25-1.11.59-1.54,1.02-.43.43-.77.93-1.01,1.5-.25.57-.37,1.18-.37,1.84v.03c0,.65.12,1.27.36,1.84.24.57.57,1.07,1.01,1.49.43.42.94.76,1.53,1.01.59.25,1.24.37,1.95.37s1.36-.12,1.96-.37c.59-.25,1.11-.59,1.54-1.02.43-.43.77-.93,1.01-1.5.24-.57.37-1.18.37-1.83ZM296.43,124.75c0,.39-.07.76-.2,1.1-.14.34-.32.65-.56.91-.24.26-.53.47-.87.62-.34.15-.71.22-1.11.22s-.78-.08-1.12-.23c-.34-.16-.63-.36-.88-.62-.25-.26-.44-.57-.57-.92-.14-.35-.2-.72-.2-1.11v-.03c0-.39.07-.76.2-1.1.14-.34.32-.65.56-.91.24-.26.53-.47.86-.62.33-.15.71-.22,1.12-.22s.77.08,1.11.23c.34.15.63.36.88.62.25.26.44.57.58.92.14.35.2.72.2,1.11v.03Z"/>
      <polygon class="cls-1" points="300.33 120.14 300.33 129.3 306.9 129.3 306.9 127.48 302.34 127.48 302.34 120.14 300.33 120.14"/>
      <polygon class="cls-1" points="315.38 127.51 310.41 127.51 310.41 125.58 314.72 125.58 314.72 123.79 310.41 123.79 310.41 121.94 315.31 121.94 315.31 120.14 308.42 120.14 308.42 129.3 315.38 129.3 315.38 127.51"/>
      <rect class="cls-1" x="317.27" y="120.15" width="2.01" height="9.15"/>
      <polygon class="cls-1" points="328.15 127.48 323.59 127.48 323.59 120.14 321.57 120.14 321.57 129.3 328.15 129.3 328.15 127.48"/>
      <path class="cls-1" d="M151.49,150.55c.05-.75.14-1.5.25-2.27-.44-1.64-1.59-2.53-3.45-2.66-2.67-.06-4.2.94-4.59,3-.2,1-.36,2.05-.5,3.15-.14,1.09-.25,2.23-.33,3.42-.14,2.02-.2,4.52-.16,7.51.04,2.99.16,6.55.36,10.68.2,4.13.34,7.68.41,10.64.07,2.96.04,5.45-.11,7.47-.05.77-.12,1.53-.2,2.27-.09.74-.18,1.49-.3,2.27.54,1.17,1.55,1.81,3.03,1.91.79.05,1.64-.11,2.52-.39.97-.42.95-.95,1.72-2.13.63-.97.96-3.34,1.08-4.53.03-.4.08-.77.1-1.18.14-2.02.21-4.55.21-7.6,0-3.05-.08-6.64-.22-10.76-.14-4.13-.21-7.73-.21-10.81,0-3.08.07-5.65.22-7.73.05-.77.11-1.53.16-2.27Z"/>
      <path class="cls-1" d="M291.43,141.55c-.69-.09-1.47-.01-2.31.24-.75.23-1.52.48-2.28.76-.1,0-.2.03-.29.07-.42.14-1.35.75-1.65,3.36-.41,1.98-1.3,13.01-2.04,17.86-.46,3.03-.9,5.89-1.21,7.75l-.19,1.1c-.53,3.09-.99,5.75-1.37,7.99-.42,2.49-.8,4.5-1.11,5.99-.7,3.33-1.43,6.31-2.17,8.87-.14.53-.42,1.29-.83,2.23-.43,1-1.31,1.3-1.99,1.25-.66-.05-1.48-.47-1.8-1.51-.69-2.21-1.17-4.7-1.43-7.41-.08-.87-.14-2.51-.18-4.87-.04-2.33-.06-5.42-.05-9.46-.04-3.04-.02-2.8-.28-5.18-.11-1.06-.03-1.74.04-2.4.09-.76.17-1.47-.07-2.47,0-.02-.01-.05-.02-.07-.2-.6-.35-1.46-.03-4.53.28-2.7.26-4.58-.09-5.76-.28-1.38-1.18-3.07-3.87-3.44-2.52-.35-4.53.21-5.97,1.66-.02.02-.03.04-.05.05-.86,1.07-.74,3.29-.6,5.87.05.93.1,1.89.1,2.76,0,1.21-.16,1.8-.3,2.96-.22,1.77-.43,3.59-.25,6.11.43,5.36.57,6.69.75,9.86.18,3.25.28,5.37.31,6.48.07,7.35,1.07,11.8,3.94,17.64,1.6,3.46,4.72,5.54,9.27,6.18.72.1,1.51.11,2.31.03,2.74-.29,5.73-1.72,7.6-4.66,3.93-6.13,5.1-11.07,6.82-19.27.5-2.39.86-5.24,1.06-8.47.2-3.16.67-6.56,1.42-10.11h0c.05-.15.09-.33.12-.49.07-.32.16-.79.28-1.36.23-1.13.53-2.67.86-4.31.53-2.69,1.26-11.75,1.65-13.61.51-2.43.34-4.33-.52-5.65-.73-1.12-1.93-1.8-3.56-2.03Z"/>
      <path class="cls-1" d="M48.65,224.29c-.77-.17-1.81-.39-3.18-.66-1.26-.25-2.3-.51-3.09-.76-2.27-.77-3.99-1.54-5.11-2.29-1.13-.75-2.31-1.56-3.51-2.4-1.18-.83-2.58-1.87-4.17-3.09l-.4-.31c-4.66-3.64-8.42-7.94-11.16-12.79-2.32-4.11-3.75-8.28-4.25-12.38-.47-3.89-.52-7.49-.15-10.72.37-3.24,1.03-6.19,1.96-8.76.92-2.57,2.07-4.85,3.4-6.8,1.34-1.95,2.75-3.64,4.2-5.01,2.73-2.57,5.18-4.25,7.28-5.02.92-.34,1.94-.81,2.92-1.27,1.41-.65,2.86-1.33,4.12-1.64,1.87-.55,3.15-1.43,3.8-2.62.63-1.15.86-2.41.7-3.73-.16-1.3-.51-2.75-1.93-3.6-2.48-1.49-5.01-1.39-7.84-1.13-3.33.31-7.51,2.79-11.17,5.17-3.85,2.51-7.93,6.32-12.14,11.33-2.77,3.27-5.13,7.63-7.01,12.97-1.88,5.35-2.39,11.67-1.52,18.8.34,2.8.96,6.22,1.83,10.15.88,3.97,2.79,7.69,4.83,11.62l.11.21c1.06,2.09,2.97,4.48,5.67,7.12l.7.68c2.44,2.4,4.97,4.87,8.33,7.08,3.64,2.4,7.64,4.51,11.88,6.28,4.13,1.73,6.96,2.81,11.32,3.2.01,0,.02,0,.03,0,0,0,.02,0,.02,0l1.92.03c2.37-.08,2.98-.46,4.02-1.86,1.04-1.4,1.43-2.73,1.26-4.19-.24-1.93-1.44-3.12-3.67-3.61Z"/>
      <path class="cls-1" d="M73.01,218.43c-.2-.94-.39-1.9-.56-2.85-.06-.31-.18-.98-.33-1.77-.32-1.67-.75-3.94-.85-4.67-.26-1.89-.88-6.86-1.08-10.16-.2-3.2-.35-6.72-.44-10.45-.1-3.76-.19-7.64-.29-11.64-.09-4-.18-7.81-.26-11.43-.04-1.76-.03-4.88-.01-7.9.01-3.29.02-6.41-.02-7.92-.07-2.18-.18-3.18-.31-4.24-.04-.37-.09-.74-.13-1.17-.28-2.9-1.73-3.28-2.69-3.53l-.08-.02c-1.01-.26-1.76-.27-3.2-.06l-.99.15c-1.47.31-2.23,1.85-2.26,4.58.1,5.67-.09,16.67-.21,21.69-.05,1.98.03,3.85.11,5.67.08,1.92.16,3.74.08,5.48-.02.49-.4.92-.9,1l-3.53.63-1.26.19c-1.81.27-3.21.33-4.16.19-.48-.07-1.05-.31-1.21-1.48-.12-.88-.2-1.94-.23-3.16-.04-1.27-.07-2.55-.1-3.82-.01-.45-.03-.84-.04-1.2-.02-.64-.04-1.19-.05-1.9-.01-1.16-.06-2-.14-2.56-.1-.74-.26-1.54-.44-2.38-.2-.85-.46-1.64-.78-2.36-.34-.75-.78-1.39-1.29-1.9-.56-.55-1.25-.9-2.09-1.04l-2-.21c-1.08-.11-2.15,0-3.21.35-1.06.36-1.58,1.21-1.42,2.35l.17,1.22c.24,1.74.44,3.93.59,6.5.04.72.08,1.42.12,2.12.11,1.78.22,3.62.31,5.76.12,2.88.2,5.88.23,8.93.03,3.19.08,5.92.15,8.35.04,1.34.08,2.33.12,3.25.04.83.07,1.6.1,2.5.02.76.02,1.29.03,1.71,0,.63,0,1.01.07,1.5.03.21.07.69.08,1.72.02.87.18,2.89.26,3.48.19,1.33.56,2.39,1.11,3.17.55.77,1.18,1.37,1.89,1.77.71.41,1.47.64,2.27.68.73.04,1.44,0,2.15-.1.52-.08,1.9-.28,2.63-1.3.4-.56.54-1.25.4-2.05-.78-4.48-.78-7-.78-10.2,0-.52,0-1.06,0-1.63-.03-3.28.09-6.16.36-8.57.08-.75.6-1.35,1.32-1.54.4-.11.83-.2,1.28-.26.14-.02.51-.06,1.33-.05.68,0,1.4,0,2.15,0,.01,0,.02,0,.03,0l2.12-.11c.54-.03,1.05.16,1.45.52.4.36.63.85.66,1.42.06,1.16.11,2.38.15,3.75.04,1.3.09,2.56.14,3.73.06,1.16.12,2.05.2,2.63.05.36.11.87.17,1.6.06.69.12,1.43.2,2.21.04.41.17,1.41.29,2.38.11.9.24,1.83.26,2.15.06.67.12,1.23.18,1.67.36,2.6,1.91,8.55,3.44,10.17,1.04,1.09,2.5,1.68,4.35,1.77.74.03,1.54-.01,2.41-.14.71-.11,1.27-.53,1.63-1.21.32-.62.44-1.24.35-1.86,0-.02,0-.04,0-.05Z"/>
      <path class="cls-1" d="M141.78,207c-.76-.87-1.09-1.35-1.41-1.82-.48-.71-.9-1.32-2.48-2.86l-12.71-12.42-3.67-3.23c-.81-.69-1.39-1.22-1.72-1.56-.22-.23-.32-.51-.32-.89,0-.28.11-.52.36-.75.33-.31.83-.66,1.51-1.05,3.27-2.09,6.15-4.86,8.57-8.25,2.76-3.82,4.16-7.72,4.17-11.58.01-4.73-1.45-9.04-4.34-12.79-3.16-4.29-6.96-6.55-11.31-6.73h-1.6s-.08,0-.08,0c-7.41,0-11.59,2.47-12.42,7.33-.62,3.8-1,8-1.13,12.46-.13,4.5-.2,9.51-.21,14.89l-.03,12.97c0,3.12-.15,6.08-.42,8.79-.27,2.7-.03,3.39-.19,5.7l-.12,2.41s0,0,0,.01l.14,2.37s0,.05,0,.08c-.01,4.3,1.85,6.98,5.54,7.94.04.01.08.02.12.02.17.08.34.12.52.12.73,0,1.47-.21,2.2-.64.92-.53,1.58-1.42,1.82-2.45.84-3.6.35-4.65.68-10.09l.31-8.74c.06-.76.11-1.46.16-2.09.03-.41.28-.73.66-.88.38-.14.78-.05,1.07.23,1.09,1.07,2.3,2.32,3.6,3.7,2.39,2.53,5.34,5.75,8.78,9.58l1.44,1.64c3.98,4.53,6.18,7.03,8.85,9.37,1.48,1.3,3.57,1.63,5.32.85,2.18-.98,3.29-2.29,3.3-3.9,0-.44-.15-.92-.42-1.4-1.08-2.02-2.61-4.16-4.54-6.38ZM117.12,172.76c-.55.48-1.32.87-1.82.57-.45-.28-.68-.67-.7-1.21,0-.27-.02-.54-.03-.83l-.02-.36c-.04-.63-.08-1.35-.08-2.1-.22-4.33-.33-6.92-.32-7.93,0-1.08.06-2.2.18-3.32.07-.68.14-1.13.23-1.65l.08-.5c.08-.51.25-.94.51-1.28.4-.51,1.12-1.11,2.32-1.11h.01c2.21,0,3.82.6,4.79,1.78,1.01,1.23,1.62,2.62,1.84,4.13v.9c0,.39-.03.81-.06,1.25-.04.45-.09.95-.17,1.48-.71,3.85-2.42,6.42-6.77,10.18Z"/>
      <path class="cls-1" d="M91.84,173.68c.02-.67.03-1.29.04-1.91v-.09s0-.01,0-.01v-12.35c0-2.39-1.44-4.49-3.68-5.36-.95-.33-1.72-.48-2.45-.46-1.21.04-2.19.44-2.93,1.21-.64.66-.95,1.62-.85,2.62.06.62.11,1.23.15,1.83.07.98.11,1.88.14,2.74.09,2.43.05,5.46-.11,9.01-.06,1.47-.07,2.28-.07,3.07,0,1.14,0,2.22-.21,5.18-.33,4.96-.57,9.32-.69,12.96-.12,3.62-.15,6.71-.06,9.17.05,1.47.14,2.89.25,4.2.11,1.32.26,2.62.43,3.88.4,2.86,2.24,4.4,5.38,4.46,1.06-.03,2.58-.2,3.52-1.21.58-.63.85-1.49.8-2.57-.02-.46-.06-.91-.1-1.35-.04-.49-.08-.94-.1-1.4l-.1-2.76c-.09-2.53-.09-5.68,0-9.35.09-3.71.27-8.11.54-13.08.16-2.98.12-4.1.09-5.29-.02-.81-.05-1.65-.01-3.15Z"/>
      <path class="cls-1" d="M310.96,162.27c-.84-.47-1.55-.75-2.23-.87-1.17-.22-2.2-.05-3.04.5-.84.55-1.36,1.54-1.41,2.65-.02.51-.04,1.01-.07,1.49-.05.8-.11,1.52-.19,2.22-.2,1.96-.58,4.38-1.13,7.21-.23,1.2-.33,1.87-.43,2.52-.13.91-.26,1.77-.77,4.1-.88,3.98-1.59,7.49-2.13,10.43-.54,2.94-.92,5.47-1.13,7.52-.12,1.23-.21,2.41-.27,3.51-.06,1.11-.08,2.22-.07,3.29.02,1.95.83,4.46,4.64,5.34.02,0,.03,0,.05.01.56.1,1.19.19,1.81.15.73-.04,1.44-.24,2.03-.76.42-.37.95-1.09,1.07-2.34.04-.39.06-.78.07-1.16.02-.39.04-.75.07-1.1l.24-2.26c.21-2.06.57-4.59,1.08-7.53.51-2.99,1.18-6.52,2-10.49.5-2.43.6-3.38.71-4.37.07-.65.15-1.32.35-2.5.1-.57.18-1.09.27-1.62,0,0,0-.02,0-.03l1.44-10.03c.32-2.26-.85-4.61-2.96-5.87Z"/>
      <path class="cls-1" d="M251.32,197.01c-.73-2.94-1.14-5.75-1.22-8.34-.09-2.59.04-5.04.37-7.29.14-.65.1-1.36-.12-2.11l-.07-.25c-.35-1.22-1.07-3.77-3.72-3.89-3.75-.17-5.7,1.92-5.75,1.98-.71.69-1.11,1.62-1.19,2.76-.24,3.31-.74,4.17-.94,4.39-.01.01-.03.03-.04.04-.98,1.26-1.91,2.47-2.81,3.64-5.37,6.98-9.61,12.5-13.42,13.77-.56.19-1.35-.91-1.66-1.57l-.37-1.25c-1.28-4.36-1.28-9.61.03-15.62,1.02-5.09,2.32-9.82,3.85-14.04.91-2.51.53-2.15,1.61-4.4,1.12-2.34,1.64-3.4,3.54-5.27,0,0,3.49-4.12,7.84,4.49,1.08,2.13,3.71,3.15,6.05,2.2,2.35-.95,3.44-3.48,2.45-5.65-.54-1.17-5.52-11.47-14.25-11.27,0,0-8.45-.17-14.38,12.1-5.43,11.23-6.68,19.81-7.37,30.62-.2,3.6.03,6.54.67,8.72.83,2.8,2.32,4.92,4.42,6.3,3.73,2.58,7.31,3.45,10.63,2.59,1.12-.29,1.97-.65,2.55-1.09,4.36-2.85,8.2-6.33,11.42-10.34.28-.34.66-.29.78-.27.11.03.47.14.54.55.09.53.17,1.04.25,1.52.23,1.42.39,2.52.51,3.39l1.43,6.44s0,.04.01.06c.95,3.22,3.22,5.04,6.74,5.41.42.05.88.03,1.38-.05.23-.04.46-.08.7-.15,3.39-.88,3.45-2.82,3.18-3.9l-3.63-14.27Z"/>
      <rect class="cls-1" x="172.7" y="100.06" width="9.29" height="7.77"/>
      <rect class="cls-1" x="172.7" y="86.28" width="9.29" height="12.06"/>
      <rect class="cls-1" x="216.28" y="100.06" width="9.29" height="7.77"/>
      <rect class="cls-1" x="216.28" y="86.28" width="9.29" height="12.06"/>
      <path class="cls-1" d="M159.83,29.18c1.79-1.86,3.58-3.73,5.46-3.73,1.98,0,3.87,1.86,5.76,3.71,1.76,1.73,3.52,3.46,5.19,3.46,1.76,0,3.62-1.73,5.46-3.47,1.98-1.85,3.95-3.7,6.02-3.7h0s.03,0,.03,0h0c2.45.02,5.61,2.72,8.09,4.83,1.53,1.3,2.79,2.37,3.25,2.35.46.02,1.72-1.05,3.25-2.35,2.48-2.11,5.64-4.8,8.09-4.83h.03c2.06,0,4.04,1.85,6.02,3.7,1.85,1.73,3.7,3.47,5.46,3.47,1.67,0,3.43-1.73,5.19-3.46,1.89-1.86,3.78-3.71,5.76-3.71s3.67,1.86,5.46,3.73c1.65,1.72,3.3,3.45,4.86,3.45.33,0,.66-.07,1-.18l-12.98-9.66c-1.16.63-2.34,1.74-3.53,2.91-1.89,1.86-3.78,3.72-5.76,3.72s-4.04-1.85-6.02-3.71c-1.85-1.73-3.7-3.47-5.46-3.47h0s-.03,0-.03,0h0c-2.16.03-5.19,2.61-7.57,4.63-1.61,1.37-2.94,2.5-3.72,2.55h0s-.03,0-.05,0-.03,0-.05,0h0c-.78-.05-2.11-1.18-3.72-2.55-2.38-2.03-5.41-4.6-7.57-4.63h-.04c-1.76,0-3.61,1.74-5.46,3.47-1.98,1.85-3.95,3.71-6.02,3.71s-3.87-1.86-5.76-3.72c-1.15-1.13-2.29-2.2-3.42-2.84l-13.09,9.59c.34.1.67.18,1,.18,1.56,0,3.21-1.72,4.86-3.45Z"/>
      <path class="cls-1" d="M259.56,83.18c0-1.71-1.39-3.1-3.1-3.1h-10.9v-14.97c.1.03.19.07.28.1.61.24,1.22.51,1.83.83.03.01.06.03.1.04,0,0,0,0,0,0,.02,0,.03.01.05.02h0c.34.13.7.1,1-.05,1.41-.69,2.89-1.27,4.44-1.76.78-.26,1.69-.52,2.75-.76.64-.14,1.26-.27,1.88-.39,0,0,0,0,0,0,.63-.12,1.27-.22,1.92-.31,1.77-.26,3.44-.4,5.01-.46v44.21c0,.7.57,1.26,1.26,1.26s1.26-.56,1.26-1.26v-44.23c6.69.11,10.9,1.66,10.9,1.66,1.79.52,3.51,1.16,5.13,1.94,0,0,.01,0,.02,0,.04.02.09.04.14.05,0,0,0,0,0,0,.26.08.55.08.82-.02,0,0,0,0,0,0,.02,0,.04-.02.07-.03h0s.05-.03.09-.04c.17-.09.35-.18.52-.27,0,0,0,0,0,0,6.46-3.56,16.73-1.22,16.73-1.22.14.02.28.04.42.06.51.08,1.02-.17,1.27-.62.26-.45.21-1.01-.12-1.41-9-11.02-22.38-17.83-36.02-18.4h0c0-.69-.56-1.25-1.25-1.25-.69,0-1.25.56-1.25,1.26v.02c-6.68.41-13.25,2.23-19.26,5.22v-9.14h3.8c1.68,0,2.35-1.9,1.25-2.97l-4.08-3.04c-1.09.71-2.18,1.24-3.3,1.24-1.88,0-3.67-1.86-5.45-3.73-1.65-1.72-3.3-3.45-4.86-3.45-1.67,0-3.43,1.73-5.19,3.46-1.89,1.86-3.78,3.71-5.76,3.71s-4.04-1.85-6.01-3.71c-1.85-1.73-3.7-3.47-5.46-3.47h0s-.03,0-.03,0c-2.16.03-5.19,2.61-7.58,4.63-1.61,1.37-2.94,2.5-3.72,2.55h0s-.03,0-.05,0c-.02,0-.03,0-.05,0h0c-.78-.05-2.11-1.18-3.72-2.55-2.38-2.03-5.41-4.61-7.58-4.63h-.03c-1.76,0-3.61,1.74-5.46,3.47-1.97,1.85-3.95,3.71-6.01,3.71s-3.87-1.86-5.76-3.71c-1.76-1.73-3.52-3.46-5.19-3.46-1.55,0-3.2,1.72-4.86,3.45-1.79,1.86-3.57,3.73-5.45,3.73-1.12,0-2.22-.54-3.31-1.26l-4.06,2.98c-1.21,1.05-.52,3.04,1.19,3.04h3.93v9.14c-6-2.99-12.57-4.81-19.26-5.22v-.02c0-.69-.55-1.25-1.24-1.26-.69,0-1.25.56-1.25,1.25h0c-13.64.56-27.01,7.37-36.02,18.4-.33.4-.38.96-.12,1.41.25.45.76.69,1.27.62.14-.02.28-.04.42-.06,0,0,10.27-2.33,16.73,1.22,0,0,0,0,0,0,.18.09.35.18.52.27.03.02.06.03.09.04h0s.04.02.07.03c0,0,0,0,0,0,.27.11.56.11.82.02t0,0s.09-.03.14-.05c0,0,.01,0,.02,0,1.63-.78,3.34-1.42,5.13-1.94,0,0,4.2-1.55,10.9-1.66v44.23c0,.7.56,1.26,1.26,1.26s1.26-.56,1.26-1.26v-44.21c1.57.06,3.25.2,5.02.46.65.09,1.29.19,1.91.31,0,0,0,0,0,0,.62.12,1.24.25,1.88.39,1.06.24,1.97.5,2.75.76,1.55.49,3.03,1.08,4.44,1.76.3.15.66.18,1,.05,0,0,0,0,0,0,.02,0,.03-.01.05-.02,0,0,0,0,0,0,.03-.01.06-.03.1-.04.6-.32,1.21-.59,1.82-.83.09-.03.19-.06.28-.1v14.97h-11.04c-1.71,0-3.1,1.39-3.1,3.1,0,1.35.87,2.49,2.07,2.92v20.33c0,.76.62,1.38,1.38,1.38s1.38-.62,1.38-1.38v-6.37h9.29v6.37c0,.48.25.9.62,1.15.22.16.49.25.79.25h15.85v-21.73c-1.2-.43-2.07-1.57-2.07-2.92,0-1.71,1.39-3.1,3.1-3.1h12.74c1.71,0,3.1,1.39,3.1,3.1,0,1.35-.86,2.49-2.07,2.92v21.73h28.78v-21.73c-1.2-.43-2.07-1.57-2.07-2.92,0-1.71,1.39-3.1,3.1-3.1h12.73c1.71,0,3.1,1.39,3.1,3.1,0,1.35-.87,2.49-2.07,2.92v21.73h15.84c.76,0,1.38-.62,1.38-1.38v-6.4h9.18v6.37c0,.76.62,1.38,1.38,1.38s1.38-.62,1.38-1.38v-20.33c1.2-.43,2.07-1.57,2.07-2.92ZM152.69,98.34h-9.29v-12.06h9.29v12.06ZM203.49,53.4c-.08.39-.12.8-.16,1.22-.08.86-.16,1.75-.63,2.62-.08.14-.21.25-.37.29-.16.04-.33,0-.47-.09-.66-.46-.65-1.08-.65-1.45,0-.46.02-.91.03-1.34v-.02c0-.29.02-.58.03-.87,0-.12,0-.25,0-.38h-1.17c-.05.35-.1.69-.15,1.03-.16,1.1-.33,2.24-.55,3.38-.07.35-.13.71-.18,1.07-.2,1.28-.41,2.59-1.13,3.9-.1.19-.3.3-.51.3-.01,0-.03,0-.05,0-.21-.02-.38-.14-.47-.31-.34-.66-.26-1.22-.21-1.62v-.08c.14-1.02.27-2.03.4-3.04.11-.82.21-1.63.32-2.45.07-.59.14-1.19.21-1.82l.04-.35c-.37-.02-.74-.02-1.13-.02l-.3,1.03c-.06.19-.2.34-.4.4-.19.05-.39,0-.54-.13-.45-.41-.49-.89-.51-1.2,0,0,0-.01,0-.02l-1.15-.04c-.14.68-.26,1.38-.37,2.05-.27,1.58-.55,3.22-1.16,4.83-.09.22-.3.37-.54.37-.25,0-.45-.15-.54-.36-.3-.76-.34-1.06-.24-1.92.09-.7.18-1.41.27-2.1.07-.52.14-1.03.2-1.54.05-.43.1-.86.15-1.33v-.06s-1.14.02-1.14.02c-.05.27-.08.56-.11.86-.08.79-.16,1.67-.76,2.51-.12.17-.33.27-.54.24-.2-.02-.38-.16-.46-.35-.36-.86-.32-1.68-.28-2.39.01-.29.03-.58.01-.85l-1.22-.05c-1.57,2.99-3.97,5.14-5.89,6.69-.32.25-.64.47-.97.65-.62.34-1.07.19-1.29.08-.21-.11-.58-.41-.65-1.1-.03-.3-.04-.75.1-1.2.33-1.04.7-2.21,1.15-3.35.5-1.26,1.27-2.21,2.28-2.84-1.19-.98-1.91-2.36-2.25-4.31-.12-.67-.13-1.35-.14-2.01,0-.22,0-.45-.01-.67-.01-.31.04-.61.09-.86.07-.33.24-.58.5-.72.18-.1.49-.18.9-.01.23.09.49.21.73.4,2.04,1.7,4.29,3.84,5.54,6.87.06.15.12.3.17.44l.98-.04.11-2.72c.01-.3.26-.54.56-.55.47-.02,1.08.16,1.26,1.1.09.45.13.92.17,1.33l.02.25c.02.22.04.44.05.66h1.31c0-.07,0-.14.01-.2.04-.53.07-1.02.08-1.51.03-.8.04-1.48,0-2.15v-.2c-.08-1.48-.09-1.64.27-2.23.12-.2.37-.31.6-.26.7.15.82.74.86,1,0,.04.02.08.03.12.33,1.25.44,2.64.36,4.38-.02.34-.03.67-.04,1.04l1-.02c.02-.18.03-.36.04-.55.02-.49.05-1.04.35-1.58.15-.26.48-.37.75-.24.79.37.77,1.08.76,1.42,0,.06,0,.11,0,.15,0,.26,0,.52-.02.78.35.04.72.04,1.14.02.06-.99.1-2.04.04-3.1l-.03-.43c-.05-.8-.1-1.62-.13-2.43,0-.26.05-.5.09-.7.02-.08.04-.15.05-.23.05-.31.34-.52.65-.47.96.13,1.07.87,1.12,1.19,0,.04.01.07.02.11.38,1.94.53,3.73.47,5.47,0,.17-.01.35-.02.52l1.08.04.02-.37c.03-.74.06-1.46.08-2.18,0-.25,0-.52,0-.77v-.03c0-.19,0-.38,0-.57,0-.22,0-.63.31-.91.1-.09.31-.24.65-.21.5.05.88.6.95.96.14.74.23,1.47.28,2.17.04.56.04,1.1.04,1.67v.09s0,.09,0,.13l2.25.09s0-.03,0-.04v-1.33c.03-1.7.04-3.45.03-5.18,0-.66,0-1.34.47-1.68.45-.32,1.03-.16,1.74.08,2.66.91,4.94,2.05,6.97,3.48,1.71,1.21,3.1,2.43,4.25,3.75.95,1.08,1.02,1.81.29,3.02-.24.4-.53.8-.87,1.19-3.45,4.07-7.81,6.76-13.35,8.22-.15.04-.31.02-.44-.06-.13-.08-.23-.21-.26-.36-.01-.05-.03-.11-.04-.15-.06-.18-.12-.39-.1-.63.04-.43.11-.86.21-1.29.52-2.16.85-4.12,1-6.01.03-.34.04-.68.05-1.05l-2.32.04ZM211.93,40.16v2.91c-1.02-.48-2.08-.92-3.22-1.31-.75-.26-2.15-.73-3.41.17-1.25.9-1.24,2.34-1.23,3.19,0,.09,0,.17,0,.26-.42-.36-.94-.61-1.54-.67-.34-.03-.68,0-1,.1-.45-1.87-1.96-2.29-2.63-2.38-1.3-.17-2.49.7-2.71,1.99,0,.04-.02.09-.03.13-.06.27-.16.68-.14,1.18.02.55.05,1.1.08,1.63-.12-.01-.24-.02-.37,0-.07-.55-.17-1.07-.3-1.57,0-.01,0-.03,0-.03-.36-1.86-1.73-2.34-2.3-2.46-.01,0-.02,0-.04,0-.98-.18-2,.27-2.51,1.12-.49.8-.6,1.33-.59,2.21-.33-.1-.69-.15-1.07-.14-.72.02-1.36.36-1.79.88-.26-.36-.53-.69-.8-1.02v-6.18h25.63ZM165.3,69.02l-9.82,4.06v-8.74c.6-.12,1.2-.21,1.8-.28.15-.02.31-.03.47-.05,3.03-.27,5.7-.07,7.54.18v4.83ZM165.3,58.15c-2.96-2.85-6.27-5.32-9.82-7.37v-10.62h9.82v17.99ZM231.26,59.9c-.85.91-1.67,1.84-2.45,2.82-.32.4-.37.96-.11,1.41.15.26.38.45.65.55.2.07.41.09.62.06.14-.02.28-.05.43-.07,0,0,.31-.08.86-.19v4.27h-64.24v-4.27c.56.11.86.19.86.19.14.02.29.04.43.07.21.03.42.01.62-.06.27-.1.51-.29.66-.55.26-.45.22-1.01-.11-1.41-.78-.97-1.6-1.91-2.46-2.82v-19.73h17.57v4.34c-.6-.57-1.21-1.11-1.8-1.6-.41-.35-.85-.54-1.22-.69-.84-.34-1.71-.3-2.46.1-.73.39-1.26,1.11-1.43,1.97-.07.34-.15.79-.13,1.29,0,.21,0,.42.01.64,0,.69.02,1.48.16,2.29.26,1.52.74,2.79,1.44,3.83-.57.66-1.03,1.43-1.38,2.32-.47,1.19-.85,2.39-1.2,3.47-.24.75-.23,1.48-.18,1.95.12,1.13.71,2.06,1.63,2.54.92.49,2.02.45,3.03-.09.43-.23.85-.51,1.25-.83,1.38-1.11,3-2.52,4.44-4.33.03.07.05.14.08.21.34.81,1.08,1.37,1.94,1.47.09.01.17.02.26.02-.03.77.08,1.32.41,2.15.36.91,1.24,1.51,2.22,1.52h.05c1,0,1.89-.62,2.25-1.56.58-1.5.87-2.96,1.12-4.39.16.05.32.08.48.1-.05.37-.1.74-.15,1.11-.13,1.02-.27,2.04-.39,3.05v.08c-.07.5-.21,1.53.39,2.7.37.73,1.09,1.22,1.91,1.31.08,0,.16.01.23.01h.01c.89,0,1.7-.48,2.13-1.26.87-1.58,1.11-3.13,1.33-4.49,0-.02,0-.03,0-.05.52.28,1.14.37,1.72.23.13-.03.26-.08.39-.13-.06.26-.12.52-.18.79-.13.52-.21,1.05-.25,1.58-.05.6.1,1.08.19,1.35v.03c.16.62.57,1.17,1.12,1.5.56.34,1.24.43,1.87.26,5.91-1.56,10.58-4.44,14.28-8.81.4-.47.74-.95,1.04-1.43,1.15-1.9,1-3.5-.48-5.19-1.25-1.42-2.75-2.74-4.57-4.03-.79-.56-1.63-1.06-2.5-1.54v-3.78h17.6v19.73ZM242.8,73.08l-9.82-4.06v-4.83c1.84-.25,4.52-.45,7.55-.18.16.02.32.03.47.05.6.07,1.2.16,1.8.28v8.74ZM242.8,50.79c-3.55,2.05-6.86,4.52-9.82,7.37v-17.99h9.82v10.62ZM254.74,98.34h-9.18v-12.06h9.18v12.06Z"/>
      <path class="cls-1" d="M170.07,22.24c.32.31.65.62.98.94,1.76,1.73,3.52,3.46,5.19,3.46,1.76,0,3.61-1.73,5.46-3.47.34-.32.67-.62,1.01-.93,6.22-4.89,10.63,0,10.63,0,.87.68,1.72,1.39,2.5,2.05,1.53,1.31,2.79,2.37,3.25,2.35.46.02,1.72-1.05,3.25-2.35.78-.66,1.63-1.38,2.5-2.05,5.7-5.02,10.63,0,10.63,0,.34.3.68.61,1.01.93,1.85,1.73,3.7,3.47,5.46,3.47,1.67,0,3.43-1.73,5.19-3.46.33-.32.65-.63.98-.94.38-.37.78-.65,1.18-.9L202.68,1.55c-.7-.46-1.18-.78-1.25-.83-2.03-1.63-4.04.05-4.04.05l-1.45.96-26.88,19.68c.6.4,1.02.84,1.02.84Z"/>
      <path class="cls-1" d="M181.17,46.05c.03.48.05.9.11,1.33.15,1.07.57,2.07,1.27,2.98h0c.3.4.58.61.9.69.61.15,1.27.3,2,.34-.99-2.13-2.37-3.86-4.27-5.34Z"/>
      <path class="cls-1" d="M211.57,52.09c.46,0,.9-.26,1.14-.71.05-.1.08-.25.08-.39,0-.16-.1-.31-.26-.35l-.25-.04h0c-.57.02-1.02.28-1.3.76-.11.19-.15.36-.1.46.06.11.3.24.7.26Z"/>
      <path class="cls-1" d="M181.63,54.98c-.43.8-.75,1.67-1.02,2.85,1.57-1.25,2.93-2.73,4.12-4.47-.32.03-.62.06-.91.1-.98.12-1.7.61-2.19,1.52Z"/>
      <path class="cls-1" d="M207.74,59.98c1.83-.73,3.53-1.66,5.17-2.8,1.8-1.26,3.4-2.79,4.74-4.54.12-.16.33-.44.34-.52-.02-.06-.21-.27-.4-.48-2.39-2.6-5.34-4.63-9-6.19-.31-.13-.66.11-.65.45.1,4.58.06,9.08-.82,13.55-.07.36.28.67.62.53ZM209.39,51.02c.25-.92.98-1.61,1.95-1.86.91-.23,1.83.01,2.41.62.41.44.66.86.62,1.58,0,0,0,.01,0,.02-.09.95-.6,1.67-1.49,2.1-.43.21-.85.31-1.26.31-.03,0-.06,0-.09,0-.46-.02-.89-.17-1.3-.44-.77-.52-1.09-1.42-.84-2.34Z"/>
      <path class="cls-1" d="M349.87,154.91c.06,0,.12.01.18.01l4.05-.1c2.57-.1,5.86-.54,8.54-3.15.02-.02.05-.05.07-.08.07-.09,1.78-2.22,1.05-4.38-.48-1.43-1.85-2.45-4.07-3.04-1.23-.32-9.68-.57-9.77-.57-2.3-.06-9.64.07-11.11.11-1.52.04-11.26.15-11.38.15-.46.02-.94.04-1.44.07-2.37.12-5.05.26-7.16-.34-.03,0-.07-.02-.1-.02-.23-.04-.7-.15-1.65-.44-.8-.25-1.62-.51-2.47-.79-1.59-.54-3.18-.78-4.75-.72-.25.01-.51.05-.78.1-.17.03-.33.06-.47.06-.25,0-2.48.14-3.68,1.5-.55.62-.8,1.42-.71,2.29.4,4.04,2.12,5.33,3.48,5.7,1.09.31,2.51.43,4.01.56,1.47.12,2.98.25,4.45.56,1.6.33,3.41.54,5.5.78,1.14.13,2.32.27,3.59.44,0,0,.12.02.31.07.11.03.2.09.31.1,3.09.27,2.55,3,3.23,5.66.96,3.75,6.22,2.86,7.66.63,1.29-1.99.1-4.52,2.75-5.1.22-.08.44-.13.69-.14l.56-.02c.34-.02.7-.04,1.12-.04.36.01,1.17.01,2.18.01,1.9,0,5.08,0,5.81.12Z"/>
      <path class="cls-1" d="M333.67,167.46c-1.34-.39-2.78-.05-3.9.75-1.5,1.07-3.84,3.24-6.41,7.53-4.41,7.37-5.15,10.38-3.61,11.46,2.37,1.66,6.77-4.4,5.26,6.92-.08.6-.15,1.19-.23,1.78-.26,1.96-.53,3.98-.78,6.7-.12,1.34-.22,1.88-.32,2.45-.1.54-.2,1.11-.32,2.31-.14,1.3-.42,3.08-.7,4.8-.25,1.58-.49,3.08-.64,4.3l-.12,1.22c-.05.53-.07.98-.08,1.36,0,.4.01.78.05,1.13,0,.02,0,.04,0,.07.4,2.37,2,2.6,2.71,2.58.11,0,.21-.02.32-.03,2-.22,3.74-1.37,5.18-3.42,1.43-2.04,2.35-4.34,2.71-6.83.19-1.2.43-2.25.67-3.26.34-1.48.7-3.01.89-5.04.14-1.44.28-2.73.44-4.09.42-3.63.89-7.73,1.28-16.25.2-4.8.37-7.38.61-11.27,0-.07,0-.14.01-.21.04-.85-.03-4.1-3.03-4.98Z"/>
      <path class="cls-1" d="M356.68,208.88c-.39-.18-.7-.17-.94.02-.53.45-1.13,1-1.8,1.65-.67.66-1.43,1.44-2.27,2.34-1.94,2.07-3.3,3.46-4.08,4.16-.1.11-.34.11-.72.02-.37-.11-.62-.13-.75-.06-.12.03-.2.1-.25.21-.05.11.02.32.22.65.18.3.24.52.17.67-.34.56-1.11,1.35-2.34,2.36-.9.75-1.51,1.47-1.84,2.17l-.11.24c-.12.37.11.81.7,1.3.06.07.13.13.2.16.07.03.14.06.2.09.3.14.56.13.76-.04.64-.51,1.43-1.34,2.4-2.49.52-.63.96-1.15,1.34-1.55.38-.41.68-.73.92-.97.61-.13,1.33-.05,2.16.23l2.15.81c-.02,1.1-.21,2.39-.58,3.87-.32,1.37-.02,2.37.9,3,.14.07.43.05.88-.05.47-.1.79-.34.96-.69.09-.2.15-.47.17-.83.1-1.65.29-3.45.57-5.42.28-1.97.66-4.12,1.14-6.47.13-.38.25-.77.36-1.17.12-.4.23-.8.33-1.18.24-.93.17-1.75-.19-2.44-.15-.27-.37-.47-.65-.6ZM353.92,215.35c-.08.4-.14.8-.21,1.2-.08.44-.18.86-.29,1.25-.11.39-.23.78-.36,1.15-1.38-.65-2.25-1.02-2.6-1.12,1.13-1.25,2.36-2.48,3.67-3.69-.07.4-.14.81-.21,1.21Z"/>
      <path class="cls-1" d="M371.29,216.77l-.64-.14c-.27-.06-.5-.09-.71-.09-.61-.01-.94.16-.99.51l-.72,10.61c-.01.19-.27.24-.35.07-.47-1.07-1.15-2.81-1.53-3.65-.46-1.05-.95-2.16-1.44-3.32-.5-1.21-.96-2.24-1.4-3.11-.44-.86-.83-1.56-1.18-2.11-.36-.23-.69-.4-1-.51-.31-.11-.56-.17-.74-.17-.86-.01-1.3.17-1.32.55l-.83,6.99c-.32,2.76-.45,3.89-.48,5.73-.02,1.08.04.93.09,1.89l.05.86c.06.35.24.56.53.64l.64.25c.22.11.42.16.6.17.18,0,.35-.05.51-.17.38-.15.58-.46.59-.93v-.1c-.03-.7-.05-1.38-.06-2.05-.01-.67-.05-.16-.04-.83.01-.68-.02-.22,0-.99.01-.77.03-1.53.06-2.3.02-.76.06-1.51.12-2.23.06-.72.14-1.39.24-2.02.05-.24.15-.36.31-.36.07,0,.12.06.17.16.52,1.18,1.03,2.32,1.52,3.42.5,1.11,1.49,3.67,1.96,4.64.47.97.91,1.85,1.32,2.65.41.8.79,1.47,1.15,2.02.46.74,1.04,1.12,1.73,1.13.33,0,.65-.09.93-.28.28-.19.43-.42.43-.69-.04-.33-.05-.65-.05-.95,0-.3.01-.61.02-.9.02-.94.05-2.56.05-3.71,0-1.52-.07-3.37.13-4.78l.76-5.49c-.06-.17-.21-.3-.43-.37Z"/>
      <path class="cls-1" d="M374.82,213.04c.28-.32.5-.64.66-.95.18-.35.2-.71.07-1.09s-.52-.73-1.16-1.07c-.25-.13-.4-.13-.46-.02-.06.11-.15.23-.26.34-.37.45-.68.78-.92,1s-.46.37-.65.44c-.2.08-.38.09-.56.03-.18-.06-.39-.15-.61-.26-.36-.19-.66-.41-.92-.68-.26-.27-.52-.52-.79-.77-.92-.79-1.78-1.53-2.56-2.22-.79-.69-1.72-1.32-2.79-1.87-.4-.21-.84-.3-1.32-.27-.48.03-.95.12-1.41.27-.46.15-.87.35-1.22.6-.35.25-.59.49-.71.71-.27.53-.11.95.48,1.28.29.15.55.19.79.11.24-.08.46-.18.66-.29.33-.2.83-.29,1.49-.26.66.03,1.24.17,1.73.43.53.28,1.05.64,1.56,1.09.5.45,1.02.92,1.55,1.43.53.51,1.08,1,1.65,1.49.57.48,1.19.9,1.86,1.24.56.29,1.08.42,1.55.4.48-.02.91-.13,1.29-.33.39-.2.72-.46,1-.78Z"/>
      <path class="cls-1" d="M389.42,219.78c-.69-1.01-1.42-2.12-2.2-3.31-.25-.34-.51-.69-.77-1.03-.27-.34-.49-.73-.66-1.18-.1-.28-.18-.53-.23-.76-.05-.22-.02-.45.08-.67.1-.23.28-.47.54-.74s.65-.6,1.18-1c.14-.13.27-.22.4-.28.13-.06.14-.24.02-.55-.31-.81-.66-1.31-1.06-1.51-.4-.19-.8-.21-1.2-.03-.36.16-.72.4-1.1.7-.38.3-.69.67-.94,1.11-.25.44-.41.95-.47,1.52-.06.57.04,1.2.3,1.9.32.84.72,1.63,1.19,2.36.48.74.97,1.45,1.48,2.14.51.69.98,1.36,1.42,2.01.45.65.8,1.31,1.05,1.98.23.62.34,1.32.32,2.12-.03.8-.16,1.38-.42,1.76-.15.23-.27.48-.38.76-.1.28-.09.6.05.96.31.75.76.99,1.35.72.26-.12.54-.38.84-.77.3-.4.56-.87.76-1.4.2-.53.34-1.09.42-1.66.07-.57.01-1.12-.18-1.62-.51-1.34-1.11-2.52-1.8-3.54Z"/>
      <path class="cls-1" d="M384.24,221.5c-.23-.59-.55-1.17-.95-1.75-.41-.58-.89-1.09-1.45-1.55-.56-.45-1.2-.73-1.91-.84-.38-.05-.71-.1-.98-.16s-.52-.11-.75-.17c-.34-.08-.61-.17-.81-.25-.2-.09-.37-.15-.51-.2-.14-.05-.26-.09-.37-.11s-.24-.03-.39,0c-.64.14-1.18.61-1.62,1.42-.45.81-.78,1.75-1.02,2.82-.24,1.08-.37,2.19-.41,3.33-.03,1.15.04,2.13.22,2.96.23,1.05.61,1.93,1.15,2.64.54.71,1.12,1.28,1.76,1.71.64.44,1.28.73,1.92.88s1.2.17,1.66.07c.66-.15,1.27-.44,1.83-.87.56-.44,1.05-.99,1.47-1.64.42-.66.78-1.4,1.08-2.24.3-.84.52-1.73.66-2.68.11-.55.08-1.19-.07-1.91-.08-.38-.24-.86-.48-1.45ZM381.74,225.38c-.11.68-.31,1.32-.57,1.93-.27.61-.6,1.13-.98,1.57-.39.44-.79.7-1.21.8-.13.03-.35-.03-.64-.18-.3-.14-.61-.38-.93-.7-.32-.32-.63-.73-.93-1.21-.29-.49-.51-1.05-.65-1.7-.07-.3-.12-.66-.15-1.09-.04-.42-.04-.83,0-1.22.03-.39.1-.73.21-1.03.11-.3.27-.47.49-.52.09-.02.27.04.56.19.28.15.52.2.69.16.07-.01.17-.14.32-.36.14-.23.3-.48.46-.75.16-.27.32-.52.49-.76.17-.23.32-.36.45-.39.44-.1.85.14,1.24.69.39.56.75,1.32,1.08,2.3l.08.38c.13.57.13,1.2.02,1.88Z"/>
      <path class="cls-1" d="M397.29,186.02c-.88-4.7-2.21-9.24-3.97-13.5-1.76-4.27-3.95-7.96-6.51-10.97-2.68-3.15-5.69-4.78-8.95-4.86-.49-.01-.87.08-1.17.15-.07.02-.14.03-.21.05-.05.01-.09.02-.14.04-1.26.46-4.25,1.83-4.97,4.48-.2.73-2.2.92-4.32,1.11-2.13.2-4.79.44-7.39,1.33-.85.32-1.67.69-2.47,1.12-.11.06-.22.12-.34.17-.23.11-.48.24-.75.42-.02,0-.03.02-.05.03-1.39.86-2.67,1.89-3.79,3.04-2.3,2.36-4.22,4.95-5.71,7.7-1.49,2.75-2.6,5.49-3.3,8.14-.7,2.69-1.11,4.8-1.26,6.45-.28,3.19.02,5.95.9,8.22,1.22,3.81,1.2,4.46,3.09,7.68.01.02.76,1.36.77,1.38.54.91,1.45,2.75,3.31,1.01.94-.88.98-.59,2.02-1.36.57-.42,1.12-.86,1.67-1.29.21-.16.75-.57.91-.68.31-.25.62-.49.93-.74.67-.53.85-1.46.43-2.21-.81-1.47-1.64-3.17-2.18-4.57-1.17-3.07-1.61-6.03-1.31-8.81l.19-1.85c1.18-4.92,2.7-8.93,4.51-11.92.89-1.45,1.89-2.54,2.98-3.23.05-.04.11-.07.15-.12,1.1-.67,8.23-4.53,17.28.93.03.02,3.48,2.16,6.62,5.84l.13.15c.09.11.17.2.24.31.06.09.1.19.15.29.05.11.11.22.18.34.05.09.11.17.17.25.05.07.1.14.13.2v.05c.03.07.05.13.08.2,0,.02.02.04.03.06.54,1.1.92,2.11,1.19,3.16.47,1.79.76,3.73.87,5.76.11,2.04.09,3.82-.07,5.3h0c-.33,3.19-1.16,6.09-2.47,8.63,0,0-.67,1.24-.26,1.61.41.37,1.22.18,1.45.15,0,0,0,0,0,0,1.29-.2,2.64-.14,3.78.5,1.88,1.06,1.61,3.03,1.14,4.83-.22.86-.51,1.75-.28,2.64.05.2.14.38.23.56.38.62.86.34,1.07.06.87-1.15,1.71-2.35,2.48-3.64,2.03-3.42,3.26-7.48,3.66-12.07.31-3.58.02-7.8-.87-12.52Z"/>
    </g>
  </g>
</svg>