<?xml version="1.0" encoding="UTF-8"?>
<svg id="Calque_2" data-name="Calque 2" xmlns="http://www.w3.org/2000/svg" viewBox="0 0 113.45 59.11">
  <defs>
    <style>
      .cls-1 {
        fill: #fff;
      }
    </style>
  </defs>
  <g id="Calque_1-2" data-name="Calque 1">
    <path class="cls-1" d="M11.91,11.56c.07,1.19.14,2.25.28,3.31.36,2.65,1.42,5.15,3.15,7.41h0c.76,1,1.44,1.53,2.23,1.73,1.51.38,3.15.74,4.98.85-2.46-5.31-5.89-9.6-10.64-13.3"/>
    <path class="cls-1" d="M89.34,22.9h-.02c-1.42.04-2.53.7-3.23,1.9-.28.48-.37.91-.24,1.14.15.28.75.6,1.73.65,1.14.02,2.24-.65,2.83-1.76.13-.24.19-.62.2-.96.01-.4-.25-.76-.65-.87"/>
    <path class="cls-1" d="M13.06,33.79c-1.08,1.99-1.86,4.15-2.54,7.1,3.9-3.12,7.29-6.78,10.27-11.11-.8.08-1.54.15-2.28.24-2.44.29-4.23,1.52-5.45,3.77"/>
    <path class="cls-1" d="M107.62,30.12c-.6.99-1.33,1.99-2.16,2.97-8.58,10.13-19.45,16.82-33.22,20.46-.37.1-.77.04-1.11-.16-.33-.2-.57-.52-.66-.89-.03-.14-.07-.26-.11-.39-.14-.45-.31-.97-.26-1.56.09-1.07.26-2.15.52-3.22,1.3-5.37,2.11-10.26,2.49-14.96.07-.84.09-1.7.12-2.62l-5.78.1c-.21.97-.29,1.98-.39,3.05-.19,2.15-.39,4.36-1.56,6.52-.19.36-.53.62-.93.71-.4.1-.82.02-1.16-.22-1.64-1.15-1.62-2.69-1.61-3.61.01-1.16.05-2.27.09-3.34v-.05c.02-.72.05-1.44.07-2.16,0-.31,0-.61,0-.94l-2.92.02c-.13.86-.26,1.71-.39,2.56-.41,2.75-.83,5.58-1.38,8.4-.17.87-.31,1.78-.45,2.65-.51,3.18-1.03,6.46-2.81,9.7-.25.46-.74.75-1.26.75-.04,0-.07,0-.11,0-.51-.05-.94-.34-1.17-.78-.83-1.64-.66-3.03-.53-4.04l.02-.19c.31-2.53.64-5.05.97-7.57.27-2.03.53-4.07.79-6.1.19-1.48.34-2.96.51-4.52l.09-.87c-.93-.06-1.85-.06-2.81-.05l-.74,2.57c-.14.48-.51.85-.99.98-.47.14-.98.02-1.36-.32-1.12-1.02-1.22-2.21-1.28-3,0-.01,0-.03,0-.04l-2.85-.11c-.36,1.7-.65,3.43-.93,5.11-.67,3.94-1.36,8.01-2.89,12.01-.21.56-.74.92-1.33.92-.61-.01-1.13-.37-1.35-.91-.75-1.89-.85-2.65-.59-4.78.21-1.75.45-3.52.68-5.23.17-1.29.34-2.56.51-3.83.14-1.07.25-2.14.38-3.3l.02-.14-2.85.05c-.13.68-.21,1.39-.28,2.14-.19,1.96-.41,4.17-1.89,6.25-.31.43-.83.66-1.35.59-.49-.05-.94-.39-1.14-.88-.89-2.14-.8-4.17-.71-5.96.04-.73.07-1.44.04-2.11l-3.04-.12c-3.91,7.44-9.87,12.79-14.66,16.65-.78.63-1.6,1.18-2.41,1.61-1.55.83-2.67.48-3.21.2-.53-.28-1.45-1.01-1.63-2.73-.08-.75-.1-1.88.26-2.99.82-2.58,1.75-5.51,2.87-8.33,1.24-3.13,3.15-5.5,5.68-7.06-2.96-2.43-4.76-5.89-5.59-10.73-.29-1.68-.31-3.37-.34-5,0-.56-.02-1.11-.03-1.67-.03-.78.1-1.52.23-2.14.17-.81.61-1.45,1.24-1.78.45-.24,1.21-.45,2.23-.03.57.23,1.23.52,1.8,1,5.07,4.22,10.67,9.55,13.78,17.11.15.37.29.74.42,1.1l2.45-.09.27-6.78c.03-.75.64-1.36,1.39-1.38,1.18-.04,2.7.39,3.14,2.73.21,1.12.32,2.29.42,3.31l.06.63c.05.54.09,1.09.13,1.65l3.25-.03c.01-.16.02-.31.03-.46.09-1.31.17-2.54.21-3.76.06-2,.09-3.67,0-5.36l-.03-.51c-.18-3.69-.2-4.08.7-5.55.31-.5.91-.77,1.5-.66,1.74.36,2.03,1.85,2.15,2.49.02.1.04.2.06.29.82,3.12,1.1,6.58.91,10.89-.04.83-.07,1.67-.1,2.59l2.49-.04c.06-.44.08-.9.1-1.38.05-1.21.12-2.59.86-3.92.37-.66,1.19-.92,1.87-.6,1.96.92,1.92,2.69,1.9,3.54,0,.14,0,.26,0,.38.02.66,0,1.29-.04,1.95.87.09,1.79.1,2.84.04.15-2.47.26-5.08.1-7.71l-.07-1.07c-.13-1.98-.25-4.03-.32-6.05-.02-.65.11-1.23.23-1.75.04-.19.09-.38.12-.57.13-.76.84-1.28,1.61-1.18,2.38.33,2.66,2.17,2.78,2.95.01.09.03.18.04.26.94,4.83,1.32,9.29,1.18,13.62-.01.43-.03.86-.05,1.3l2.69.11.04-.91c.07-1.85.15-3.64.2-5.43.02-.63,0-1.29,0-1.92v-.08c-.01-.47-.02-.94-.02-1.41,0-.55,0-1.57.76-2.26.24-.22.78-.59,1.62-.51,1.25.12,2.18,1.48,2.35,2.38.35,1.85.58,3.66.69,5.4.09,1.38.09,2.73.1,4.15v.22s0,.33,0,.33l5.6.22s0-.06,0-.09l.03-3.31c.04-4.23.08-8.59.05-12.88-.01-1.64-.02-3.33,1.16-4.19,1.11-.8,2.55-.4,4.32.2,6.61,2.26,12.29,5.09,17.35,8.67,4.24,3,7.71,6.05,10.58,9.32,2.36,2.69,2.54,4.51.72,7.51M110.36,20.2c-3.11-3.55-6.84-6.83-11.38-10.04-5.43-3.83-11.49-6.87-18.52-9.26-1.87-.64-5.36-1.83-8.5.42-3.11,2.25-3.08,5.82-3.06,7.95,0,.21,0,.43,0,.64-1.04-.89-2.34-1.52-3.83-1.66-.85-.08-1.7,0-2.49.24-1.12-4.66-4.88-5.7-6.55-5.93-3.23-.42-6.19,1.75-6.74,4.95-.02.11-.05.22-.07.33-.15.67-.39,1.69-.34,2.93.05,1.37.12,2.73.2,4.07-.3-.03-.61-.04-.91-.02-.18-1.36-.43-2.66-.76-3.91,0-.03-.01-.07-.01-.07-.89-4.64-4.31-5.83-5.74-6.12-.03,0-.06-.01-.09-.02-2.45-.46-4.97.66-6.26,2.78-1.22,1.98-1.49,3.32-1.47,5.5-.83-.26-1.73-.38-2.67-.34-1.79.06-3.39.91-4.46,2.2-3.23-4.51-7.12-8.08-10.75-11.1-1.03-.86-2.11-1.35-3.03-1.72-2.09-.84-4.26-.75-6.12.24-1.83.98-3.13,2.77-3.57,4.91-.17.84-.36,1.96-.32,3.22.02.52.02,1.05.03,1.59.02,1.72.05,3.68.4,5.7.65,3.77,1.84,6.93,3.6,9.54-1.41,1.64-2.56,3.57-3.43,5.77-1.17,2.96-2.12,5.96-2.98,8.63-.6,1.87-.57,3.68-.45,4.86.29,2.82,1.77,5.12,4.06,6.33,2.29,1.21,5.04,1.13,7.54-.22,1.06-.57,2.11-1.27,3.11-2.08,3.44-2.76,7.46-6.28,11.04-10.77.06.17.13.34.2.51.84,2,2.68,3.4,4.82,3.66.21.03.43.04.64.05-.08,1.91.21,3.28,1.03,5.35.91,2.26,3.08,3.75,5.53,3.8h.11c2.5-.02,4.69-1.54,5.59-3.87,1.43-3.73,2.18-7.38,2.8-10.92.39.13.79.21,1.19.25-.12.92-.24,1.85-.36,2.77-.33,2.53-.66,5.07-.97,7.59l-.03.2c-.16,1.24-.48,3.81,1,6.71.93,1.82,2.71,3.04,4.76,3.26.2.02.4.04.58.04h.04c2.2,0,4.23-1.2,5.29-3.14,2.16-3.94,2.77-7.79,3.31-11.18,0-.04.01-.08.02-.11,1.3.71,2.83.91,4.27.56.33-.08.66-.19.97-.32-.14.64-.3,1.3-.46,1.96-.31,1.3-.53,2.62-.63,3.93-.12,1.5.26,2.69.47,3.36l.02.07c.39,1.55,1.39,2.91,2.76,3.73,1.39.84,3.1,1.07,4.65.66,14.71-3.89,26.34-11.06,35.55-21.93.99-1.16,1.85-2.36,2.58-3.56,2.87-4.73,2.5-8.72-1.2-12.93"/>
    <path class="cls-1" d="M94.52,24.82s0,.03,0,.05c-.22,2.36-1.5,4.17-3.7,5.23-1.07.52-2.12.78-3.14.78-.08,0-.15,0-.23,0-1.14-.04-2.22-.42-3.23-1.1-1.91-1.3-2.71-3.53-2.08-5.82.63-2.29,2.44-4.02,4.86-4.62,2.26-.57,4.55.03,5.99,1.55,1.03,1.09,1.65,2.13,1.54,3.94M78.52,11.18c.25,11.39.14,22.6-2.03,33.73-.17.9.7,1.67,1.55,1.32,4.55-1.83,8.79-4.13,12.86-6.98,4.49-3.14,8.46-6.95,11.79-11.31.31-.4.83-1.09.85-1.29-.04-.16-.52-.68-.99-1.19-5.95-6.48-13.3-11.53-22.41-15.4-.78-.33-1.65.27-1.63,1.11"/>
  </g>
</svg>