<?xml version="1.0" encoding="UTF-8"?>
<svg id="Calque_2" xmlns="http://www.w3.org/2000/svg" version="1.1" viewBox="0 0 101.1 116">
  <!-- Generator: Adobe Illustrator 29.5.1, SVG Export Plug-In . SVG Version: 2.1.0 Build 141)  -->
  <defs>
    <style>
      .st0 {
        fill: #009ba4;
      }
    </style>
  </defs>
  <g id="Calque_1-2">
    <path class="st0" d="M95.3,27.2c-11.9-2.5-20.7-12.5-21.9-24.6V0h-20v79.3c0,9.3-7.6,16.8-16.9,16.7-5.2,0-10.1-2.5-13.3-6.6h0,0c-5.6-7.4-4.2-17.9,3.2-23.5,4.4-3.3,10-4.3,15.2-2.6v-20.3C21.6,40.2,3.1,54.2.3,74.3c-1.5,11.2,2.2,22.6,10.1,30.7,14.2,14.5,37.4,14.8,51.9.6,7.1-6.9,11.1-16.4,11.1-26.2v-40.5c8.1,5.8,17.8,8.9,27.7,8.9v-19.9c-1.9,0-3.9-.2-5.8-.6h0Z"/>
  </g>
</svg>