<?xml version="1.0" encoding="UTF-8"?>
<svg id="Calque_2" data-name="Calque 2" xmlns="http://www.w3.org/2000/svg" viewBox="0 0 101.09 116">
  <defs>
    <style>
      .cls-1 {
        fill: #fff;
      }
    </style>
  </defs>
  <g id="Calque_1-2" data-name="Calque 1">
    <path class="cls-1" d="M95.27,27.18c-11.89-2.54-20.74-12.51-21.86-24.62V0h-19.98v79.29c-.03,9.28-7.58,16.77-16.85,16.74-5.23-.02-10.14-2.47-13.31-6.63h-.01s.01,0,.01,0c-5.61-7.38-4.17-17.92,3.21-23.52,4.35-3.31,10.04-4.29,15.25-2.63v-20.3C21.65,40.17,3.12,54.2.35,74.28c-1.55,11.24,2.18,22.56,10.1,30.67,14.17,14.5,37.41,14.77,51.91.6,7.07-6.91,11.05-16.37,11.05-26.25v-40.51c8.07,5.77,17.75,8.87,27.68,8.85v-19.85c-1.95,0-3.9-.2-5.82-.6Z"/>
  </g>
</svg>