<?xml version="1.0" encoding="utf-8"?>
<!-- Generator: Adobe Illustrator 24.1.3, SVG Export Plug-In . SVG Version: 6.00 Build 0)  -->
<svg version="1.1" id="Calque_1" xmlns="http://www.w3.org/2000/svg" xmlns:xlink="http://www.w3.org/1999/xlink" x="0px" y="0px"
	 viewBox="0 0 41.4 41.4" style="enable-background:new 0 0 41.4 41.4;" xml:space="preserve">
<style type="text/css">
	.st0{fill:#FFFFFF;}
</style>
<g id="Calque_2_1_">
	<g id="Calque_1-2">
		<path class="st0" d="M27.6,14.7c-2.1-1.4-4.5-2.1-7-2c-2.5,0-4.9,0.7-7,2c3.8,0.5,6.7,3.6,7,7.4C20.9,18.3,23.8,15.2,27.6,14.7z"
			/>
		<path class="st0" d="M28.6,16.7c-3.3,0-6,2.7-6,6s2.7,6,6,6s6-2.7,6-6v0C34.6,19.4,31.9,16.7,28.6,16.7z M28.6,25.8
			c-1.8,0-3.2-1.4-3.2-3.2s1.4-3.2,3.2-3.2c1.8,0,3.2,1.4,3.2,3.2S30.4,25.8,28.6,25.8z"/>
		<path class="st0" d="M12.8,16.7c-3.3,0-6,2.7-6,6s2.7,6,6,6s6-2.7,6-6l0,0C18.8,19.4,16.1,16.7,12.8,16.7z M12.8,25.8
			c-1.8,0-3.2-1.4-3.2-3.2c0-1.8,1.4-3.2,3.2-3.2s3.2,1.4,3.2,3.2C15.9,24.3,14.5,25.7,12.8,25.8z"/>
		<path class="st0" d="M30,0H11.4C5.1,0,0,5.1,0,11.4V30c0,6.3,5.1,11.4,11.4,11.4c0,0,0,0,0,0H30c6.3,0,11.4-5.1,11.4-11.4
			c0,0,0,0,0,0V11.4C41.4,5.1,36.3,0,30,0C30,0,30,0,30,0z M28.6,30.6c-1.9,0-3.8-0.7-5.3-2l0,0L21,30.4c-0.2,0.2-0.5,0.2-0.7,0
			L18,28.7c-1.7,1.5-4,2.2-6.2,1.9c-4.4-0.5-7.5-4.5-7-8.9c0.2-1.8,1-3.4,2.3-4.7l-1.3-1.3c-0.2-0.2-0.2-0.6,0-0.8
			c0.1-0.1,0.2-0.1,0.4-0.2h3.3c3.2-2.5,7.1-3.9,11.1-4c4.1,0.1,8,1.5,11.2,4h3.3c0.5,0,0.8,0.7,0.4,1L34.2,17
			c1.5,1.5,2.3,3.5,2.4,5.6C36.6,27,33,30.6,28.6,30.6L28.6,30.6z"/>
	</g>
</g>
</svg>
