<?xml version="1.0" encoding="UTF-8"?><svg xmlns="http://www.w3.org/2000/svg" viewBox="0 0 313.39 190.6"><defs><style>.d{fill:#fff;}</style></defs><g id="a"/><g id="b"><g id="c"><g><path class="d" d="M114.82,182.53c-.14,0-.27,.02-.4,.02-.13,0-.27,0-.41,0-.36,0-.8-.02-1.33-.07-.53-.04-1.15-.11-1.88-.19-.73-.08-1.36-.14-1.89-.18-.53-.04-.98-.06-1.34-.06-.21,0-.42,0-.61,.02-.2,0-.38,.02-.56,.04-.37,.04-.57,.27-.59,.7,0,.3,.14,.49,.43,.58,.14-.01,.27-.02,.41-.02h.41c.37,0,.83,.02,1.38,.05,.55,.03,1.18,.09,1.92,.15,.73,.07,1.37,.12,1.91,.16,.54,.03,.99,.05,1.35,.05,.17,0,.33,0,.49,0,.16,0,.31-.01,.46-.02l.06-.04s.02-.02,.06-.02c.06,0,.11,0,.16,.02,.1,0,.16-.02,.16-.04,0-.02-.02-.05-.05-.09,.12-.2,.17-.39,.17-.56,0-.24-.1-.41-.3-.51Z"/><path class="d" d="M209.16,182.13c-.18-.02-.37-.03-.56-.04-.2,0-.4-.01-.61-.01-.36,0-.8,.02-1.33,.06-.53,.04-1.16,.1-1.89,.18s-1.36,.14-1.88,.19c-.53,.04-.97,.07-1.33,.07-.14,0-.27,0-.41,0s-.27-.01-.41-.02c-.2,.1-.3,.27-.3,.51,0,.18,.06,.37,.17,.56-.03,.04-.05,.07-.05,.09,0,.03,.05,.04,.16,.04,.04,0,.1-.02,.16-.02,.04,0,.06,0,.06,.02l.06,.04c.15,.01,.3,.02,.46,.02,.16,0,.32,0,.49,0,.36,0,.81-.02,1.35-.05,.54-.04,1.18-.09,1.91-.16,.73-.07,1.37-.12,1.92-.15,.55-.04,1.01-.05,1.38-.05h.41c.13,0,.27,0,.4,.02,.29-.09,.43-.28,.43-.58-.02-.42-.22-.66-.59-.7Z"/><path class="d" d="M128.57,175.62c-.06-.02-.12-.04-.18-.05-.06-.01-.11-.04-.15-.08-.08-.08-.15-.14-.22-.17-.08-.03-.14-.04-.2-.04h-.18c-.37,0-.63,.13-.78,.4-.7,1.43-1.37,3.09-2.01,4.96-.28,.87-.57,1.84-.87,2.9-.3,1.06-.53,2.11-.69,3.15-.09-.38-.19-.79-.29-1.24-.1-.45-.21-.91-.32-1.38-.11-.46-.23-.92-.34-1.38-.12-.45-.23-.85-.34-1.22-.24-.81-.48-1.56-.72-2.25-.25-.69-.51-1.34-.79-1.94-.61-.42-1.03-.63-1.25-.63-.12,0-.24,.04-.36,.1-.13,0-.3,.17-.49,.52,.73,1.49,1.46,3.64,2.19,6.44,.39,1.5,.75,2.77,1.08,3.82,.34,1.05,.65,1.9,.95,2.57,.33,.21,.59,.31,.8,.31,.18,0,.34-.07,.47-.21,.19-.47,.38-1.05,.57-1.72,.19-.67,.38-1.47,.59-2.39,.45-1.92,.83-3.27,1.16-4.07,1.07-2.77,1.9-4.66,2.48-5.69,.07-.18,.11-.32,.11-.42s-.02-.17-.06-.21-.09-.07-.15-.09Z"/><path class="d" d="M131.6,177.41s-.02-.03-.02-.08c0-.08,.01-.15,.03-.21,0-.14-.02-.21-.06-.21-.03,0-.08,.02-.14,.06-.29-.16-.57-.25-.84-.25-.36-.01-.61,.11-.77,.37,0,.18,.01,.36,.01,.53,0,.17,0,.35,0,.53-.02,.47-.07,1.05-.16,1.74-.09,.69-.21,1.51-.36,2.46-.15,.96-.27,1.78-.35,2.47-.08,.69-.13,1.27-.15,1.75,0,.28-.01,.54,0,.8,0,.26,.02,.51,.04,.74,.04,.49,.38,.76,1.02,.8,.45,.01,.74-.17,.89-.54-.01-.18-.01-.36,0-.53,0-.17,.01-.35,.02-.53,.02-.49,.06-1.09,.14-1.8,.08-.71,.18-1.55,.32-2.5,.14-.96,.25-1.79,.32-2.49,.08-.71,.12-1.3,.14-1.77,0-.22,.01-.44,.01-.65,0-.21,0-.41-.01-.61l-.06-.09Z"/><path class="d" d="M140.02,183.67c-.39-1.34-.77-2.83-1.14-4.47-.03-.28-.07-.56-.11-.86-.04-.29-.09-.58-.13-.85-.12-.67-.39-1.17-.8-1.5-.17-.13-.35-.19-.56-.19-.28,0-.47,.1-.56,.29-.19,.45-.4,.98-.61,1.6-.21,.62-.45,1.35-.7,2.18-.58,1.9-1.01,3.2-1.27,3.88-.03,.09-.17,.17-.42,.23-.25,.04-.41,.11-.47,.19-.06,.06-.09,.12-.09,.21s.1,.2,.31,.35c.19,.14,.29,.27,.29,.38-.05,.46-.29,1.2-.74,2.21-.33,.75-.49,1.4-.49,1.94v.19c.03,.28,.29,.49,.78,.63,.06,.03,.11,.04,.17,.04h.15c.22,0,.37-.08,.45-.25,.24-.51,.48-1.29,.74-2.31,.13-.56,.25-1.02,.37-1.4,.11-.37,.21-.67,.28-.89,.33-.27,.78-.43,1.36-.5l1.52-.13c.3,.71,.54,1.59,.74,2.65,.19,.97,.65,1.52,1.38,1.65,.11,0,.28-.1,.51-.29,.25-.21,.38-.45,.38-.73,0-.15-.04-.35-.13-.58-.4-1.08-.8-2.3-1.18-3.64Zm-3.95-.28c.33-1.14,.72-2.3,1.16-3.46,.07,.28,.14,.56,.21,.84,.07,.28,.14,.55,.21,.83,.08,.31,.13,.6,.18,.89,.04,.28,.08,.57,.11,.84-1.01,0-1.64,.02-1.88,.06Z"/><path class="d" d="M144.53,181.28c-.28-.54-.44-.85-.47-.92-.13-.35-.2-.72-.2-1.12,0-1.08,.4-2,1.2-2.76,.09-.08,.18-.12,.27-.12,.06,0,.17,.03,.33,.08,.03,.01,.09,.02,.18,.02,.08,0,.14-.02,.2-.04,.43-.21,.65-.45,.65-.73,0-.17-.08-.32-.22-.46-.31-.32-.78-.48-1.41-.48-.3,0-.63,.08-1,.23-.74,.33-1.32,.88-1.72,1.65-.36,.67-.54,1.43-.54,2.27,0,1.03,.48,2.41,1.43,4.13,.97,1.74,1.45,3.04,1.45,3.92,0,.65-.16,1.28-.47,1.88-.08,.15-.23,.24-.45,.25-.22,.03-.36,.07-.42,.12-.22,.24-.33,.44-.33,.61,0,.28,.22,.51,.67,.69,.1,.04,.23,.06,.38,.06,.34,0,.73-.15,1.16-.44,.54-.38,.87-.68,1.01-.92,.4-.71,.6-1.44,.6-2.21,0-.93-.36-2.07-1.07-3.4-.54-1-.95-1.77-1.23-2.31Z"/><path class="d" d="M155.54,174.84c-.21-.03-.4-.05-.57-.07-.18-.02-.33-.02-.46-.02-.14,0-.29,.02-.45,.04-.19,0-.33,.24-.41,.72,.06,.03,.16,.14,.29,.33,.09,.16,.19,.25,.28,.25,.02,0,.03,0,.04,0,0,0,.02-.01,.04-.01,.14,.97,.21,2.03,.21,3.2,0,.8-.05,1.99-.14,3.55-.1,1.56-.15,2.74-.15,3.53,0,.6,.02,1.17,.06,1.71,.04,.54,.1,1.05,.18,1.53,.02,.18,.17,.34,.45,.49l.5,.25,.17,.09c.51-.52,.76-1.28,.76-2.28,0-.27-.02-.68-.07-1.25-.05-.58-.07-1.01-.07-1.29,0-.45,.03-.8,.1-1.05,.46-.08,.92-.28,1.39-.63l1.1-1.03c.43-.4,.95-1.22,1.55-2.44,.25-.49,.38-1.01,.38-1.54,0-.57-.17-1.07-.5-1.52-1.05-1.39-2.61-2.23-4.68-2.55Zm3.25,3.89c-.16,1.22-.95,2.46-2.36,3.71,.02-.15,.02-.31,.02-.47v-.56c0-.57-.02-1.24-.05-2.02-.03-.78-.08-1.69-.14-2.72,.29,.12,.54,.22,.75,.29,.21,.08,.39,.14,.54,.2,.17,.06,.32,.11,.43,.16,.54,.28,.81,.69,.81,1.23v.18Z"/><path class="d" d="M168.03,184.78c-.09,0-.23,.01-.41,.04-.19,.03-.32,.04-.39,.04-.17,.07-.38,.19-.64,.34-.26,.16-.57,.36-.95,.59-.7,.45-1.24,.74-1.63,.88v-.59c0-.55,.01-1.21,.03-1.96s.07-1.61,.14-2.57c.06-.87,.11-1.66,.13-2.35,.03-.69,.04-1.3,.04-1.84,0-.18,0-.35-.01-.5,0-.15-.01-.3-.01-.44-.09-.39-.42-.59-.98-.59-.3,0-.54,.09-.74,.27,.03,.32,.05,.64,.07,.97,.01,.33,.02,.67,.02,1.03,0,1.05-.11,2.72-.34,5.03-.09,.96-.15,1.82-.19,2.6-.04,.77-.06,1.46-.06,2.05v.46l.42,.52c.18,.25,.37,.37,.58,.37,.09,0,.18-.02,.27-.06,.39-.15,.8-.35,1.24-.6,.44-.25,.91-.54,1.42-.88l2.61-1.73c.09-.1,.13-.21,.13-.35,0-.11-.05-.25-.13-.42-.13-.22-.35-.33-.65-.33Z"/><path class="d" d="M176.54,183.67c-.39-1.34-.77-2.83-1.14-4.47-.03-.28-.07-.56-.11-.86-.04-.29-.09-.58-.13-.85-.12-.67-.39-1.17-.8-1.5-.16-.13-.35-.19-.56-.19-.28,0-.47,.1-.56,.29-.19,.45-.4,.98-.61,1.6-.21,.62-.45,1.35-.7,2.18-.58,1.9-1.01,3.2-1.27,3.88-.03,.09-.17,.17-.42,.23-.25,.04-.41,.11-.47,.19-.06,.06-.09,.12-.09,.21s.1,.2,.31,.35c.19,.14,.29,.27,.29,.38-.05,.46-.29,1.2-.74,2.21-.33,.75-.49,1.4-.49,1.94v.19c.03,.28,.29,.49,.78,.63,.06,.03,.11,.04,.17,.04h.15c.22,0,.37-.08,.45-.25,.24-.51,.48-1.29,.74-2.31,.13-.56,.25-1.02,.37-1.4,.11-.37,.21-.67,.28-.89,.33-.27,.78-.43,1.36-.5l1.52-.13c.3,.71,.54,1.59,.74,2.65,.19,.97,.65,1.52,1.38,1.65,.11,0,.28-.1,.51-.29,.25-.21,.38-.45,.38-.73,0-.15-.04-.35-.13-.58-.4-1.08-.8-2.3-1.18-3.64Zm-3.95-.28c.33-1.14,.72-2.3,1.16-3.46,.08,.28,.15,.56,.21,.84,.07,.28,.14,.55,.21,.83,.08,.31,.13,.6,.18,.89,.05,.28,.08,.57,.11,.84-1.01,0-1.64,.02-1.88,.06Z"/><path class="d" d="M186.98,181.65h-.11c-.08,.01-.14,.02-.19,.02h-.12s-.08,0-.09,.02c-.12,0-.26,.04-.41,.13-.16,.09-.27,.24-.35,.45-.19,.54-.36,.86-.51,.96-1.98,1.54-3.46,2.5-4.44,2.86-.01,0-.03,0-.03,.01,0,0-.02,.01-.03,.01-.08,0-.14-.05-.19-.16-.05-.11-.09-.16-.12-.18-.02-.1-.02-.19-.02-.27v-.27c0-1.03,.32-2.16,.96-3.4,.52-1.04,1.07-1.98,1.64-2.81,.57-.83,1.17-1.56,1.8-2.2l.83-.44c.27-.13,.4-.32,.4-.59,0-.08,0-.14-.02-.17-.07-.42-.41-.62-1.01-.62-.65,0-1.42,.53-2.3,1.6-1.73,2.14-2.98,4.35-3.77,6.61-.25,.75-.38,1.37-.38,1.86,0,.61,.16,1.11,.49,1.5,.58,.72,1.21,1.08,1.9,1.08,.22,0,.4-.03,.53-.08,1.28-.45,2.44-1.12,3.48-2.02-.04,.4-.08,.76-.12,1.06-.04,.3-.07,.56-.1,.75,0,.1,0,.22-.02,.36-.02,.15-.04,.32-.07,.51-.03,.2-.05,.37-.07,.51-.02,.15-.02,.27-.02,.37,0,.68,.32,1.14,.96,1.4,.1,.04,.23,.06,.38,.06,.48,0,.72-.17,.74-.52l.2-3.54c.03-.68,.11-1.31,.26-1.88,.14-.57,.32-1.09,.53-1.56,.06-.11,.09-.24,.09-.4,0-.25-.14-.57-.42-.96-.04-.06-.13-.08-.25-.08Z"/><path class="d" d="M196.98,176.96c-.53-.29-1-.44-1.41-.44-.15,0-.24,0-.27,.02-.37,.08-.74,.17-1.09,.25-.36,.08-.72,.18-1.1,.27-.42,.11-.8,.22-1.14,.33-.34,.11-.65,.24-.94,.38l-1.43,.54c-.51,.24-.77,.56-.78,.96,0,.45,.41,.74,1.23,.87-.05,.63-.08,1.1-.11,1.42-.03,.32-.05,.51-.07,.56-.03,.11-.16,.22-.38,.33-.19,.1-.3,.21-.34,.33v.08c0,.21,.19,.44,.56,.69-.03,.23-.06,.48-.08,.74-.02,.26-.03,.52-.03,.8s.01,.56,.03,.83c.02,.28,.05,.57,.08,.88,.04,.42,.24,.79,.58,1.13,.34,.33,.72,.55,1.14,.65,1.16,.28,2.45,.42,3.88,.42,.13,0,.27,0,.4-.01,.13,0,.27-.01,.4-.01,.21-.02,.38-.09,.5-.24,.13-.15,.19-.32,.19-.51,0-.03,0-.06-.01-.08,0-.03-.01-.06-.01-.08-.1-.6-.33-.9-.69-.9-.03,0-.05,0-.07,.01-.02,0-.04,0-.07,0-.09,0-.2,.05-.34,.16-.13,.1-.26,.16-.38,.16s-.23,0-.32,0c-.1,0-.2,.01-.3,.01-1.4,0-2.41-.2-3.01-.61-.12-.27-.18-.58-.18-.96,0-.65,.14-1.47,.42-2.44,.42-.14,.98-.22,1.67-.25,.84-.03,1.41-.07,1.72-.13,.21,0,.36-.06,.45-.17,.09-.1,.16-.17,.21-.21,.05-.04,.09-.07,.1-.08,.1-.06,.15-.13,.15-.23,0-.08-.1-.26-.31-.54-.3-.17-.65-.25-1.07-.25-.12,0-.27,.01-.44,.03-.17,.02-.38,.04-.61,.07-.24,.03-.44,.05-.62,.07-.17,.02-.32,.03-.43,.03-.31,0-.59-.04-.83-.13,.03-.64,.07-1.16,.12-1.56,.05-.4,.11-.69,.17-.86,.28-.11,.63-.23,1.03-.34,.4-.12,.87-.25,1.41-.38,.54-.14,1.01-.27,1.41-.39,.4-.12,.74-.23,1.03-.34,.11-.06,.16-.15,.16-.27,0-.07-.03-.18-.09-.33-.06-.15-.1-.26-.11-.31Z"/><path class="d" d="M161.04,108.15l-1.57-.38c-.66-.15-1.24-.23-1.74-.23-1.49,0-2.29,.51-2.4,1.52l-3.31,32.94c-1.05-2.28-2.17-4.93-3.35-7.97-1.19-3.04-2.42-6.22-3.69-9.56-1.27-3.49-2.46-6.48-3.56-8.96-1.1-2.48-2.1-4.5-2.98-6.07-.88-.66-1.71-1.14-2.49-1.44-.77-.3-1.38-.46-1.82-.46-2.1,0-3.18,.56-3.23,1.67l-1.74,20.34c-.67,8.04-.99,14.75-.99,20.11,0,3.14,.08,6.1,.25,8.88l.17,2.51c.17,1.01,.61,1.62,1.33,1.82l1.57,.68c.55,.3,1.05,.46,1.49,.46s.86-.18,1.24-.53c.94-.46,1.41-1.37,1.41-2.73v-.3c-.11-2.02-.19-4.01-.25-5.96-.06-1.95-.08-3.88-.08-5.81v-6.3c0-2.23,.01-4.45,.04-6.68,.03-2.23,.09-4.39,.21-6.49,.11-2.1,.27-4.06,.5-5.88,.11-.71,.36-1.06,.74-1.06,.17,0,.3,.15,.41,.46,1.33,3.39,2.62,6.68,3.89,9.87s2.5,6.17,3.69,8.96c1.19,2.78,2.3,5.32,3.35,7.63,1.05,2.3,2.01,4.24,2.9,5.81,1.16,2.13,2.6,3.19,4.31,3.19,.83,0,1.59-.29,2.28-.87,.69-.58,1.04-1.25,1.04-2.01-.11-.96-.17-1.88-.17-2.77v-2.62c0-2.73,.12-5.77,.37-9.11,.25-3.34,.59-7.06,1.04-11.16l2.24-20.42c-.17-.51-.53-.86-1.08-1.06Z"/><path class="d" d="M65.28,90.95h1.15l1.43,2.13h1.71l-1.63-2.38c.42-.16,.77-.41,1.03-.75,.26-.34,.4-.78,.4-1.32v-.02c0-.64-.19-1.14-.57-1.52-.45-.45-1.1-.68-1.94-.68h-3.05v6.67h1.47v-2.13Zm0-3.21h1.46c.36,0,.65,.08,.85,.24,.2,.16,.3,.4,.3,.71v.02c0,.29-.1,.51-.29,.68-.19,.17-.47,.26-.83,.26h-1.48v-1.91Z"/><polygon class="d" points="72.15 90.38 75.29 90.38 75.29 89.07 72.15 89.07 72.15 87.72 75.72 87.72 75.72 86.42 70.7 86.42 70.7 93.08 75.76 93.08 75.76 91.78 72.15 91.78 72.15 90.38"/><path class="d" d="M81.72,91.99c.12-.26,.18-.55,.18-.88v-.02c0-.29-.05-.54-.14-.75-.09-.21-.23-.39-.41-.55-.18-.15-.4-.29-.67-.4-.26-.11-.56-.21-.9-.3-.29-.08-.52-.14-.71-.2s-.34-.12-.44-.18c-.11-.06-.18-.13-.22-.21-.04-.08-.06-.17-.06-.28v-.02c0-.17,.07-.3,.21-.41,.14-.11,.36-.17,.64-.17s.57,.06,.86,.18c.29,.12,.58,.28,.88,.48l.76-1.11c-.34-.27-.72-.48-1.13-.63-.41-.15-.86-.22-1.35-.22-.34,0-.66,.05-.94,.14-.28,.09-.53,.23-.73,.41-.21,.18-.36,.39-.48,.63-.11,.24-.17,.52-.17,.82v.02c0,.33,.05,.61,.16,.83,.1,.22,.25,.41,.44,.56,.19,.15,.42,.27,.7,.38,.27,.1,.58,.19,.92,.28,.28,.07,.51,.14,.68,.2,.17,.06,.31,.13,.41,.19,.1,.06,.17,.13,.2,.2,.04,.08,.05,.16,.05,.25v.02c0,.2-.08,.35-.25,.46-.17,.11-.4,.17-.71,.17-.38,0-.73-.07-1.05-.22-.32-.15-.63-.34-.94-.59l-.87,1.04c.4,.36,.84,.63,1.33,.81,.49,.17,.99,.26,1.5,.26,.36,0,.69-.05,.99-.14,.3-.09,.55-.23,.77-.4,.21-.18,.38-.39,.5-.65Z"/><polygon class="d" points="84.72 93.08 86.19 93.08 86.19 87.77 88.22 87.77 88.22 86.42 82.7 86.42 82.7 87.77 84.72 87.77 84.72 93.08"/><path class="d" d="M88.77,93.08h1.49l.61-1.49h2.82l.61,1.49h1.53l-2.85-6.71h-1.35l-2.86,6.71Zm4.4-2.79h-1.77l.89-2.16,.89,2.16Z"/><path class="d" d="M96.76,86.42v3.81c0,.98,.25,1.72,.77,2.22,.51,.49,1.22,.74,2.11,.74,.44,0,.85-.06,1.21-.19,.36-.12,.67-.31,.92-.56,.25-.25,.45-.56,.59-.94,.14-.37,.21-.82,.21-1.32v-3.76h-1.47v3.82c0,.53-.13,.93-.38,1.2-.25,.27-.61,.4-1.06,.4s-.8-.14-1.06-.41c-.25-.28-.38-.69-.38-1.23v-3.77h-1.46Z"/><path class="d" d="M109.62,88.63v-.02c0-.64-.19-1.14-.57-1.52-.45-.45-1.1-.68-1.94-.68h-3.05v6.67h1.47v-2.13h1.15l1.43,2.13h1.71l-1.63-2.38c.42-.16,.77-.41,1.03-.75,.26-.34,.4-.78,.4-1.32Zm-1.48,.08c0,.29-.1,.51-.29,.68-.19,.17-.47,.26-.83,.26h-1.48v-1.91h1.46c.36,0,.65,.08,.85,.24,.2,.16,.3,.4,.3,.71v.02Z"/><path class="d" d="M113.23,86.37l-2.86,6.71h1.5l.61-1.49h2.82l.61,1.49h1.53l-2.85-6.71h-1.35Zm-.23,3.92l.89-2.16,.89,2.16h-1.77Z"/><polygon class="d" points="119.82 86.42 118.47 86.42 118.47 93.08 119.91 93.08 119.91 88.84 123.14 93.08 124.39 93.08 124.39 86.42 122.94 86.42 122.94 90.52 119.82 86.42"/><polygon class="d" points="129.01 93.08 129.01 87.77 131.04 87.77 131.04 86.42 125.51 86.42 125.51 87.77 127.54 87.77 127.54 93.08 129.01 93.08"/><rect class="d" x="134.69" y="89.43" width="2.93" height="1.39"/><path class="d" d="M145.94,92.97c.31-.08,.57-.19,.79-.34,.22-.15,.39-.34,.5-.57,.12-.23,.18-.49,.18-.8v-.02c0-.44-.11-.79-.33-1.04-.22-.25-.53-.45-.91-.59,.12-.06,.23-.14,.34-.23,.1-.09,.19-.19,.27-.31,.08-.12,.14-.25,.19-.4s.07-.31,.07-.5v-.02c0-.45-.15-.83-.46-1.13-.4-.39-.97-.59-1.74-.59h-3.09v6.67h3.17c.37,0,.71-.04,1.02-.11Zm-2.76-5.26h1.45c.31,0,.55,.06,.71,.18,.17,.12,.25,.29,.25,.51v.02c0,.25-.1,.43-.29,.54-.19,.11-.45,.17-.77,.17h-1.35v-1.41Zm0,2.63h1.69c.38,0,.66,.07,.83,.2,.17,.13,.26,.3,.26,.53v.02c0,.25-.09,.43-.28,.55-.18,.12-.44,.18-.76,.18h-1.74v-1.47Z"/><path class="d" d="M148.06,93.08h1.5l.61-1.49h2.82l.61,1.49h1.53l-2.85-6.71h-1.35l-2.86,6.71Zm4.4-2.79h-1.77l.89-2.16,.89,2.16Z"/><path class="d" d="M161.71,88.63v-.02c0-.64-.19-1.14-.57-1.52-.45-.45-1.1-.68-1.94-.68h-3.05v6.67h1.47v-2.13h1.15l1.43,2.13h1.71l-1.63-2.38c.42-.16,.77-.41,1.03-.75,.26-.34,.4-.78,.4-1.32Zm-1.48,.08c0,.29-.1,.51-.29,.68-.19,.17-.47,.26-.83,.26h-1.48v-1.91h1.46c.36,0,.65,.08,.85,.24,.2,.16,.3,.4,.3,.71v.02Z"/><rect class="d" x="165.57" y="89.43" width="2.93" height="1.39"/><path class="d" d="M176.82,92.97c.31-.08,.57-.19,.79-.34,.22-.15,.39-.34,.5-.57,.12-.23,.18-.49,.18-.8v-.02c0-.44-.11-.79-.33-1.04-.22-.25-.53-.45-.91-.59,.12-.06,.23-.14,.34-.23,.1-.09,.19-.19,.27-.31,.08-.12,.14-.25,.19-.4s.07-.31,.07-.5v-.02c0-.45-.15-.83-.46-1.13-.4-.39-.97-.59-1.74-.59h-3.09v6.67h3.17c.37,0,.71-.04,1.02-.11Zm-2.76-5.26h1.45c.31,0,.55,.06,.71,.18,.17,.12,.25,.29,.25,.51v.02c0,.25-.1,.43-.29,.54-.19,.11-.45,.17-.77,.17h-1.35v-1.41Zm0,2.63h1.69c.38,0,.66,.07,.83,.2,.17,.13,.26,.3,.26,.53v.02c0,.25-.09,.43-.28,.55-.18,.12-.44,.18-.76,.18h-1.74v-1.47Z"/><path class="d" d="M178.94,93.08h1.49l.61-1.49h2.82l.61,1.49h1.53l-2.85-6.71h-1.35l-2.86,6.71Zm4.4-2.79h-1.77l.89-2.16,.89,2.16Z"/><rect class="d" x="187.1" y="86.42" width="1.46" height="6.67"/><polygon class="d" points="191.58 86.42 190.23 86.42 190.23 93.08 191.68 93.08 191.68 88.84 194.91 93.08 196.15 93.08 196.15 86.42 194.71 86.42 194.71 90.52 191.58 86.42"/><path class="d" d="M205.77,87.37c-.32-.3-.69-.53-1.12-.7-.44-.17-.91-.25-1.43-.25h-2.6v6.67h2.6c.52,0,1-.09,1.43-.26,.44-.17,.81-.4,1.12-.7,.31-.3,.56-.65,.73-1.06,.17-.41,.26-.84,.26-1.31v-.02c0-.47-.09-.91-.26-1.31-.17-.4-.41-.75-.73-1.05Zm-.55,2.4c0,.3-.05,.57-.15,.81-.1,.24-.24,.45-.41,.63-.17,.18-.38,.31-.63,.41-.25,.1-.52,.14-.82,.14h-1.13v-4.02h1.13c.3,0,.57,.05,.82,.15,.25,.1,.46,.24,.63,.41,.17,.18,.31,.39,.41,.64,.1,.25,.15,.52,.15,.81v.02Z"/><polygon class="d" points="213.07 87.72 213.07 86.42 208.05 86.42 208.05 93.08 213.12 93.08 213.12 91.78 209.5 91.78 209.5 90.38 212.65 90.38 212.65 89.07 209.5 89.07 209.5 87.72 213.07 87.72"/><path class="d" d="M220.41,91.71c-.17,.11-.4,.17-.71,.17-.38,0-.73-.07-1.05-.22-.32-.15-.63-.34-.94-.59l-.87,1.04c.4,.36,.84,.63,1.33,.81,.49,.17,.99,.26,1.5,.26,.36,0,.69-.05,.99-.14,.3-.09,.55-.23,.77-.4,.21-.18,.38-.39,.5-.65,.12-.26,.18-.55,.18-.88v-.02c0-.29-.05-.54-.14-.75-.09-.21-.23-.39-.41-.55-.18-.15-.4-.29-.67-.4-.26-.11-.56-.21-.9-.3-.29-.08-.52-.14-.71-.2s-.34-.12-.44-.18c-.11-.06-.18-.13-.22-.21-.04-.08-.06-.17-.06-.28v-.02c0-.17,.07-.3,.21-.41,.14-.11,.36-.17,.64-.17s.57,.06,.86,.18c.29,.12,.58,.28,.88,.48l.76-1.11c-.34-.27-.72-.48-1.13-.63s-.86-.22-1.35-.22c-.34,0-.66,.05-.94,.14-.28,.09-.53,.23-.74,.41-.2,.18-.36,.39-.48,.63-.11,.24-.17,.52-.17,.82v.02c0,.33,.05,.61,.16,.83,.11,.22,.25,.41,.44,.56,.19,.15,.42,.27,.7,.38,.27,.1,.58,.19,.92,.28,.28,.07,.51,.14,.68,.2,.17,.06,.31,.13,.41,.19,.1,.06,.17,.13,.2,.2,.04,.08,.05,.16,.05,.25v.02c0,.2-.08,.35-.25,.46Z"/><path class="d" d="M228.06,86.57c-.43-.18-.91-.27-1.42-.27s-.99,.09-1.42,.27c-.44,.18-.81,.43-1.12,.74-.31,.31-.56,.68-.74,1.1-.18,.42-.27,.86-.27,1.34v.02c0,.48,.09,.92,.26,1.34,.17,.42,.42,.78,.73,1.08,.31,.31,.69,.55,1.12,.73,.43,.18,.9,.27,1.42,.27s.99-.09,1.43-.27c.43-.18,.81-.43,1.12-.74,.31-.31,.56-.68,.74-1.1,.18-.42,.27-.86,.27-1.34v-.02c0-.48-.09-.92-.26-1.34-.17-.42-.42-.78-.73-1.09-.31-.31-.69-.55-1.12-.73Zm.58,3.19c0,.29-.05,.55-.15,.8-.1,.25-.23,.47-.41,.66-.18,.19-.39,.34-.63,.45-.25,.11-.52,.16-.81,.16s-.57-.06-.81-.17c-.25-.11-.46-.26-.64-.45-.18-.19-.32-.41-.42-.67s-.15-.52-.15-.81v-.02c0-.29,.05-.55,.15-.8,.1-.25,.23-.47,.41-.66,.17-.19,.38-.34,.63-.45,.24-.11,.51-.16,.81-.16s.56,.06,.81,.17c.25,.11,.46,.26,.64,.45s.32,.41,.42,.67,.15,.52,.15,.81v.02Z"/><polygon class="d" points="231.48 86.42 231.48 93.08 236.27 93.08 236.27 91.76 232.94 91.76 232.94 86.42 231.48 86.42"/><polygon class="d" points="242.44 91.78 238.82 91.78 238.82 90.38 241.96 90.38 241.96 89.07 238.82 89.07 238.82 87.72 242.39 87.72 242.39 86.42 237.37 86.42 237.37 93.08 242.44 93.08 242.44 91.78"/><rect class="d" x="243.82" y="86.42" width="1.46" height="6.67"/><polygon class="d" points="251.74 91.76 248.42 91.76 248.42 86.42 246.95 86.42 246.95 93.08 251.74 93.08 251.74 91.76"/><rect class="d" x="138.81" y="71.78" width="6.67" height="5.58"/><rect class="d" x="138.81" y="61.9" width="6.67" height="8.65"/><rect class="d" x="170.08" y="71.78" width="6.67" height="5.58"/><rect class="d" x="170.08" y="61.9" width="6.67" height="8.65"/><path class="d" d="M119.29,142.58c.11-1.59,.17-3.59,.17-5.99,0-2.4-.06-5.23-.17-8.48-.11-3.26-.17-6.1-.17-8.52,0-2.43,.06-4.46,.17-6.1,.04-.61,.08-1.21,.13-1.79,.04-.59,.11-1.18,.2-1.79-.35-1.29-1.25-1.99-2.72-2.09-2.1-.05-3.31,.74-3.62,2.36-.15,.79-.29,1.61-.4,2.48-.11,.86-.2,1.76-.26,2.7-.11,1.59-.15,3.56-.12,5.92,.03,2.36,.13,5.16,.29,8.42,.16,3.26,.27,6.06,.33,8.39,.06,2.33,.03,4.3-.08,5.89-.04,.61-.1,1.21-.16,1.79-.07,.58-.15,1.18-.24,1.79,.42,.92,1.22,1.43,2.39,1.51,.62,.04,1.29-.09,1.99-.3,.76-.33,.75-.75,1.35-1.68,.49-.76,.75-2.63,.85-3.57,.03-.31,.06-.61,.08-.93Z"/><path class="d" d="M129.58,20.93c1.28-1.34,2.57-2.67,3.91-2.67,1.42,0,2.78,1.33,4.13,2.66,1.26,1.24,2.53,2.48,3.72,2.48,1.27,0,2.59-1.24,3.92-2.49,1.42-1.33,2.84-2.66,4.32-2.66h.02c1.76,.02,4.02,1.95,5.8,3.47,1.1,.93,2,1.7,2.33,1.69,.33,.01,1.23-.75,2.33-1.69,1.78-1.52,4.05-3.45,5.8-3.46h.02c1.48,0,2.9,1.33,4.32,2.66,1.33,1.24,2.65,2.49,3.92,2.49,1.2,0,2.46-1.24,3.72-2.48,1.36-1.33,2.72-2.66,4.13-2.66s2.63,1.34,3.91,2.67c1.18,1.23,2.37,2.47,3.49,2.47,.24,0,.48-.05,.72-.13l-9.31-6.93c-.83,.45-1.68,1.25-2.53,2.09-1.36,1.33-2.71,2.67-4.13,2.67s-2.9-1.33-4.32-2.66c-1.33-1.24-2.65-2.49-3.92-2.49h-.03c-1.55,.02-3.72,1.87-5.43,3.32-1.16,.98-2.11,1.79-2.67,1.83h0s-.02,0-.04,0-.02,0-.04,0h0c-.56-.04-1.51-.85-2.67-1.83-1.71-1.45-3.88-3.3-5.43-3.32h-.03c-1.27,0-2.59,1.25-3.92,2.49-1.42,1.33-2.84,2.66-4.32,2.66s-2.78-1.33-4.13-2.67c-.82-.81-1.64-1.58-2.45-2.03l-9.39,6.88c.24,.07,.48,.13,.72,.13,1.12,0,2.3-1.24,3.49-2.47Z"/><path class="d" d="M83.86,46.26c.1-.02,.2-.03,.3-.05,0,0,7.37-1.67,12,.88h0c.13,.06,.25,.13,.38,.19,.02,.01,.04,.02,.06,.03h0s.03,.01,.05,.02h0c.2,.08,.4,.08,.59,.02h0s.07-.02,.1-.04h.01c1.17-.56,2.4-1.02,3.68-1.4,0,0,3.02-1.11,7.82-1.19h0v31.74c0,.5,.4,.9,.9,.9s.9-.4,.9-.9v-31.72c1.13,.04,2.33,.15,3.6,.33,.46,.06,.92,.14,1.37,.22h0c.44,.09,.89,.18,1.35,.29,.76,.17,1.41,.36,1.97,.55,1.11,.35,2.17,.77,3.19,1.27,.22,.11,.47,.13,.72,.04h0l.04-.02h0s.05-.02,.07-.03c.43-.23,.87-.42,1.31-.59,.07-.02,.13-.05,.2-.07v10.74h-7.92c-1.23,0-2.22,1-2.22,2.22,0,.97,.62,1.79,1.48,2.09v14.58c0,.55,.44,.99,.99,.99s.99-.44,.99-.99v-4.57h6.67v4.57c0,.34,.18,.65,.44,.82,.16,.11,.36,.18,.57,.18h11.37v-15.59c-.86-.31-1.48-1.13-1.48-2.09,0-1.23,.99-2.22,2.22-2.22h9.14c1.23,0,2.22,1,2.22,2.22,0,.97-.62,1.79-1.48,2.09v15.59h20.65v-15.59c-.86-.31-1.48-1.13-1.48-2.09,0-1.23,1-2.22,2.22-2.22h9.14c1.23,0,2.22,1,2.22,2.22,0,.97-.62,1.79-1.48,2.09v15.59h11.37c.55,0,.99-.44,.99-.99v-4.59h6.59v4.57c0,.55,.44,.99,.99,.99s.99-.44,.99-.99v-14.58c.86-.31,1.48-1.13,1.48-2.09,0-1.23-1-2.22-2.22-2.22h-7.82v-10.74c.07,.02,.13,.05,.2,.07,.44,.17,.88,.37,1.31,.59,.02,.01,.04,.02,.07,.03h0l.04,.02h0c.24,.1,.5,.08,.72-.03,1.01-.49,2.08-.91,3.19-1.27,.56-.19,1.21-.37,1.97-.55,.46-.1,.9-.2,1.35-.28h0c.45-.09,.91-.16,1.37-.23,1.27-.19,2.47-.29,3.6-.33v31.72c0,.5,.41,.9,.91,.9s.9-.4,.9-.9v-31.73h0c4.8,.08,7.82,1.19,7.82,1.19,1.28,.38,2.52,.84,3.68,1.39h.01s.06,.03,.1,.04h0c.19,.06,.4,.06,.59-.02h0s.03-.01,.05-.02h0s.04-.02,.06-.03c.12-.07,.25-.13,.38-.19h0c4.63-2.55,12-.88,12-.88,.1,.02,.2,.03,.3,.05,.37,.06,.73-.12,.91-.44,.18-.32,.15-.72-.08-1.01-6.46-7.91-16.06-12.79-25.84-13.2h0c0-.49-.4-.89-.9-.89-.49,0-.89,.4-.89,.9h0c-4.8,.3-9.52,1.61-13.82,3.76v-6.56h2.72c1.2,0,1.69-1.36,.89-2.13l-2.93-2.18c-.78,.51-1.56,.89-2.37,.89-1.35,0-2.63-1.34-3.91-2.67-1.19-1.23-2.37-2.47-3.49-2.47-1.2,0-2.46,1.24-3.72,2.48-1.36,1.33-2.72,2.66-4.14,2.66s-2.9-1.33-4.31-2.66c-1.33-1.24-2.66-2.49-3.92-2.49h-.02c-1.55,.02-3.73,1.87-5.44,3.32-1.15,.98-2.11,1.79-2.67,1.83h0s-.02,0-.04,0c-.01,0-.02,0-.04,0h0c-.56-.04-1.52-.85-2.67-1.83-1.71-1.45-3.88-3.31-5.44-3.32h-.02c-1.26,0-2.59,1.25-3.92,2.49-1.42,1.33-2.83,2.66-4.31,2.66s-2.78-1.33-4.13-2.66c-1.26-1.24-2.53-2.48-3.72-2.48-1.12,0-2.3,1.24-3.49,2.47-1.28,1.34-2.56,2.67-3.91,2.67-.81,0-1.6-.39-2.38-.9l-2.91,2.13c-.87,.75-.38,2.18,.86,2.18h2.82v6.56c-4.3-2.15-9.02-3.45-13.82-3.74h0c0-.51-.4-.91-.89-.91-.49,0-.9,.4-.9,.89h0c-9.78,.4-19.38,5.29-25.84,13.2-.23,.29-.27,.69-.08,1.01,.18,.32,.55,.5,.91,.44Zm40.6,24.29h-6.67v-8.65h6.67v8.65Zm66.62-8.65h6.59v8.65h-6.59v-8.65Zm-9.02-33.09h7.04v7.62c-2.55,1.47-4.92,3.25-7.04,5.29v-12.91Zm0,17.24c1.32-.18,3.24-.32,5.42-.13,.12,.01,.23,.02,.34,.04,.43,.05,.86,.11,1.29,.2v6.27l-7.04-2.91v-3.47Zm-33.87-17.24h19.18v5.33c-1.4-1.38-3.29-2.25-4.77-2.25h-.02c-.7,0-1.18,.79-.91,1.5,.42,1.11,.71,2.42,.8,3.84,.02,.25-.16,.46-.38,.46h-.77c-.19,0-.36-.15-.38-.36-.28-2.28-1.51-3.99-2.98-3.99h0c-.16,0-.21,.35-.06,.46,.84,.64,1.48,1.89,1.68,3.4,.04,.26-.15,.49-.38,.49h-.66c-.19,0-.35-.15-.38-.36-.27-2.01-1.37-3.51-2.68-3.51h0c-.14,0-.19,.32-.06,.42,.74,.56,1.29,1.64,1.5,2.95,.04,.26-.14,.5-.38,.5h-.65c-.19,0-.35-.15-.38-.35-.27-1.8-1.26-3.14-2.44-3.14h0c-.13,0-.17,.29-.05,.38,.66,.5,1.16,1.45,1.36,2.6,.04,.26-.14,.51-.38,.51h-.53c-.19,0-.34-.15-.38-.35-.26-1.58-1.14-2.74-2.19-2.74h0c-.12,0-.15,.26-.05,.34,.57,.43,1.01,1.24,1.2,2.23,.05,.27-.13,.51-.38,.51h-.9c-.18,0-.33-.13-.37-.32-.28-1.22-1.1-2.23-2.19-2.78v-5.79Zm17.55,6.73c0,.44-.32,.79-.71,.79s-.71-.35-.71-.79,.32-.79,.71-.79,.71,.35,.71,.79Zm-31.01,10.71c.4,.08,.62,.14,.62,.14,.1,.02,.21,.03,.3,.05,.15,.02,.3,0,.44-.04,.19-.07,.36-.21,.47-.39,.19-.32,.15-.72-.08-1.01-.56-.7-1.15-1.37-1.77-2.02v-14.16h12.84v5.54c-.4-.13-.82-.19-1.26-.19h0c-.22,0-.28,.3-.08,.39,1.42,.66,2.41,2.09,2.41,3.76s-.99,3.1-2.41,3.76c-.2,.09-.13,.38,.08,.38h.04c1.96-.01,3.62-1.39,4.04-3.22,.04-.19,.2-.32,.37-.32h.9c.25,0,.43,.25,.38,.51-.19,.99-.63,1.8-1.21,2.23-.11,.08-.07,.34,.05,.34h.02c1.04,0,1.92-1.17,2.17-2.74,.04-.2,.19-.35,.38-.35h.53c.24,0,.42,.24,.38,.5-.2,1.16-.7,2.11-1.36,2.61-.12,.09-.08,.38,.05,.38h.02c1.17-.01,2.17-1.35,2.43-3.14,.03-.2,.19-.35,.38-.35h.65c.24,0,.42,.24,.38,.5-.21,1.31-.77,2.39-1.5,2.95-.13,.1-.09,.41,.05,.42h.03c1.3-.01,2.39-1.52,2.66-3.51,.03-.21,.19-.36,.38-.36h.66c.24,0,.42,.23,.38,.49-.21,1.52-.84,2.77-1.69,3.41-.14,.11-.1,.46,.06,.46h.03c1.46-.01,2.69-1.73,2.97-3.99,.02-.21,.19-.36,.38-.36h.77c.22,0,.4,.21,.38,.46-.09,1.42-.38,2.73-.8,3.84-.27,.72,.2,1.5,.91,1.5h.02c2.7,0,6.72-2.87,6.72-6.4,0-1.28-.53-2.47-1.33-3.47v-6.01h12.84v14.16c-.61,.65-1.2,1.32-1.76,2.02-.23,.29-.26,.69-.08,1.01,.11,.19,.28,.32,.47,.39,.14,.05,.29,.07,.45,.04,.1-.02,.2-.03,.3-.05,0,0,.22-.06,.62-.14v3.06h-46.09v-3.06Zm-8.28-17.44h7.04v12.91c-2.12-2.04-4.5-3.82-7.04-5.29v-7.62Zm0,17.35c.43-.09,.86-.15,1.29-.2,.11-.01,.22-.02,.34-.04,2.17-.2,4.09-.05,5.41,.13v3.47l-7.04,2.91v-6.27Z"/><path class="d" d="M136.92,15.96c.23,.22,.47,.44,.7,.67,1.26,1.24,2.53,2.48,3.72,2.48,1.27,0,2.59-1.24,3.92-2.49,.24-.23,.48-.45,.73-.67,4.46-3.51,7.63,0,7.63,0,.62,.49,1.23,1,1.79,1.47,1.1,.94,2,1.7,2.33,1.69,.33,.02,1.23-.75,2.33-1.69,.56-.48,1.17-.99,1.79-1.47,4.09-3.6,7.63,0,7.63,0,.24,.22,.48,.44,.73,.67,1.33,1.24,2.65,2.49,3.92,2.49,1.2,0,2.46-1.24,3.72-2.48,.23-.23,.47-.45,.7-.67,.27-.26,.56-.47,.85-.64L160.32,1.11c-.51-.33-.85-.56-.89-.6-1.45-1.17-2.9,.03-2.9,.03l-1.04,.69-19.29,14.12c.43,.29,.73,.6,.73,.6Z"/><path class="d" d="M229.7,104.6c-.54-.07-1.16,0-1.82,.19-.59,.18-1.2,.38-1.8,.6-.08,0-.16,.03-.23,.06-.33,.11-1.06,.59-1.3,2.65-.33,1.56-1.03,10.25-1.61,14.08-.37,2.39-.71,4.65-.96,6.11l-.15,.87c-.42,2.43-.78,4.53-1.08,6.3-.33,1.96-.63,3.55-.87,4.72-.55,2.63-1.13,4.97-1.71,6.99-.11,.42-.33,1.01-.65,1.76-.34,.79-1.03,1.03-1.57,.99-.52-.04-1.17-.37-1.42-1.19-.54-1.74-.92-3.71-1.13-5.84-.06-.69-.11-1.98-.14-3.84-.03-1.83-.05-4.27-.04-7.46-.03-2.4-.01-2.21-.22-4.09-.09-.83-.03-1.37,.03-1.89,.07-.6,.13-1.16-.05-1.95,0-.02-.01-.04-.02-.06-.16-.48-.28-1.15-.02-3.57,.22-2.13,.2-3.61-.07-4.54-.22-1.08-.93-2.42-3.05-2.71-1.98-.28-3.57,.16-4.71,1.31-.01,.01-.03,.03-.04,.04-.68,.84-.58,2.59-.47,4.63,.04,.73,.08,1.49,.08,2.18,0,.95-.13,1.42-.24,2.33-.17,1.39-.34,2.83-.2,4.81,.34,4.22,.45,5.27,.59,7.77,.14,2.56,.22,4.23,.25,5.11,.05,5.79,.84,9.3,3.1,13.9,1.26,2.73,3.72,4.37,7.31,4.87,.57,.08,1.19,.09,1.82,.02,2.16-.23,4.52-1.35,5.99-3.68,3.1-4.83,4.02-8.72,5.38-15.19,.4-1.88,.68-4.13,.83-6.67,.16-2.49,.53-5.17,1.12-7.96h0c.04-.12,.07-.26,.1-.39,.05-.25,.13-.62,.22-1.07,.18-.89,.42-2.11,.68-3.4,.42-2.12,.99-9.26,1.3-10.73,.4-1.92,.27-3.41-.41-4.45-.57-.88-1.52-1.42-2.81-1.6Z"/><path class="d" d="M38.35,169.81c-.61-.13-1.42-.31-2.51-.52-.99-.2-1.81-.4-2.43-.6-1.79-.61-3.15-1.21-4.03-1.81-.89-.59-1.82-1.23-2.77-1.89-.93-.65-2.04-1.47-3.28-2.44l-.31-.24c-3.68-2.87-6.64-6.26-8.8-10.08-1.83-3.24-2.96-6.52-3.35-9.76-.37-3.06-.41-5.91-.12-8.45,.29-2.55,.81-4.88,1.54-6.91,.73-2.02,1.63-3.83,2.68-5.36,1.06-1.54,2.17-2.87,3.31-3.95,2.15-2.02,4.08-3.35,5.73-3.95,.73-.27,1.53-.64,2.3-1,1.11-.51,2.25-1.05,3.24-1.3,1.47-.43,2.48-1.13,3-2.07,.49-.91,.68-1.9,.55-2.94-.13-1.03-.4-2.17-1.52-2.84-1.95-1.17-3.95-1.1-6.18-.89-2.63,.25-5.92,2.2-8.8,4.08-3.03,1.97-6.25,4.98-9.57,8.93-2.19,2.58-4.04,6.02-5.52,10.22-1.48,4.21-1.88,9.2-1.2,14.82,.27,2.21,.75,4.9,1.44,8,.69,3.13,2.2,6.06,3.8,9.16l.09,.17c.84,1.65,2.34,3.53,4.47,5.61l.55,.54c1.93,1.89,3.92,3.84,6.56,5.58,2.87,1.89,6.02,3.56,9.36,4.95,3.26,1.36,5.48,2.21,8.92,2.52h.02s.01,0,.02,0l1.52,.02c1.87-.06,2.35-.37,3.17-1.47,.82-1.1,1.13-2.15,.99-3.3-.19-1.52-1.13-2.46-2.89-2.85Z"/><path class="d" d="M57.55,165.2c-.16-.74-.31-1.5-.44-2.25-.04-.25-.14-.77-.26-1.39-.25-1.31-.59-3.11-.67-3.68-.21-1.49-.69-5.41-.85-8.01-.16-2.52-.27-5.29-.35-8.24-.08-2.96-.15-6.02-.23-9.17-.07-3.15-.14-6.16-.2-9.01-.03-1.38-.02-3.85-.01-6.23,0-2.6,.02-5.05-.02-6.24-.05-1.72-.14-2.51-.24-3.34-.03-.29-.07-.58-.1-.92-.22-2.29-1.37-2.59-2.12-2.78l-.07-.02c-.79-.2-1.38-.21-2.52-.04l-.78,.12c-1.16,.25-1.76,1.45-1.78,3.61,.08,4.47-.07,13.14-.17,17.1-.04,1.56,.03,3.04,.09,4.47,.06,1.52,.12,2.95,.06,4.32-.02,.39-.32,.72-.71,.79l-2.78,.49-.99,.15c-1.43,.21-2.53,.26-3.28,.15-.38-.06-.83-.24-.95-1.17-.1-.69-.16-1.53-.18-2.49-.03-1-.06-2.01-.08-3.01-.01-.36-.02-.66-.03-.94-.02-.51-.03-.94-.04-1.5-.01-.92-.05-1.58-.11-2.02-.08-.59-.2-1.22-.35-1.88-.15-.67-.36-1.3-.62-1.86-.27-.59-.61-1.1-1.02-1.5-.44-.43-.98-.71-1.64-.82l-1.58-.17c-.85-.09-1.7,0-2.53,.28-.84,.28-1.25,.96-1.12,1.85l.13,.96c.19,1.38,.35,3.1,.46,5.13,.03,.57,.07,1.12,.1,1.67,.08,1.4,.17,2.85,.24,4.54,.1,2.27,.16,4.64,.18,7.04,.02,2.52,.06,4.67,.12,6.58,.03,1.06,.06,1.84,.1,2.56,.03,.65,.06,1.26,.08,1.97,.02,.6,.02,1.02,.02,1.35,0,.5,0,.8,.06,1.18,.02,.17,.05,.54,.07,1.36,.01,.69,.14,2.28,.21,2.75,.15,1.05,.44,1.89,.88,2.5,.43,.61,.93,1.08,1.49,1.39,.56,.32,1.16,.5,1.79,.54,.58,.03,1.14,0,1.69-.08,.41-.06,1.5-.22,2.08-1.02,.32-.44,.43-.99,.32-1.62-.61-3.53-.61-5.52-.61-8.04,0-.41,0-.84,0-1.28-.02-2.59,.08-4.86,.28-6.76,.06-.59,.47-1.07,1.04-1.22,.32-.08,.66-.15,1.01-.21,.11-.02,.4-.04,1.05-.04,.54,0,1.1,0,1.7,0h.02l1.67-.09c.42-.02,.83,.12,1.14,.41,.31,.28,.5,.67,.52,1.12,.05,.91,.09,1.88,.12,2.96,.03,1.03,.07,2.02,.11,2.94,.04,.92,.1,1.61,.16,2.07,.04,.29,.08,.69,.14,1.26,.04,.54,.1,1.12,.16,1.74,.03,.33,.13,1.11,.23,1.87,.09,.71,.19,1.44,.21,1.7,.05,.53,.09,.97,.14,1.32,.29,2.05,1.5,6.74,2.71,8.01,.82,.86,1.97,1.33,3.43,1.39,.58,.03,1.22-.01,1.9-.11,.56-.08,1-.41,1.28-.95,.25-.48,.35-.98,.28-1.46,0-.01,0-.03,0-.04Z"/><path class="d" d="M111.75,156.19c-.6-.68-.86-1.06-1.11-1.43-.38-.56-.71-1.04-1.95-2.26l-10.02-9.79-2.89-2.54c-.64-.54-1.09-.96-1.36-1.23-.17-.18-.25-.4-.25-.7,0-.22,.09-.41,.28-.59,.26-.24,.65-.52,1.19-.83,2.58-1.65,4.85-3.83,6.76-6.5,2.17-3.01,3.28-6.08,3.28-9.12,0-3.73-1.15-7.13-3.42-10.08-2.49-3.38-5.48-5.17-8.91-5.31h-1.33c-5.84,0-9.13,1.94-9.79,5.78-.49,3-.79,6.3-.89,9.82-.1,3.54-.16,7.49-.16,11.74l-.03,10.22c0,2.46-.12,4.8-.33,6.93-.21,2.13-.02,2.67-.15,4.49l-.09,1.9h0l.11,1.88s0,.04,0,.06c0,3.39,1.46,5.5,4.37,6.26,.03,0,.06,.01,.09,.02,.13,.06,.27,.1,.41,.1,.58,0,1.15-.17,1.73-.5,.72-.42,1.25-1.12,1.44-1.93,.66-2.83,.28-3.66,.54-7.96l.24-6.89c.04-.6,.09-1.15,.13-1.64,.03-.32,.22-.58,.52-.69,.3-.11,.62-.04,.85,.18,.86,.85,1.81,1.83,2.84,2.92,1.88,1.99,4.21,4.53,6.92,7.55l1.14,1.3c3.14,3.57,4.87,5.54,6.97,7.38,1.17,1.02,2.81,1.29,4.19,.67,1.72-.77,2.6-1.8,2.6-3.07,0-.35-.12-.72-.34-1.1-.85-1.59-2.06-3.28-3.58-5.03Zm-19.44-26.99c-.43,.37-1.04,.69-1.43,.45-.36-.22-.54-.53-.55-.95,0-.21-.02-.43-.03-.65l-.02-.28c-.03-.5-.06-1.06-.06-1.66-.17-3.41-.26-5.46-.26-6.25,0-.85,.05-1.74,.14-2.62,.05-.54,.11-.89,.18-1.3l.07-.4c.06-.4,.2-.74,.41-1.01,.31-.4,.88-.88,1.83-.88h0c1.74,0,3.01,.48,3.77,1.4,.79,.97,1.28,2.07,1.45,3.26v.71c0,.31-.02,.64-.05,.99-.03,.36-.08,.74-.13,1.17-.56,3.04-1.91,5.06-5.33,8.03Z"/><path class="d" d="M272,112.89c1.49,.13,3.99,.34,4.56,.49,.05,.01,.09,.02,.14,.02l3.19,.19c2.03,.09,4.64-.06,6.9-2.08,.02-.02,.04-.04,.06-.06,.06-.07,1.53-1.75,1.1-3.61-.29-1.23-1.3-2.18-3.01-2.82-.94-.35-7.57-1.12-7.64-1.13-1.8-.2-7.58-.58-8.74-.65-1.2-.07-8.86-.62-8.95-.63-.36-.02-.74-.03-1.13-.04-1.87-.05-3.98-.11-5.6-.76-.03,0-.05-.02-.08-.03-.18-.05-.54-.17-1.27-.48-.61-.26-1.24-.54-1.89-.83-1.21-.56-2.45-.87-3.69-.92-.2,0-.4,0-.62,.03-.14,.02-.26,.03-.37,.02-.2,0-1.96-.04-2.98,1.02-.47,.49-.71,1.14-.7,1.88,.07,3.42,1.34,4.62,2.38,5.02,.83,.33,1.94,.53,3.12,.74,1.15,.2,2.33,.41,3.46,.77,1.24,.39,2.64,.68,4.27,1.02,.89,.19,1.81,.38,2.8,.61,1,.23,1.68,1.23,1.58,2.32-.76,8.01-1.49,14.99-2.16,20.75-.48,4.12-.92,6.44-1.39,8.91-.3,1.6-.62,3.25-.96,5.48-.17,1.09-.27,1.53-.38,2-.1,.44-.21,.9-.38,1.89-.18,1.06-.49,2.52-.8,3.92-.28,1.29-.55,2.51-.72,3.51l-.15,1c-.07,.44-.11,.8-.13,1.12-.02,.33-.03,.64-.02,.93,0,.02,0,.04,0,.05,.19,1.97,1.44,2.23,2,2.26,.08,0,.17,0,.25,0,1.58-.08,3.01-.95,4.25-2.57,1.23-1.61,2.07-3.46,2.49-5.49,.21-.98,.46-1.83,.69-2.65,.35-1.2,.71-2.45,.96-4.11,.18-1.18,.36-2.24,.56-3.35,.52-2.97,1.1-6.33,1.84-13.32,.41-3.94,.81-7.56,1.2-10.75,.4-3.27,.76-5.97,1.12-8.24,.13-.96,.91-1.66,1.82-1.62l1.32,.06c.28,.04,.92,.09,1.71,.16Z"/><path class="d" d="M312.73,139.5c-.62-4.07-1.6-8.01-2.91-11.71-1.31-3.71-2.96-6.93-4.9-9.56-2.04-2.76-4.34-4.21-6.86-4.32-.38-.02-.67,.06-.91,.12-.05,.01-.11,.03-.16,.04-.04,0-.07,.02-.11,.03-.98,.38-3.31,1.52-3.89,3.8-.16,.63-1.71,.76-3.35,.9-1.65,.14-3.71,.32-5.72,1.05-.66,.27-1.3,.58-1.92,.93-.09,.05-.18,.1-.26,.15-.18,.09-.38,.2-.58,.35-.01,0-.03,.02-.04,.02-1.09,.73-2.08,1.59-2.97,2.58-1.8,2.01-3.32,4.22-4.5,6.57-1.18,2.35-2.07,4.7-2.65,6.99-.58,2.31-.92,4.13-1.05,5.55-.25,2.75-.05,5.14,.59,7.11,.9,3.31,2.08,6.41,3.51,9.22,1.43,2.82,3.06,5.32,4.85,7.43,1.81,2.12,3.85,3.83,6.06,5.07,2.24,1.25,4.64,1.94,7.11,2.05,.29,.01,.59,.01,.9,0,1.55-.08,3.29-.53,5.19-1.33,2.26-.95,4.47-2.45,6.56-4.46,2.09-1.98,3.95-4.47,5.56-7.38,1.61-2.92,2.61-6.41,2.97-10.37,.28-3.09,.1-6.73-.52-10.82Zm-8.79,9.02c-.27,2.76-.9,5.27-1.86,7.46-.97,2.21-2.06,4.12-3.23,5.67-1.17,1.54-2.33,2.72-3.45,3.51-1.47,1.03-2.05,1.1-2.2,1.09-1.64-.06-3.36-.82-5.09-2.26-1.79-1.49-3.41-3.41-4.82-5.7-1.41-2.3-2.53-4.84-3.34-7.55-.8-2.68-1.08-5.27-.84-7.68l.16-1.6c.9-4.26,2.03-7.73,3.35-10.29,.65-1.25,1.38-2.18,2.16-2.76,.04-.03,.08-.06,.11-.1,.8-.57,5.93-3.83,12.35,1.04,.02,.02,2.47,1.93,4.67,5.16l.09,.13c.06,.09,.12,.18,.17,.27,.04,.08,.07,.16,.1,.25,.04,.1,.07,.19,.12,.3,.04,.08,.08,.15,.12,.22,.03,.06,.07,.12,.09,.18v.04c.02,.06,.03,.12,.05,.18,0,.02,.01,.04,.02,.05,.37,.97,.63,1.84,.82,2.76,.31,1.56,.5,3.25,.56,5.02,.06,1.77,.02,3.32-.1,4.6h0Z"/><path class="d" d="M72.39,129.92c.01-.52,.02-1.02,.03-1.51v-.07h0v-9.74c0-1.88-1.13-3.54-2.9-4.23-.75-.26-1.36-.38-1.93-.36-.95,.03-1.73,.35-2.31,.95-.5,.52-.74,1.28-.67,2.07,.05,.49,.09,.97,.12,1.45,.05,.78,.09,1.48,.12,2.16,.07,1.91,.04,4.3-.08,7.1-.05,1.15-.05,1.8-.06,2.42,0,.9,0,1.75-.16,4.08-.26,3.91-.45,7.35-.54,10.22-.1,2.86-.11,5.29-.05,7.23,.04,1.16,.11,2.27,.2,3.31,.09,1.04,.2,2.07,.34,3.05,.31,2.25,1.77,3.47,4.24,3.52,.84-.03,2.03-.16,2.77-.95,.46-.5,.67-1.18,.63-2.02-.02-.36-.05-.71-.08-1.07-.03-.38-.06-.74-.08-1.1l-.08-2.18c-.07-2-.07-4.47,0-7.37,.07-2.92,.21-6.39,.42-10.31,.13-2.34,.1-3.23,.07-4.17-.02-.64-.04-1.3,0-2.48Z"/><path class="d" d="M246.23,118.79c-.66-.36-1.22-.57-1.76-.66-.93-.16-1.73-.04-2.39,.38-.66,.41-1.07,1.17-1.11,2.02-.02,.38-.04,.76-.06,1.13-.04,.6-.09,1.15-.15,1.68-.16,1.49-.46,3.33-.89,5.47-.18,.91-.26,1.42-.34,1.92-.11,.69-.21,1.34-.61,3.11-.69,3.02-1.26,5.69-1.68,7.92-.42,2.23-.72,4.15-.89,5.71-.1,.93-.17,1.83-.21,2.67-.04,.84-.06,1.68-.05,2.5,.01,1.48,.66,3.38,3.66,4.05h.04c.44,.09,.94,.15,1.43,.12,.57-.03,1.14-.18,1.6-.58,.33-.28,.75-.82,.84-1.78,.03-.3,.04-.59,.06-.88,.01-.29,.03-.57,.06-.84l.18-1.72c.17-1.56,.45-3.48,.85-5.71,.4-2.27,.93-4.95,1.57-7.96,.39-1.85,.47-2.56,.56-3.32,.06-.49,.11-1,.27-1.9,.08-.43,.14-.83,.21-1.23v-.02l1.14-7.62c.26-1.71-.67-3.5-2.33-4.46Z"/><path class="d" d="M200.95,159.56l-2.86-11.25c-.57-2.32-.9-4.53-.96-6.57-.07-2.04,.03-3.97,.29-5.75,.11-.51,.08-1.07-.09-1.66l-.06-.2c-.27-.96-.84-2.97-2.93-3.06-2.95-.13-4.49,1.52-4.54,1.56-.56,.55-.88,1.28-.94,2.18-.19,2.61-.58,3.29-.74,3.46-.01,.01-.02,.02-.03,.03-.77,.99-1.51,1.95-2.22,2.87-4.23,5.5-7.57,9.85-10.58,10.85-.44,.15-1.06-.72-1.31-1.24l-.29-.98c-1.01-3.43-1.01-7.57,.02-12.31,.81-4.01,1.83-7.74,3.03-11.06,.72-1.98,.42-1.7,1.27-3.47,.89-1.85,1.29-2.68,2.79-4.15,0,0,2.75-3.25,6.18,3.54,.85,1.68,2.93,2.48,4.77,1.73,1.85-.75,2.71-2.74,1.93-4.45-.43-.93-4.35-9.04-11.23-8.88,0,0-6.66-.14-11.34,9.54-4.28,8.85-5.26,15.61-5.81,24.14-.15,2.84,.03,5.15,.53,6.87,.65,2.2,1.83,3.88,3.48,4.96,2.94,2.03,5.76,2.72,8.38,2.04,.88-.23,1.55-.52,2.01-.86,3.43-2.24,6.46-4.99,9-8.15,.22-.27,.52-.23,.61-.21,.09,.02,.37,.11,.43,.43,.07,.42,.14,.82,.2,1.2,.18,1.12,.31,1.99,.4,2.68l1.13,5.08s0,.03,.01,.05c.75,2.54,2.54,3.98,5.31,4.27,.33,.04,.7,.03,1.09-.04,.18-.03,.36-.07,.55-.11,2.67-.69,2.72-2.22,2.51-3.07Z"/></g></g></g></svg>